<?xml version="1.0" standalone="no"?>
<!DOCTYPE svg PUBLIC "-//W3C//DTD SVG 1.1//EN" "http://www.w3.org/Graphics/SVG/1.1/DTD/svg11.dtd" >
<svg xmlns="http://www.w3.org/2000/svg" xmlns:xlink="http://www.w3.org/1999/xlink" version="1.1">
<metadata>
Created by FontForge 20170731 at Mon Apr 20 19:07:25 2015
 By Aleksey,,,
Copyright 2014 Pria Ravichandran (pria.ravichandran@gmail.com)
</metadata>
<defs>
<font id="Palanquin-Light" horiz-adv-x="314" >
  <font-face 
    font-family="Palanquin Light"
    font-weight="300"
    font-stretch="normal"
    units-per-em="1000"
    panose-1="2 11 0 4 2 2 3 2 2 4"
    ascent="770"
    descent="-230"
    x-height="485"
    cap-height="680"
    bbox="-502 -412 2281 1320"
    underline-thickness="50"
    underline-position="-200"
    unicode-range="U+000D-FB02"
  />
<missing-glyph horiz-adv-x="645" 
d="M550 696v-696h-456v696h456zM157 645v-595h330l-1 595h-329z" />
    <glyph glyph-name=".notdef" horiz-adv-x="645" 
d="M550 696v-696h-456v696h456zM157 645v-595h330l-1 595h-329z" />
    <glyph glyph-name=".null" horiz-adv-x="0" 
 />
    <glyph glyph-name=".null" horiz-adv-x="0" 
 />
    <glyph glyph-name="nonmarkingreturn" horiz-adv-x="333" 
 />
    <glyph glyph-name="CR" unicode="&#xd;" horiz-adv-x="0" 
 />
    <glyph glyph-name="space" unicode=" " horiz-adv-x="236" 
 />
    <glyph glyph-name="exclam" unicode="!" horiz-adv-x="222" 
d="M148 702l-16 -506l-42 21l-16 485h74zM111 94q20 0 33.5 -13.5t13.5 -32.5q0 -20 -13.5 -34t-33.5 -14q-19 0 -34 14t-15 34q0 19 15 32.5t34 13.5z" />
    <glyph glyph-name="quotedbl" unicode="&#x22;" horiz-adv-x="268" 
d="M215 702q19 0 33 -15t14 -40q0 -45 -27 -87.5t-64 -61.5l-18 29q24 16 39.5 34.5t17.5 44.5q-19 2 -31 16t-12 32q0 19 14 33.5t34 14.5zM69 702q19 0 33 -15t14 -40q0 -45 -27.5 -87.5t-64.5 -61.5l-18 29q23 16 38.5 34.5t17.5 44.5q-19 2 -30.5 16t-11.5 32
q0 19 14 33.5t35 14.5z" />
    <glyph glyph-name="numbersign" unicode="#" horiz-adv-x="480" 
d="M418 502l-32 -131h65l7 -49h-85l-31 -132h109l7 -50h-128l-33 -139l-49 5l32 134h-137l-33 -139l-50 5l32 134h-63l-8 50h83l31 132h-106l-8 49h127l31 131h51l-32 -131h137l31 131h52zM187 322l-32 -132h136l32 132h-136z" />
    <glyph glyph-name="dollar" unicode="$" horiz-adv-x="533" 
d="M340 800v-113q28 -5 51.5 -13.5t42.5 -16.5l-22 -47q-26 12 -59 23t-85 11q-72 0 -114 -31t-42 -83q0 -119 187 -170t183 -200q-1 -57 -38 -100t-104 -62v-109l-47 4v97q-10 -1 -22 -2t-24 -1h-21v-98h-46v104q-37 7 -70 16.5t-45 19.5l15 48q26 -13 71 -26t95 -13
q86 0 131.5 35t45.5 87q0 117 -185 166.5t-184 203.5q1 52 34.5 93t91.5 60v117l46 -3v-105q10 1 20.5 2.5t19.5 1.5q7 0 14 -0.5t13 -1.5v106h47z" />
    <glyph glyph-name="percent" unicode="%" horiz-adv-x="832" 
d="M599 706l-309 -710l-58 4l308 710zM187 702q70 0 113 -44.5t43 -125.5q0 -78 -44.5 -123.5t-110.5 -45.5q-71 0 -114 44t-43 125q0 78 45 124t111 46zM187 651q-33 0 -63 -27t-30 -92q0 -62 28.5 -90t65.5 -28q32 0 62 26.5t30 91.5q0 63 -28 91t-65 28zM645 338
q69 0 112 -44.5t43 -124.5q0 -78 -44.5 -123.5t-110.5 -45.5q-70 0 -113 44t-43 125q0 77 45 123t111 46zM645 288q-34 0 -63.5 -26.5t-29.5 -92.5q0 -63 28 -90.5t65 -27.5q33 0 62.5 27t29.5 91q0 63 -28 91t-64 28z" />
    <glyph glyph-name="ampersand" unicode="&#x26;" horiz-adv-x="681" 
d="M491 115l-215 195q-19 19 -37 35t-32 30q-40 -22 -61 -66t-22 -100q0 -88 60 -129t132 -41q57 0 101 19.5t74 56.5zM566 339l46 -18q-3 -60 -15 -111t-35 -92l83 -77l-29 -41l-83 75q-35 -41 -88.5 -64.5t-128.5 -23.5q-107 1 -180.5 56.5t-73.5 163.5q1 68 32 123t80 85
q-15 22 -23 47t-8 58q0 71 46.5 123.5t134.5 52.5q50 0 85.5 -12t65.5 -27l-22 -47q-25 12 -51 23t-78 11q-56 0 -89 -37t-33 -81q0 -54 27.5 -88.5t79.5 -83.5l210 -198q20 37 31.5 83.5t15.5 99.5z" />
    <glyph glyph-name="quotesingle" unicode="'" horiz-adv-x="121" 
d="M69 702q19 0 33 -15t14 -40q0 -45 -27.5 -87.5t-64.5 -61.5l-18 29q23 16 38.5 34.5t17.5 44.5q-19 2 -30.5 16t-11.5 32q0 19 14 33.5t35 14.5z" />
    <glyph glyph-name="parenleft" unicode="(" horiz-adv-x="239" 
d="M171 -37q-63 81 -91 179t-28 178q0 79 28 177t91 178l52 -18q-44 -47 -76 -155.5t-32 -180.5q0 -73 32 -183.5t76 -156.5z" />
    <glyph glyph-name="parenright" unicode=")" horiz-adv-x="239" 
d="M68 675q61 -80 90 -178t29 -177q0 -80 -29 -178t-90 -179l-52 18q43 46 75.5 156t32.5 182t-32.5 181.5t-75.5 156.5z" />
    <glyph glyph-name="asterisk" unicode="*" horiz-adv-x="330" 
d="M190 659l122 26l13 -39l-123 -24l86 -124l-35 -26l-87 118l-88 -118l-36 26l87 124l-123 24l12 39l122 -26l1 115h48z" />
    <glyph glyph-name="plus" unicode="+" horiz-adv-x="516" 
d="M496 248h-210v-244l-57 4v240h-200l-8 50h208v236l57 -3v-233h200z" />
    <glyph glyph-name="comma" unicode="," horiz-adv-x="141" 
d="M78 94q20 0 34 -14t14 -39q0 -46 -27 -88t-65 -61l-18 29q24 16 40 34.5t17 45.5q-19 1 -31 15t-12 32q0 19 14.5 32.5t33.5 13.5z" />
    <glyph glyph-name="hyphen" unicode="-" horiz-adv-x="288" 
d="M272 248h-248l-8 50h248z" />
    <glyph glyph-name="period" unicode="." horiz-adv-x="127" 
d="M64 94q19 0 33 -13.5t14 -32.5q0 -20 -14 -34t-33 -14q-20 0 -34 14t-14 34q0 19 14 32.5t34 13.5z" />
    <glyph glyph-name="slash" unicode="/" horiz-adv-x="377" 
d="M371 706l-309 -710l-56 4l308 710z" />
    <glyph glyph-name="zero" unicode="0" horiz-adv-x="603" 
d="M62 288q0 135 66 213t174 78t173 -75.5t65 -214.5q0 -136 -67 -219t-171 -83q-106 0 -173 81t-67 220zM127 291q0 -117 49 -183.5t126 -66.5q74 0 123.5 66.5t49.5 178.5q0 116 -48 178t-125 62q-76 0 -125.5 -62t-49.5 -173z" />
    <glyph glyph-name="one" unicode="1" horiz-adv-x="380" 
d="M327 0h-256l-9 50h107v439l-75 -51l-29 43l125 85h42v-516h88z" />
    <glyph glyph-name="two" unicode="2" horiz-adv-x="489" 
d="M225 579q107 0 150.5 -55.5t43.5 -111.5t-38.5 -104.5t-110.5 -111.5l-164 -146h322l8 -50h-405v50l205 188q65 59 91 95.5t26 78.5q0 50 -32 83t-98 33q-50 0 -90 -23t-41 -24l-28 46q1 0 47 26t114 26z" />
    <glyph glyph-name="three" unicode="3" horiz-adv-x="510" 
d="M236 579q100 0 149.5 -49.5t49.5 -112.5q0 -54 -33.5 -94t-80.5 -55q56 -13 91 -57t35 -105q0 -77 -61 -129.5t-165 -52.5q-56 0 -106 16.5t-84 35.5l33 44q35 -21 70 -33t90 -12q60 0 109 34t49 95q0 64 -46.5 102t-150.5 38h-18l-10 45h34q84 0 131.5 35t47.5 92
q0 44 -37 78t-100 34q-54 0 -95 -16.5t-65 -32.5l-31 41q39 25 86.5 42t107.5 17z" />
    <glyph glyph-name="four" unicode="4" horiz-adv-x="544" 
d="M505 74h-96v-143h-62v143h-307l-9 51l337 446h41v-446h104zM98 125h249v331z" />
    <glyph glyph-name="five" unicode="5" horiz-adv-x="535" 
d="M85 230l15 336h333l-8 -52h-265l-10 -221q26 17 56 27t58 10q110 0 158.5 -59.5t49.5 -140.5q0 -83 -59 -144.5t-172 -61.5q-55 0 -104.5 16.5t-84.5 35.5l33 44q35 -21 70.5 -33t89.5 -12q73 0 117 41.5t44 113.5t-38.5 110.5t-99.5 38.5q-40 0 -72 -18t-48 -31h-63z
" />
    <glyph glyph-name="six" unicode="6" horiz-adv-x="540" 
d="M350 634l25 -37q-93 -22 -159.5 -102t-83.5 -174q28 26 69 46t87 20q93 0 146 -60.5t53 -136.5q0 -78 -55 -140.5t-143 -62.5q-102 0 -164.5 70.5t-62.5 203.5q0 110 80 229t208 144zM426 185q0 60 -37 106t-101 46q-55 0 -97 -27t-64 -62q1 -94 40.5 -151t119.5 -57
q63 0 101 44t38 101z" />
    <glyph glyph-name="seven" unicode="7" horiz-adv-x="482" 
d="M61 -49l315 563h-316l-8 52h377l22 -29l-330 -606z" />
    <glyph glyph-name="eight" unicode="8" horiz-adv-x="552" 
d="M276 643q97 0 146 -49.5t49 -112.5q0 -51 -34 -87.5t-74 -54.5q53 -13 94.5 -60t41.5 -110q0 -72 -57 -127t-166 -55q-110 0 -167 53.5t-57 128.5q0 54 40 105.5t97 64.5q-46 18 -77.5 55t-31.5 87q0 63 50 112.5t146 49.5zM273 593q-67 0 -98.5 -35t-31.5 -79
q0 -42 34.5 -76t98.5 -43q63 9 98 44t35 75q0 46 -33 80t-103 34zM276 316q-80 -10 -120 -51t-40 -98t46 -93t114 -36q65 0 112 35.5t47 93.5q0 57 -40 98t-119 51z" />
    <glyph glyph-name="nine" unicode="9" horiz-adv-x="540" 
d="M407 246q-28 -25 -69.5 -46t-85.5 -21q-93 0 -146.5 60t-53.5 136q0 79 55 141.5t144 62.5q102 0 164 -70t62 -205q0 -110 -80 -228.5t-207 -144.5l-26 39q94 20 160 101t83 175zM413 318q-3 93 -41.5 151t-118.5 58q-64 0 -101 -44.5t-37 -101.5q0 -59 36.5 -105.5
t100.5 -46.5q54 0 96.5 27.5t64.5 61.5z" />
    <glyph glyph-name="colon" unicode=":" horiz-adv-x="127" 
d="M63 355q-19 0 -33 14t-14 33t14 34t33 15q20 0 34 -15t14 -34t-14 -33t-34 -14zM63 36q-19 0 -33 14t-14 34t14 34t33 14q20 0 34 -14t14 -34t-14 -34t-34 -14z" />
    <glyph glyph-name="semicolon" unicode=";" horiz-adv-x="143" 
d="M79 355q-20 0 -34 14t-14 33t14 34t34 15t34 -15t14 -34t-14 -33t-34 -14zM78 132q20 0 34 -15t14 -41q0 -44 -27 -87t-65 -61l-18 29q24 16 40 35t17 45q-19 2 -31 15t-12 32q0 20 14.5 34t33.5 14z" />
    <glyph glyph-name="less" unicode="&#x3c;" 
d="M259 19l-249 202v48l249 201l23 -44l-216 -181l216 -181z" />
    <glyph glyph-name="equal" unicode="=" horiz-adv-x="480" 
d="M458 322h-429l-8 49h430zM458 140h-429l-8 50h430z" />
    <glyph glyph-name="greater" unicode="&#x3e;" 
d="M304 221l-250 -202l-23 45l216 181l-216 181l23 44l250 -201v-48z" />
    <glyph glyph-name="question" unicode="?" horiz-adv-x="395" 
d="M192 702q99 0 143.5 -46t44.5 -118q0 -57 -49 -113t-132 -93l-8 -193l-46 18l-8 206q78 25 128 71t50 103q0 60 -31 85.5t-94 25.5q-54 0 -90.5 -16.5t-75.5 -44.5l-8 54q40 25 78.5 43t97.5 18zM167 94q20 0 34 -13.5t14 -32.5q0 -20 -14 -34t-34 -14t-33.5 14t-13.5 34
q0 19 13.5 32.5t33.5 13.5z" />
    <glyph glyph-name="at" unicode="@" horiz-adv-x="799" 
d="M555 384l-24 -201q-4 -42 16.5 -56.5t41.5 -14.5q46 0 74.5 49.5t28.5 135.5q0 109 -69 179t-186 70q-128 0 -225.5 -89.5t-97.5 -242.5q0 -125 78 -197t190 -72q43 0 87.5 9t75.5 26l16 -46q-42 -22 -91.5 -31.5t-98.5 -9.5q-123 0 -221 88t-98 232q0 155 103 268
t285 113q135 0 220.5 -82.5t85.5 -207.5q0 -119 -45 -179t-120 -60q-24 0 -45.5 8.5t-35.5 26.5q-18 -13 -44 -23.5t-53 -10.5q-83 0 -122.5 40.5t-39.5 104.5q0 90 67.5 144t154.5 54h71zM402 112q25 0 45.5 7.5t33.5 20.5q-2 10 -2.5 23t1.5 27l23 177h-45q-63 0 -110 -42
t-47 -114q0 -35 23 -67t78 -32z" />
    <glyph glyph-name="A" unicode="A" horiz-adv-x="584" 
d="M286 600l-129 -346h262zM318 680l260 -670l-61 -10l-80 204h-297l-75 -204h-59l247 680h65z" />
    <glyph glyph-name="B" unicode="B" horiz-adv-x="604" 
d="M105 0v680h154q107 0 176 -37.5t69 -139.5q0 -51 -25 -86t-66 -55q62 -19 100.5 -61t38.5 -113q0 -107 -75.5 -147.5t-180.5 -40.5h-191zM261 627h-94v-249h91q78 1 131 26.5t53 97.5q0 78 -49.5 101.5t-131.5 23.5zM309 327h-142v-275h131q80 0 136 27.5t56 106.5
q0 76 -49.5 108.5t-131.5 32.5z" />
    <glyph glyph-name="C" unicode="C" horiz-adv-x="600" 
d="M517 611q-31 13 -61 21t-84 8q-107 -1 -170 -86.5t-63 -216.5q0 -122 54 -209t170 -87q54 0 88.5 9t61.5 21l24 -48q-28 -15 -78.5 -26t-93.5 -11q-156 0 -224 105.5t-68 244.5q0 149 75.5 253.5t222.5 104.5q31 0 84.5 -9t81.5 -28z" />
    <glyph glyph-name="D" unicode="D" horiz-adv-x="693" 
d="M105 0v680h222q157 0 224.5 -98.5t67.5 -237.5q0 -142 -76 -243t-225 -101h-213zM330 627h-163v-575h153q107 0 173 80t66 211q0 121 -56.5 202.5t-172.5 81.5z" />
    <glyph glyph-name="E" unicode="E" horiz-adv-x="524" 
d="M105 0v680h360l5 -45h-303v-264h200l5 -45h-205v-276h320l6 -50h-388z" />
    <glyph glyph-name="F" unicode="F" horiz-adv-x="482" 
d="M362 322h-195v-322h-62v680h349l7 -45h-294v-268h189z" />
    <glyph glyph-name="G" unicode="G" horiz-adv-x="657" 
d="M370 342h209v-310h-1l1 -1q-28 -19 -84 -32t-99 -13q-155 0 -239 100.5t-84 249.5q0 161 91.5 259.5t237.5 98.5q31 0 84.5 -9t81.5 -28l-19 -46q-31 13 -61.5 21t-83.5 8q-107 -1 -186 -79.5t-79 -223.5q0 -137 70 -216.5t186 -79.5q36 0 66.5 7t55.5 16v233h-153z" />
    <glyph glyph-name="H" unicode="H" horiz-adv-x="671" 
d="M504 0v319h-337v-319h-62v680l62 5v-316h337v311h62v-680h-62z" />
    <glyph glyph-name="I" unicode="I" horiz-adv-x="272" 
d="M105 0v680h62v-680h-62z" />
    <glyph glyph-name="J" unicode="J" horiz-adv-x="273" 
d="M106 139v541h62v-558q0 -60 -25.5 -91t-97.5 -53l-24 42q50 19 68 39t17 80z" />
    <glyph glyph-name="K" unicode="K" horiz-adv-x="603" 
d="M519 0l-275 346l-77 -89v-257h-62v680h62v-345l306 360l40 -38l-230 -266l310 -391h-74z" />
    <glyph glyph-name="L" unicode="L" horiz-adv-x="507" 
d="M486 0h-381v680h62v-630h314z" />
    <glyph glyph-name="M" unicode="M" horiz-adv-x="780" 
d="M381 230l-214 317v-547h-62v680h35l249 -358l245 358h41v-680h-63v552l-211 -318z" />
    <glyph glyph-name="N" unicode="N" horiz-adv-x="703" 
d="M105 0v680h41l357 -492l34 -59v551h63v-680h-41l-378 531l-14 29v-560h-62z" />
    <glyph glyph-name="O" unicode="O" horiz-adv-x="736" 
d="M371 696q156 0 224.5 -106t68.5 -245q0 -141 -76 -249t-223 -110q-156 0 -224 106.5t-68 244.5q0 149 75.5 252.5t222.5 106.5zM139 338q0 -122 54 -209.5t170 -87.5q107 0 170 85.5t63 217.5q0 122 -53.5 209t-170.5 87q-107 0 -170 -85.5t-63 -216.5z" />
    <glyph glyph-name="P" unicode="P" horiz-adv-x="577" 
d="M105 0v680h176q106 0 175.5 -47t69.5 -158q-1 -110 -75.5 -160.5t-180.5 -50.5h-103v-264h-62zM283 627h-116v-310h105q80 0 135 36t56 121q0 88 -49 120.5t-131 32.5z" />
    <glyph glyph-name="Q" unicode="Q" horiz-adv-x="736" 
d="M608 -14l-66 62q-34 -29 -79 -45t-98 -17q-156 0 -224 106.5t-68 244.5q0 149 75.5 252.5t222.5 106.5q156 0 224.5 -106t68.5 -245q0 -75 -22 -143.5t-65 -118.5l68 -65zM139 338q0 -122 54 -209.5t170 -87.5q40 0 74 12t61 35l-103 98l44 33l94 -92q30 40 46.5 95.5
t16.5 121.5q0 122 -53.5 209t-170.5 87q-107 0 -170 -85.5t-63 -216.5z" />
    <glyph glyph-name="R" unicode="R" horiz-adv-x="633" 
d="M283 627h-116v-290h105q76 0 133 31t58 116q0 87 -51 115t-129 28zM510 0l-161 291q-19 -2 -39 -3.5t-40 -1.5h-103v-286h-62v680h176q106 0 175.5 -43.5t69.5 -150.5q-1 -71 -35 -114t-87 -64l176 -308h-70z" />
    <glyph glyph-name="S" unicode="S" horiz-adv-x="533" 
d="M80 77q26 -13 71 -26t95 -13q86 0 131.5 35t45.5 87q0 117 -185 166.5t-184 203.5q1 70 58.5 118t153.5 48q50 0 94 -12t74 -27l-22 -47q-26 12 -59 23t-85 11q-72 0 -114 -31t-42 -83q0 -119 187 -170t183 -200q-1 -75 -62.5 -124t-172.5 -49q-43 0 -104 13.5t-78 28.5z
" />
    <glyph glyph-name="T" unicode="T" horiz-adv-x="514" 
d="M503 631h-215v-631h-63v631h-215v49h488z" />
    <glyph glyph-name="U" unicode="U" horiz-adv-x="685" 
d="M156 248q0 -87 50 -147t136 -60q89 0 137.5 60t48.5 147v432h63v-441q0 -109 -66.5 -180t-182.5 -71q-115 1 -181.5 71.5t-66.5 179.5v441h62v-432z" />
    <glyph glyph-name="V" unicode="V" horiz-adv-x="584" 
d="M265 0l-259 669l60 11l231 -601l222 601h59l-247 -680h-66z" />
    <glyph glyph-name="W" unicode="W" horiz-adv-x="948" 
d="M668 0l-195 580l-183 -580h-67l-217 669l60 11l189 -595l191 595h59l195 -595l184 595h60l-210 -680h-66z" />
    <glyph glyph-name="X" unicode="X" horiz-adv-x="634" 
d="M21 0l255 344l-240 325l65 11l222 -303l223 303h68l-258 -349l244 -331h-69l-221 297l-227 -307z" />
    <glyph glyph-name="Y" unicode="Y" horiz-adv-x="547" 
d="M240 0l1 276l-235 393l65 11l201 -344l203 344h67l-238 -397l-1 -283h-63z" />
    <glyph glyph-name="Z" unicode="Z" horiz-adv-x="566" 
d="M519 0h-488l-6 50l442 581h-405l-10 49h477l5 -49l-440 -581h420z" />
    <glyph glyph-name="bracketleft" unicode="[" horiz-adv-x="253" 
d="M84 696h163l-8 -45h-98v-695h98l8 -44h-163v784z" />
    <glyph glyph-name="backslash" unicode="\" horiz-adv-x="377" 
d="M314 -4l-308 710l57 4l308 -710z" />
    <glyph glyph-name="bracketright" unicode="]" horiz-adv-x="253" 
d="M168 -88h-162l8 44h97v695h-97l-8 45h162v-784z" />
    <glyph glyph-name="asciicircum" unicode="^" horiz-adv-x="423" 
d="M76 143h-60l166 247h59l166 -247h-60l-135 201z" />
    <glyph glyph-name="underscore" unicode="_" horiz-adv-x="412" 
d="M395 0h-371l-8 50h371z" />
    <glyph glyph-name="grave" unicode="`" horiz-adv-x="162" 
d="M16 742h71l61 -153h-47z" />
    <glyph glyph-name="a" unicode="a" horiz-adv-x="500" 
d="M113 136q0 -34 23 -66t77 -32q47 0 84.5 24t62.5 55v123h-137q-54 0 -82 -31t-28 -73zM86 456q28 19 76.5 30.5t78.5 11.5q83 0 132 -43.5t49 -114.5v-340h-41l-18 52q-23 -24 -64 -44.5t-84 -20.5q-82 0 -122.5 43t-40.5 106q0 69 48.5 107.5t124.5 37.5h135v49
q0 50 -28.5 83t-87.5 33q-53 0 -83 -11t-56 -23z" />
    <glyph glyph-name="b" unicode="b" horiz-adv-x="542" 
d="M84 0v696l62 10v-262q30 23 65.5 38.5t69.5 15.5q107 0 157.5 -72.5t50.5 -183.5t-50.5 -183t-157.5 -72q-35 0 -72.5 15.5t-68.5 40.5l-15 -43h-41zM146 98q31 -29 65.5 -43.5t64.5 -14.5q82 0 117 56.5t35 144.5q0 89 -35 146.5t-117 57.5q-30 0 -64.5 -15t-65.5 -44
v-288z" />
    <glyph glyph-name="c" unicode="c" horiz-adv-x="463" 
d="M412 28q-30 -19 -73 -30t-74 -11q-107 0 -160 72.5t-53 185.5q1 109 57 181t163 72q29 0 72.5 -11.5t72.5 -30.5l-20 -44q-25 12 -50.5 23t-77.5 11q-80 0 -116.5 -57.5t-37.5 -142.5q0 -89 33.5 -148t115.5 -59q53 0 77.5 10.5t50.5 23.5z" />
    <glyph glyph-name="d" unicode="d" horiz-adv-x="542" 
d="M395 386q-31 29 -65 44t-64 15q-82 0 -116.5 -57.5t-34.5 -145.5t34.5 -145t116.5 -57q30 0 64 14.5t65 43.5v288zM458 705v-705h-41l-16 43q-31 -25 -68.5 -40.5t-72.5 -15.5q-106 0 -157 71.5t-51 182.5q0 112 51 184.5t157 72.5q33 0 69.5 -15.5t65.5 -38.5v252z" />
    <glyph glyph-name="e" unicode="e" horiz-adv-x="522" 
d="M475 239h-360q1 -87 40.5 -144.5t129.5 -57.5q53 0 85.5 10.5t57.5 23.5l21 -46q-30 -19 -81 -28.5t-80 -9.5q-119 0 -177.5 72.5t-58.5 185.5q1 109 57 181t163 72t155 -74t48 -185zM412 282q-7 71 -39 117.5t-104 46.5t-108.5 -46.5t-43.5 -117.5h295z" />
    <glyph glyph-name="f" unicode="f" horiz-adv-x="288" 
d="M21 475h73v88q0 63 32 101t86 38q20 0 38 -4.5t28 -8.5l-12 -53q-6 3 -18.5 6t-22.5 3q-38 0 -53.5 -23t-15.5 -59v-88h88l21 -47h-109v-428h-62v428h-72z" />
    <glyph glyph-name="g" unicode="g" horiz-adv-x="542" 
d="M395 386q-31 29 -65 44t-64 15q-82 0 -116.5 -57.5t-34.5 -145.5t34.5 -145t116.5 -57q30 0 64 14.5t65 43.5v288zM458 -53q0 -72 -50.5 -120t-145.5 -48q-29 0 -78 11t-77 30l19 46q25 -12 54 -23t80 -12q61 0 98 28.5t37 88.5v92q-29 -24 -65.5 -38.5t-69.5 -14.5
q-106 0 -157 71.5t-51 182.5q0 112 51 184.5t157 72.5q35 0 72.5 -16.5t67.5 -41.5l17 45h41v-538z" />
    <glyph glyph-name="h" unicode="h" horiz-adv-x="552" 
d="M84 0v696l62 10v-295q31 35 78.5 61t92.5 26q78 0 117.5 -45.5t39.5 -115.5v-336h-62v324q0 50 -24.5 84.5t-77.5 35.5q-32 0 -81 -23t-83 -66v-356h-62z" />
    <glyph glyph-name="i" unicode="i" horiz-adv-x="232" 
d="M116 591q-21 0 -34 13.5t-13 33.5t13 33.5t34 13.5q19 0 33.5 -13.5t14.5 -33.5t-14.5 -33.5t-33.5 -13.5zM85 0v485h63v-485h-63z" />
    <glyph glyph-name="j" unicode="j" horiz-adv-x="232" 
d="M116 591q-21 0 -34 13.5t-13 33.5t13 33.5t34 13.5q19 0 33.5 -13.5t14.5 -33.5t-14.5 -33.5t-33.5 -13.5zM85 -47v532h63v-547q0 -63 -31 -98.5t-103 -58.5l-24 43q50 19 73 44t22 85z" />
    <glyph glyph-name="k" unicode="k" horiz-adv-x="482" 
d="M84 0v696l62 10v-440l225 232l39 -37l-152 -156l208 -305h-75l-173 264l-72 -74v-190h-62z" />
    <glyph glyph-name="l" unicode="l" horiz-adv-x="230" 
d="M84 0v696l62 10v-706h-62z" />
    <glyph glyph-name="m" unicode="m" horiz-adv-x="843" 
d="M84 0v485h41l20 -59q31 30 73.5 51t82.5 21q53 0 89 -22t52 -59q31 33 77 57t89 24q79 0 118.5 -45.5t39.5 -115.5v-336h-63v324q0 50 -25 84.5t-77 35.5q-34 0 -72.5 -19t-72.5 -56q1 -9 1.5 -17t0.5 -16v-336h-63v324q0 50 -24 84.5t-76 35.5q-35 0 -75 -19.5
t-74 -59.5v-366h-62z" />
    <glyph glyph-name="n" unicode="n" horiz-adv-x="552" 
d="M84 0v485h41l20 -76q31 36 79 62.5t93 26.5q78 0 117.5 -45.5t39.5 -115.5v-336h-62v324q0 50 -24.5 84.5t-77.5 35.5q-32 0 -81 -23t-83 -66v-356h-62z" />
    <glyph glyph-name="o" unicode="o" horiz-adv-x="528" 
d="M257 -13q-105 1 -155 74.5t-50 183.5q1 107 56 179.5t159 73.5q107 0 157.5 -73.5t50.5 -185.5q-1 -110 -57 -181t-161 -71zM414 239q0 87 -31.5 146.5t-113.5 59.5q-80 0 -116.5 -57t-37.5 -142q0 -89 31 -147.5t112 -58.5t118 56t38 143z" />
    <glyph glyph-name="p" unicode="p" horiz-adv-x="542" 
d="M146 98q31 -29 65.5 -43.5t64.5 -14.5q82 0 117 56.5t35 144.5q0 89 -35 146.5t-117 57.5q-30 0 -64.5 -15t-65.5 -44v-288zM84 -219v704h41l15 -45q31 24 68.5 41t72.5 17q107 0 157.5 -72.5t50.5 -183.5t-50.5 -183t-157.5 -72q-34 0 -69.5 14.5t-65.5 38.5v-248z" />
    <glyph glyph-name="q" unicode="q" horiz-adv-x="542" 
d="M458 485v-693l-63 -11v259q-29 -24 -65.5 -38.5t-69.5 -14.5q-106 0 -157 71.5t-51 182.5q0 112 51 184.5t157 72.5q35 0 72.5 -17t68.5 -41l16 45h41zM395 386q-31 29 -65 44t-64 15q-82 0 -116.5 -57.5t-34.5 -145.5t34.5 -145t116.5 -57q30 0 64 14.5t65 43.5v288z
" />
    <glyph glyph-name="r" unicode="r" horiz-adv-x="321" 
d="M84 0v485h41l18 -67q26 22 68.5 44.5t80.5 22.5l17 -49q-46 0 -90.5 -24.5t-72.5 -55.5v-356h-62z" />
    <glyph glyph-name="s" unicode="s" horiz-adv-x="451" 
d="M76 73q26 -13 60.5 -23.5t72.5 -10.5q60 0 94 19.5t34 60.5q0 35 -38 60.5t-90 43.5q-57 19 -107 51.5t-50 89.5q0 63 48 98.5t130 35.5q31 0 76 -11t70 -29l-20 -46q-20 10 -51.5 22t-76.5 12q-51 0 -82 -21.5t-31 -56.5q1 -34 36 -55.5t86 -38.5q59 -21 110.5 -56.5
t51.5 -93.5q0 -64 -49.5 -100.5t-142.5 -36.5q-30 0 -76.5 9.5t-74.5 28.5z" />
    <glyph glyph-name="t" unicode="t" horiz-adv-x="309" 
d="M265 428h-109v-305q0 -36 15.5 -59t52.5 -23q11 0 23.5 3.5t17.5 5.5l12 -51q-10 -2 -27.5 -7t-38.5 -5q-53 0 -85.5 33t-32.5 96v312h-71l-1 47h72v126l63 22v-148h88z" />
    <glyph glyph-name="u" unicode="u" horiz-adv-x="531" 
d="M448 485v-485h-42l-19 55q-31 -28 -71.5 -47.5t-79.5 -19.5q-80 0 -119 45t-39 117v335h62v-326q0 -49 25 -83.5t76 -34.5q28 0 69 16.5t76 49.5v378h62z" />
    <glyph glyph-name="v" unicode="v" horiz-adv-x="469" 
d="M206 0l-185 475l62 10l156 -406l150 406h60l-177 -485h-66z" />
    <glyph glyph-name="w" unicode="w" horiz-adv-x="753" 
d="M510 0l-134 393l-124 -393h-67l-164 475l62 10l135 -402l130 402h59l135 -402l130 402h61l-156 -485h-67z" />
    <glyph glyph-name="x" unicode="x" horiz-adv-x="482" 
d="M17 0l183 245l-169 230l65 10l150 -206l152 206h68l-186 -252l172 -233h-68l-150 199l-147 -199h-70z" />
    <glyph glyph-name="y" unicode="y" horiz-adv-x="469" 
d="M181 -98l32 91l-192 482l59 10l159 -402l150 402h60l-134 -368l-79 -229q-15 -41 -50 -69t-83 -38l-17 40q37 17 59.5 32t35.5 49z" />
    <glyph glyph-name="z" unicode="z" horiz-adv-x="472" 
d="M428 453l-305 -405h289l10 -48h-372l-8 31l301 405h-256l-16 49h354z" />
    <glyph glyph-name="braceleft" unicode="{" horiz-adv-x="272" 
d="M160 560q0 -27 19 -71t19 -70q0 -44 -15 -70.5t-49 -37.5q31 -13 47.5 -42t16.5 -70q0 -28 -19 -71.5t-19 -69.5q0 -22 17.5 -38.5t54.5 -16.5h19l5 -45h-26q-63 0 -93.5 28.5t-30.5 77.5q0 31 18 71.5t18 71.5q0 38 -24 59.5t-54 21.5h-33v40h33q30 0 54 22.5t24 59.5
q0 31 -18 72t-18 72q0 48 30.5 76.5t93.5 28.5h26l-5 -45h-19q-37 0 -54.5 -16.5t-17.5 -37.5z" />
    <glyph glyph-name="bar" unicode="|" horiz-adv-x="272" 
d="M167 706v-710l-62 4v710z" />
    <glyph glyph-name="braceright" unicode="}" horiz-adv-x="272" 
d="M111 58q0 26 -19 69.5t-19 71.5q0 43 16 69.5t50 37.5q-32 13 -49 42t-17 71q0 26 19 70t19 71q0 21 -17.5 37.5t-53.5 16.5h-19l-5 45h25q64 0 94.5 -28.5t30.5 -76.5q0 -31 -18.5 -72t-18.5 -72q0 -37 24 -59t54 -22h33v-39h-33q-30 0 -54 -22.5t-24 -60.5
q0 -31 18.5 -71.5t18.5 -71.5q0 -49 -30.5 -77.5t-94.5 -28.5h-25l5 45h19q36 0 53.5 16.5t17.5 38.5z" />
    <glyph glyph-name="asciitilde" unicode="~" horiz-adv-x="356" 
d="M341 290q1 -52 -27.5 -71.5t-66.5 -19.5q-34 0 -71 24t-63 24q-19 0 -33 -10t-16 -32h-45q-2 51 26.5 70.5t67.5 19.5q42 0 74.5 -24t58.5 -24q19 0 33 10t15 33h47z" />
    <glyph glyph-name="dv_CandrabinduInverted" horiz-adv-x="0" 
d="M418 846l-46 -31q-29 57 -67.5 85t-86.5 28q-49 0 -88.5 -28t-67.5 -85l-45 31q34 66 84.5 98.5t116.5 32.5q64 0 114.5 -32.5t85.5 -98.5zM219 769q-22 0 -37 15t-15 37t15 37.5t37 15.5t37.5 -15.5t15.5 -37.5t-15.5 -37t-37.5 -15z" />
    <glyph glyph-name="uni00A0" unicode="&#xa0;" horiz-adv-x="236" 
 />
    <glyph glyph-name="exclamdown" unicode="&#xa1;" horiz-adv-x="222" 
d="M111 605q-20 0 -34.5 14.5t-14.5 34.5q0 19 14.5 33.5t34.5 14.5q19 0 33 -14.5t14 -33.5q0 -20 -14 -34.5t-33 -14.5zM74 0l16 505l42 -20l16 -485h-74z" />
    <glyph glyph-name="cent" unicode="&#xa2;" horiz-adv-x="463" 
d="M297 605v-109q30 -4 63.5 -14t56.5 -26l-20 -44q-25 12 -50.5 23t-77.5 11q-80 0 -116.5 -57.5t-37.5 -142.5q0 -89 33.5 -148t115.5 -59q53 0 77.5 10.5t50.5 23.5l20 -45q-22 -15 -53.5 -25t-61.5 -13v-101l-46 4v94q-99 6 -149 78.5t-50 179.5q1 104 52 174t147 78
v108h46z" />
    <glyph glyph-name="sterling" unicode="&#xa3;" horiz-adv-x="437" 
d="M188 545v-169h136l22 -46h-158v-176q0 -34 -9 -60t-25 -44h258l6 -50h-356l-5 50h3q36 1 50.5 24t14.5 59v197h-71l-2 46h73v169q0 63 32.5 101t85.5 38q20 0 38 -5t28 -8l-12 -53q-5 3 -17.5 7t-22.5 4q-38 0 -53.5 -23.5t-15.5 -60.5z" />
    <glyph glyph-name="currency" unicode="&#xa4;" horiz-adv-x="667" 
d="M31 -18l103 105q-21 32 -32.5 72.5t-11.5 85.5q0 43 12.5 80.5t33.5 68.5l-105 107l34 42l108 -108q32 28 73.5 45t90.5 18q48 0 88.5 -16.5t71.5 -44.5l104 106l34 -42l-103 -106q22 -31 33.5 -70.5t11.5 -85.5q-1 -43 -13 -80.5t-33 -68.5l104 -108l-34 -41l-107 108
q-32 -30 -75.5 -46t-93.5 -16q-46 1 -85.5 16.5t-69.5 43.5l-105 -106zM514 239q0 87 -46.5 146.5t-129.5 59.5q-80 0 -132 -57t-53 -142q0 -89 47 -147.5t128 -58.5q80 0 132.5 56t53.5 143z" />
    <glyph glyph-name="yen" unicode="&#xa5;" horiz-adv-x="547" 
d="M240 0v78h-177l-8 49h186v132h-178l-8 50h168l-217 360l65 11l201 -344l203 344h67l-222 -371h164l9 -50h-189v-132h180l9 -49h-190v-78h-63z" />
    <glyph glyph-name="brokenbar" unicode="&#xa6;" horiz-adv-x="272" 
d="M167 706v-300l-62 4v300zM167 288v-292l-62 4v292z" />
    <glyph glyph-name="section" unicode="&#xa7;" horiz-adv-x="589" 
d="M423 173q27 16 41 40t14 52q0 89 -117.5 125t-195.5 104q-25 -14 -39 -38t-14 -53q0 -89 116.5 -127.5t194.5 -102.5zM80 -28q26 -13 71 -26.5t95 -13.5q86 0 131.5 35t45.5 88q0 116 -185 154.5t-184 192.5q1 41 21 75t55 56q-10 17 -16 37.5t-6 43.5q1 70 58.5 118
t155.5 48q49 0 92.5 -11.5t72.5 -26.5l-21 -47q-26 12 -58.5 23t-85.5 11q-72 0 -113.5 -31t-41.5 -83q0 -120 186.5 -160t182.5 -190q-1 -42 -20.5 -76.5t-55.5 -56.5q10 -17 16.5 -36t5.5 -42q-1 -75 -62.5 -124t-172.5 -49q-43 0 -104 14t-78 29z" />
    <glyph glyph-name="dieresis" unicode="&#xa8;" horiz-adv-x="276" 
d="M216 704q19 0 31 -12.5t12 -29.5q0 -19 -12 -31.5t-31 -12.5q-18 0 -30.5 12.5t-12.5 31.5q0 17 12.5 29.5t30.5 12.5zM59 704q19 0 31.5 -12.5t12.5 -29.5q0 -19 -12.5 -31.5t-31.5 -12.5q-17 0 -30 12.5t-13 31.5q0 17 13 29.5t30 12.5z" />
    <glyph glyph-name="copyright" unicode="&#xa9;" horiz-adv-x="847" 
d="M783 336q0 -148 -97 -252t-263 -104t-263.5 104t-97.5 252q0 149 97.5 253.5t263.5 104.5t263 -104.5t97 -253.5zM121 337q0 -131 81 -219.5t221 -88.5t221.5 88.5t81.5 219.5t-81.5 219.5t-221.5 88.5t-221 -88.5t-81 -219.5zM582 148q-29 -20 -72.5 -31t-74.5 -11
q-107 0 -159.5 67.5t-52.5 168.5q0 99 56 165.5t162 66.5q31 0 74.5 -10.5t71.5 -30.5l-20 -45q-25 13 -50 23.5t-78 10.5q-80 0 -117 -51.5t-37 -126.5q0 -89 33.5 -138t116.5 -49q51 0 76.5 10.5t50.5 23.5z" />
    <glyph glyph-name="ordfeminine" unicode="&#xaa;" horiz-adv-x="344" 
d="M97 463q0 -20 16 -36.5t44 -16.5t51.5 17t39.5 39v52h-77q-28 0 -51 -14.5t-23 -40.5zM64 673q19 13 51 21t52 8q64 0 100.5 -37.5t36.5 -84.5v-208h-42l-11 36q-14 -16 -39 -30.5t-55 -14.5q-49 0 -82 28.5t-33 71.5q0 46 34.5 71t85.5 25h86v18q0 34 -20 55t-60 21
q-34 0 -54 -7.5t-38 -14.5z" />
    <glyph glyph-name="guillemotleft" unicode="&#xab;" horiz-adv-x="356" 
d="M183 267l140 139l21 -41l-113 -120l113 -120l-21 -41l-140 139v44zM31 267l140 139l21 -41l-112 -120l112 -120l-21 -41l-140 139v44z" />
    <glyph glyph-name="logicalnot" unicode="&#xac;" horiz-adv-x="511" 
d="M490 356v-244l-58 5v239h-408l-8 50h466z" />
    <glyph glyph-name="softhyphen" unicode="&#xad;" horiz-adv-x="131" 
 />
    <glyph glyph-name="registered" unicode="&#xae;" horiz-adv-x="738" 
d="M687 487q0 -131 -85.5 -222t-231.5 -91q-147 0 -232.5 91t-85.5 222q0 132 85.5 223.5t232.5 91.5q146 0 231.5 -91.5t85.5 -223.5zM106 488q0 -114 70 -190t194 -77q122 1 192.5 77t70.5 190q0 116 -70.5 191.5t-192.5 75.5q-124 0 -194 -75.5t-70 -191.5zM342 640h-33
v-139h28q42 0 73 12t32 58q0 49 -28.5 59t-71.5 10zM470 304l-90 159q-7 0 -14.5 -0.5t-14.5 -0.5h-42v-158h-50v376h97q59 0 97.5 -24.5t38.5 -83.5q0 -38 -18 -61.5t-46 -35.5l100 -171h-58z" />
    <glyph glyph-name="macron" unicode="&#xaf;" horiz-adv-x="272" 
d="M16 689h241v-49h-241v49z" />
    <glyph glyph-name="degree" unicode="&#xb0;" horiz-adv-x="245" 
d="M122 702q44 0 75.5 -30t31.5 -73q0 -45 -31.5 -73t-75.5 -28q-43 0 -74.5 28t-31.5 73q0 43 31.5 73t74.5 30zM122 538q25 0 43.5 18t18.5 43t-18.5 42.5t-43.5 17.5q-26 0 -43 -17.5t-17 -42.5t17 -43t43 -18z" />
    <glyph glyph-name="plusminus" unicode="&#xb1;" horiz-adv-x="475" 
d="M453 302h-189v-194l-56 5v189h-179l-8 48h187v184l56 -3v-181h181zM453 1h-424l-8 47h424z" />
    <glyph glyph-name="twosuperior" unicode="&#xb2;" horiz-adv-x="390" 
d="M178 771q81 0 113.5 -41t32.5 -83t-27.5 -80t-82.5 -86l-119 -102h237l6 -43h-307v43l156 136q49 45 65.5 77t16.5 55q0 28 -21 53.5t-72 25.5q-38 0 -68 -18t-31 -19l-22 44q1 0 36.5 19t86.5 19z" />
    <glyph glyph-name="threesuperior" unicode="&#xb3;" horiz-adv-x="408" 
d="M186 771q75 0 112.5 -35.5t37.5 -84.5q0 -41 -25.5 -71.5t-59.5 -41.5q43 -10 68.5 -42.5t25.5 -79.5q0 -58 -46 -98t-125 -40q-42 0 -79.5 12.5t-63.5 27.5l24 38q26 -16 53 -24.5t70 -8.5q45 0 79 23t34 69q0 49 -32.5 75t-110.5 26h-14l-7 44h26q62 0 95 23.5t33 66.5
q0 34 -25 55.5t-71 21.5q-43 0 -73.5 -13t-49.5 -25l-22 38q30 19 65 31.5t81 12.5z" />
    <glyph glyph-name="acute" unicode="&#xb4;" horiz-adv-x="162" 
d="M76 742h72l-86 -153h-46z" />
    <glyph glyph-name="mu" unicode="&#xb5;" horiz-adv-x="536" 
d="M84 -219v704h62v-326q0 -49 24.5 -83.5t75.5 -34.5q28 0 69 16.5t75 49.5v378h63v-485h-41l-19 55q-31 -28 -72.5 -47.5t-79.5 -19.5q-29 0 -53 6t-42 19v-221z" />
    <glyph glyph-name="paragraph" unicode="&#xb6;" horiz-adv-x="827" 
d="M346 0v264h-38q-106 0 -180.5 50.5t-75.5 160.5q0 111 69 158t176 47h498v-49h-99v-631h-62v631h-226v-631h-62z" />
    <glyph glyph-name="periodcentered" unicode="&#xb7;" horiz-adv-x="127" 
d="M64 309q19 0 33 -13.5t14 -33.5q0 -19 -14 -33.5t-33 -14.5q-20 0 -34 14.5t-14 33.5q0 20 14 33.5t34 13.5z" />
    <glyph glyph-name="cedilla" unicode="&#xb8;" horiz-adv-x="218" 
d="M95 13h53l-26 -67q34 -4 57 -28t23 -50q0 -46 -34 -67.5t-78 -21.5q-18 0 -39.5 5.5t-34.5 13.5l15 42q9 -4 26 -9t33 -5q21 0 39.5 10.5t18.5 29.5q0 21 -26.5 35t-63.5 18z" />
    <glyph glyph-name="onesuperior" unicode="&#xb9;" horiz-adv-x="321" 
d="M269 336h-200l-7 43h79v321l-54 -37l-23 37l96 65h36v-386h66z" />
    <glyph glyph-name="ordmasculine" unicode="&#xba;" horiz-adv-x="395" 
d="M197 702q70 0 113.5 -44.5t43.5 -125.5q0 -78 -45.5 -123.5t-111.5 -45.5q-69 0 -112 44t-43 125q0 78 44.5 124t110.5 46zM197 652q-32 0 -63.5 -27.5t-31.5 -92.5q0 -62 30 -91t65 -29q33 0 64 27.5t31 92.5q0 63 -29 91.5t-66 28.5z" />
    <glyph glyph-name="guillemotright" unicode="&#xbb;" horiz-adv-x="356" 
d="M33 406l140 -139v-44l-140 -139l-23 41l113 120l-113 120zM185 406l139 -139v-44l-139 -139l-23 41l114 120l-114 120z" />
    <glyph glyph-name="onequarter" unicode="&#xbc;" horiz-adv-x="736" 
d="M269 336h-200l-7 43h79v321l-54 -37l-23 37l96 65h36v-386h66zM509 498l-290 -502l-55 4l290 501zM700 -75h-73v-88h-52v88h-233l-5 41v3h1l253 352h36v-352h77zM395 -31h180v251z" />
    <glyph glyph-name="onehalf" unicode="&#xbd;" horiz-adv-x="773" 
d="M269 336h-200l-7 43h79v321l-54 -37l-23 37l96 65h36v-386h66zM498 498l-291 -502l-53 4l290 501zM561 326q81 0 113.5 -41t32.5 -83t-27.5 -80.5t-81.5 -85.5l-119 -103h236l6 -43h-306v43l154 138q49 43 66 75t17 56q0 28 -21 53.5t-71 25.5q-38 0 -68 -18t-31 -19
l-22 44q1 0 36 19t86 19z" />
    <glyph glyph-name="threequarters" unicode="&#xbe;" horiz-adv-x="801" 
d="M574 498l-291 -502l-54 4l290 501zM186 771q75 0 112.5 -35.5t37.5 -84.5q0 -41 -25.5 -71.5t-59.5 -41.5q43 -10 68.5 -42.5t25.5 -79.5q0 -58 -46 -98t-125 -40q-42 0 -79.5 12.5t-63.5 27.5l24 38q26 -16 53 -24.5t70 -8.5q45 0 79 23t34 69q0 49 -32.5 75t-110.5 26
h-14l-7 44h26q62 0 95 23.5t33 66.5q0 34 -25 55.5t-71 21.5q-43 0 -73.5 -13t-49.5 -25l-22 38q30 19 65 31.5t81 12.5zM766 -75h-74v-88h-52v88h-233l-6 41v3h2l253 352h36v-352h78zM461 -31h179v251z" />
    <glyph glyph-name="questiondown" unicode="&#xbf;" horiz-adv-x="412" 
d="M244 525q-19 0 -33.5 14.5t-14.5 34.5q0 19 14.5 33.5t33.5 14.5q20 0 34 -14.5t14 -33.5q0 -20 -14 -34.5t-34 -14.5zM219 -80q-100 0 -144 45.5t-44 116.5q0 57 49 114t133 94l7 193l46 -19l8 -206q-78 -25 -127.5 -71t-49.5 -103q0 -60 30.5 -85t93.5 -25
q54 0 90.5 16.5t75.5 44.5l8 -56q-38 -25 -77.5 -42t-98.5 -17z" />
    <glyph glyph-name="Agrave" unicode="&#xc0;" horiz-adv-x="584" 
d="M201 892h71l61 -153h-47zM286 600l-129 -346h262zM318 680l260 -670l-61 -10l-80 204h-297l-75 -204h-59l247 680h65z" />
    <glyph glyph-name="Aacute" unicode="&#xc1;" horiz-adv-x="584" 
d="M296 892h72l-86 -153h-46zM286 600l-129 -346h262zM318 680l260 -670l-61 -10l-80 204h-297l-75 -204h-59l247 680h65z" />
    <glyph glyph-name="Acircumflex" unicode="&#xc2;" horiz-adv-x="584" 
d="M211 739h-60l105 153h60l106 -153h-62l-74 109zM286 600l-129 -346h262zM318 680l260 -670l-61 -10l-80 204h-297l-75 -204h-59l247 680h65z" />
    <glyph glyph-name="Atilde" unicode="&#xc3;" horiz-adv-x="584" 
d="M379 849h46q1 -52 -24 -71.5t-60 -19.5q-34 0 -60.5 24t-51.5 24q-13 0 -25 -10.5t-14 -33.5h-45q-2 53 23.5 72t59.5 19q42 0 64.5 -23.5t48.5 -23.5q13 0 24.5 10t13.5 33zM286 600l-129 -346h262zM318 680l260 -670l-61 -10l-80 204h-297l-75 -204h-59l247 680h65z
" />
    <glyph glyph-name="Adieresis" unicode="&#xc4;" horiz-adv-x="584" 
d="M365 854q19 0 31 -12.5t12 -29.5q0 -19 -12 -31.5t-31 -12.5q-18 0 -30.5 12.5t-12.5 31.5q0 17 12.5 29.5t30.5 12.5zM208 854q19 0 31.5 -12.5t12.5 -29.5q0 -19 -12.5 -31.5t-31.5 -12.5q-17 0 -30 12.5t-13 31.5q0 17 13 29.5t30 12.5zM286 600l-129 -346h262z
M318 680l260 -670l-61 -10l-80 204h-297l-75 -204h-59l247 680h65z" />
    <glyph glyph-name="Aring" unicode="&#xc5;" horiz-adv-x="584" 
d="M286 909q36 0 62 -24t26 -60q0 -35 -26 -58t-62 -23t-62.5 23t-26.5 58q0 36 26.5 60t62.5 24zM286 783q18 0 31 12t13 30q0 19 -13 31.5t-31 12.5t-31 -12.5t-13 -31.5q0 -18 13 -30t31 -12zM286 600l-129 -346h262zM318 680l260 -670l-61 -10l-80 204h-297l-75 -204
h-59l247 680h65z" />
    <glyph glyph-name="AE" unicode="&#xc6;" horiz-adv-x="850" 
d="M430 0v204h-241l-126 -204l-57 10l416 670h370l6 -45h-305v-264h200l6 -45h-206v-276h321l4 -50h-388zM220 254h210v341z" />
    <glyph glyph-name="Ccedilla" unicode="&#xc7;" horiz-adv-x="600" 
d="M517 611q-31 13 -61 21t-84 8q-107 -1 -170 -86.5t-63 -216.5q0 -122 54 -209t170 -87q54 0 88.5 9t61.5 21l24 -48q-25 -13 -66.5 -23t-81.5 -13l-16 -41q34 -4 57 -28t23 -50q0 -46 -34 -67.5t-78 -21.5q-18 0 -39.5 5.5t-34.5 13.5l15 42q9 -4 26 -9t33 -5
q21 0 39.5 10.5t18.5 29.5q0 21 -26.5 35t-63.5 18l26 68q-140 11 -201 114t-61 235q0 149 75.5 253.5t222.5 104.5q31 0 84.5 -9t81.5 -28z" />
    <glyph glyph-name="Egrave" unicode="&#xc8;" horiz-adv-x="524" 
d="M197 892h71l61 -153h-47zM105 0v680h360l5 -45h-303v-264h200l5 -45h-205v-276h320l6 -50h-388z" />
    <glyph glyph-name="Eacute" unicode="&#xc9;" horiz-adv-x="524" 
d="M292 892h72l-86 -153h-46zM105 0v680h360l5 -45h-303v-264h200l5 -45h-205v-276h320l6 -50h-388z" />
    <glyph glyph-name="Ecircumflex" unicode="&#xca;" horiz-adv-x="524" 
d="M207 739h-60l105 153h60l106 -153h-62l-74 109zM105 0v680h360l5 -45h-303v-264h200l5 -45h-205v-276h320l6 -50h-388z" />
    <glyph glyph-name="Edieresis" unicode="&#xcb;" horiz-adv-x="524" 
d="M361 854q19 0 31 -12.5t12 -29.5q0 -19 -12 -31.5t-31 -12.5q-18 0 -30.5 12.5t-12.5 31.5q0 17 12.5 29.5t30.5 12.5zM204 854q19 0 31.5 -12.5t12.5 -29.5q0 -19 -12.5 -31.5t-31.5 -12.5q-17 0 -30 12.5t-13 31.5q0 17 13 29.5t30 12.5zM105 0v680h360l5 -45h-303
v-264h200l5 -45h-205v-276h320l6 -50h-388z" />
    <glyph glyph-name="Igrave" unicode="&#xcc;" horiz-adv-x="272" 
d="M51 892h71l61 -153h-47zM105 0v680h62v-680h-62z" />
    <glyph glyph-name="Iacute" unicode="&#xcd;" horiz-adv-x="272" 
d="M146 892h72l-86 -153h-46zM105 0v680h62v-680h-62z" />
    <glyph glyph-name="Icircumflex" unicode="&#xce;" horiz-adv-x="272" 
d="M61 739h-60l105 153h60l106 -153h-62l-74 109zM105 0v680h62v-680h-62z" />
    <glyph glyph-name="Idieresis" unicode="&#xcf;" horiz-adv-x="272" 
d="M215 854q19 0 31 -12.5t12 -29.5q0 -19 -12 -31.5t-31 -12.5q-18 0 -30.5 12.5t-12.5 31.5q0 17 12.5 29.5t30.5 12.5zM58 854q19 0 31.5 -12.5t12.5 -29.5q0 -19 -12.5 -31.5t-31.5 -12.5q-17 0 -30 12.5t-13 31.5q0 17 13 29.5t30 12.5zM105 0v680h62v-680h-62z" />
    <glyph glyph-name="Eth" unicode="&#xd0;" horiz-adv-x="700" 
d="M111 0v309h-82l-8 50h90v321h223q156 0 224 -98.5t68 -237.5q0 -142 -76.5 -243t-225.5 -101h-213zM277 309h-104v-257h152q107 0 173.5 80t66.5 211q0 121 -56 202.5t-172 81.5h-164v-268h96z" />
    <glyph glyph-name="Ntilde" unicode="&#xd1;" horiz-adv-x="703" 
d="M458 849h46q1 -52 -24 -71.5t-60 -19.5q-34 0 -60.5 24t-51.5 24q-13 0 -25 -10.5t-14 -33.5h-45q-2 53 23.5 72t59.5 19q42 0 64.5 -23.5t48.5 -23.5q13 0 24.5 10t13.5 33zM105 0v680h41l357 -492l34 -59v551h63v-680h-41l-378 531l-14 29v-560h-62z" />
    <glyph glyph-name="Ograve" unicode="&#xd2;" horiz-adv-x="736" 
d="M286 892h71l61 -153h-47zM371 696q156 0 224.5 -106t68.5 -245q0 -141 -76 -249t-223 -110q-156 0 -224 106.5t-68 244.5q0 149 75.5 252.5t222.5 106.5zM139 338q0 -122 54 -209.5t170 -87.5q107 0 170 85.5t63 217.5q0 122 -53.5 209t-170.5 87q-107 0 -170 -85.5
t-63 -216.5z" />
    <glyph glyph-name="Oacute" unicode="&#xd3;" horiz-adv-x="736" 
d="M381 892h72l-86 -153h-46zM371 696q156 0 224.5 -106t68.5 -245q0 -141 -76 -249t-223 -110q-156 0 -224 106.5t-68 244.5q0 149 75.5 252.5t222.5 106.5zM139 338q0 -122 54 -209.5t170 -87.5q107 0 170 85.5t63 217.5q0 122 -53.5 209t-170.5 87q-107 0 -170 -85.5
t-63 -216.5z" />
    <glyph glyph-name="Ocircumflex" unicode="&#xd4;" horiz-adv-x="736" 
d="M296 739h-60l105 153h60l106 -153h-62l-74 109zM371 696q156 0 224.5 -106t68.5 -245q0 -141 -76 -249t-223 -110q-156 0 -224 106.5t-68 244.5q0 149 75.5 252.5t222.5 106.5zM139 338q0 -122 54 -209.5t170 -87.5q107 0 170 85.5t63 217.5q0 122 -53.5 209t-170.5 87
q-107 0 -170 -85.5t-63 -216.5z" />
    <glyph glyph-name="Otilde" unicode="&#xd5;" horiz-adv-x="736" 
d="M464 849h46q1 -52 -24 -71.5t-60 -19.5q-34 0 -60.5 24t-51.5 24q-13 0 -25 -10.5t-14 -33.5h-45q-2 53 23.5 72t59.5 19q42 0 64.5 -23.5t48.5 -23.5q13 0 24.5 10t13.5 33zM371 696q156 0 224.5 -106t68.5 -245q0 -141 -76 -249t-223 -110q-156 0 -224 106.5t-68 244.5
q0 149 75.5 252.5t222.5 106.5zM139 338q0 -122 54 -209.5t170 -87.5q107 0 170 85.5t63 217.5q0 122 -53.5 209t-170.5 87q-107 0 -170 -85.5t-63 -216.5z" />
    <glyph glyph-name="Odieresis" unicode="&#xd6;" horiz-adv-x="736" 
d="M450 854q19 0 31 -12.5t12 -29.5q0 -19 -12 -31.5t-31 -12.5q-18 0 -30.5 12.5t-12.5 31.5q0 17 12.5 29.5t30.5 12.5zM293 854q19 0 31.5 -12.5t12.5 -29.5q0 -19 -12.5 -31.5t-31.5 -12.5q-17 0 -30 12.5t-13 31.5q0 17 13 29.5t30 12.5zM371 696q156 0 224.5 -106
t68.5 -245q0 -141 -76 -249t-223 -110q-156 0 -224 106.5t-68 244.5q0 149 75.5 252.5t222.5 106.5zM139 338q0 -122 54 -209.5t170 -87.5q107 0 170 85.5t63 217.5q0 122 -53.5 209t-170.5 87q-107 0 -170 -85.5t-63 -216.5z" />
    <glyph glyph-name="multiply" unicode="&#xd7;" horiz-adv-x="469" 
d="M21 41l171 209l-164 204l59 10l145 -182l154 182h63l-184 -223l168 -210h-63l-145 178l-147 -178z" />
    <glyph glyph-name="Oslash" unicode="&#xd8;" horiz-adv-x="736" 
d="M371 696q156 0 224.5 -106t68.5 -245q0 -141 -76 -249t-223 -110q-156 0 -224 106.5t-68 244.5q0 149 75.5 252.5t222.5 106.5zM372 640q-107 0 -170 -85.5t-63 -216.5q0 -76 21 -141.5t64 -105.5l232 533q-18 7 -39.5 11.5t-44.5 4.5zM270 61q19 -10 42.5 -15t50.5 -5
q107 0 170 85.5t63 217.5q0 80 -23 147t-70 106z" />
    <glyph glyph-name="Ugrave" unicode="&#xd9;" horiz-adv-x="685" 
d="M257 892h71l61 -153h-47zM156 248q0 -87 50 -147t136 -60q89 0 137.5 60t48.5 147v432h63v-441q0 -109 -66.5 -180t-182.5 -71q-115 1 -181.5 71.5t-66.5 179.5v441h62v-432z" />
    <glyph glyph-name="Uacute" unicode="&#xda;" horiz-adv-x="685" 
d="M352 892h72l-86 -153h-46zM156 248q0 -87 50 -147t136 -60q89 0 137.5 60t48.5 147v432h63v-441q0 -109 -66.5 -180t-182.5 -71q-115 1 -181.5 71.5t-66.5 179.5v441h62v-432z" />
    <glyph glyph-name="Ucircumflex" unicode="&#xdb;" horiz-adv-x="685" 
d="M267 739h-60l105 153h60l106 -153h-62l-74 109zM156 248q0 -87 50 -147t136 -60q89 0 137.5 60t48.5 147v432h63v-441q0 -109 -66.5 -180t-182.5 -71q-115 1 -181.5 71.5t-66.5 179.5v441h62v-432z" />
    <glyph glyph-name="Udieresis" unicode="&#xdc;" horiz-adv-x="685" 
d="M421 854q19 0 31 -12.5t12 -29.5q0 -19 -12 -31.5t-31 -12.5q-18 0 -30.5 12.5t-12.5 31.5q0 17 12.5 29.5t30.5 12.5zM264 854q19 0 31.5 -12.5t12.5 -29.5q0 -19 -12.5 -31.5t-31.5 -12.5q-17 0 -30 12.5t-13 31.5q0 17 13 29.5t30 12.5zM156 248q0 -87 50 -147
t136 -60q89 0 137.5 60t48.5 147v432h63v-441q0 -109 -66.5 -180t-182.5 -71q-115 1 -181.5 71.5t-66.5 179.5v441h62v-432z" />
    <glyph glyph-name="Yacute" unicode="&#xdd;" horiz-adv-x="547" 
d="M282 892h72l-86 -153h-46zM240 0l1 276l-235 393l65 11l201 -344l203 344h67l-238 -397l-1 -283h-63z" />
    <glyph glyph-name="Thorn" unicode="&#xde;" horiz-adv-x="589" 
d="M105 0v680h62v-114h114q106 0 175.5 -46.5t69.5 -158.5q-1 -110 -75.5 -160.5t-180.5 -50.5h-103v-150h-62zM283 514h-116v-311h105q80 0 135 36t56 121q0 88 -49 121t-131 33z" />
    <glyph glyph-name="germandbls" unicode="&#xdf;" horiz-adv-x="577" 
d="M84 473q0 101 60 154t153 53q78 0 136 -43.5t58 -133.5q0 -53 -21.5 -89.5t-63.5 -57.5q54 -22 87 -62.5t33 -105.5q0 -107 -75 -147.5t-181 -40.5h-49v52h51q80 0 135.5 27.5t55.5 106.5q0 76 -49.5 108.5t-131.5 32.5h-45v51h27q90 0 127.5 30.5t37.5 93.5
q0 66 -40 95.5t-94 29.5q-74 0 -111.5 -43t-37.5 -111v-473h-62v473z" />
    <glyph glyph-name="agrave" unicode="&#xe0;" horiz-adv-x="500" 
d="M157 742h72l61 -153h-47zM113 136q0 -34 23 -66t77 -32q47 0 84.5 24t62.5 55v123h-137q-54 0 -82 -31t-28 -73zM86 456q28 19 76.5 30.5t78.5 11.5q83 0 132 -43.5t49 -114.5v-340h-41l-18 52q-23 -24 -64 -44.5t-84 -20.5q-82 0 -122.5 43t-40.5 106q0 69 48.5 107.5
t124.5 37.5h135v49q0 50 -28.5 83t-87.5 33q-53 0 -83 -11t-56 -23z" />
    <glyph glyph-name="aacute" unicode="&#xe1;" horiz-adv-x="500" 
d="M253 742h71l-85 -153h-47zM113 136q0 -34 23 -66t77 -32q47 0 84.5 24t62.5 55v123h-137q-54 0 -82 -31t-28 -73zM86 456q28 19 76.5 30.5t78.5 11.5q83 0 132 -43.5t49 -114.5v-340h-41l-18 52q-23 -24 -64 -44.5t-84 -20.5q-82 0 -122.5 43t-40.5 106q0 69 48.5 107.5
t124.5 37.5h135v49q0 50 -28.5 83t-87.5 33q-53 0 -83 -11t-56 -23z" />
    <glyph glyph-name="acircumflex" unicode="&#xe2;" horiz-adv-x="500" 
d="M167 589h-60l106 153h59l106 -153h-60l-75 109zM113 136q0 -34 23 -66t77 -32q47 0 84.5 24t62.5 55v123h-137q-54 0 -82 -31t-28 -73zM86 456q28 19 76.5 30.5t78.5 11.5q83 0 132 -43.5t49 -114.5v-340h-41l-18 52q-23 -24 -64 -44.5t-84 -20.5q-82 0 -122.5 43
t-40.5 106q0 69 48.5 107.5t124.5 37.5h135v49q0 50 -28.5 83t-87.5 33q-53 0 -83 -11t-56 -23z" />
    <glyph glyph-name="atilde" unicode="&#xe3;" horiz-adv-x="500" 
d="M335 699h47q1 -52 -24.5 -71.5t-60.5 -19.5q-33 0 -59.5 24t-52.5 24q-13 0 -24.5 -10.5t-12.5 -33.5h-47q-1 53 24 72t60 19q42 0 64 -23.5t48 -23.5q13 0 24.5 10t13.5 33zM113 136q0 -34 23 -66t77 -32q47 0 84.5 24t62.5 55v123h-137q-54 0 -82 -31t-28 -73zM86 456
q28 19 76.5 30.5t78.5 11.5q83 0 132 -43.5t49 -114.5v-340h-41l-18 52q-23 -24 -64 -44.5t-84 -20.5q-82 0 -122.5 43t-40.5 106q0 69 48.5 107.5t124.5 37.5h135v49q0 50 -28.5 83t-87.5 33q-53 0 -83 -11t-56 -23z" />
    <glyph glyph-name="adieresis" unicode="&#xe4;" horiz-adv-x="500" 
d="M322 704q18 0 30.5 -12.5t12.5 -29.5q0 -19 -12.5 -31.5t-30.5 -12.5q-19 0 -31.5 12.5t-12.5 31.5q0 17 12.5 29.5t31.5 12.5zM166 704q17 0 30 -12.5t13 -29.5q0 -19 -13 -31.5t-30 -12.5q-19 0 -32 12.5t-13 31.5q0 17 13 29.5t32 12.5zM113 136q0 -34 23 -66t77 -32
q47 0 84.5 24t62.5 55v123h-137q-54 0 -82 -31t-28 -73zM86 456q28 19 76.5 30.5t78.5 11.5q83 0 132 -43.5t49 -114.5v-340h-41l-18 52q-23 -24 -64 -44.5t-84 -20.5q-82 0 -122.5 43t-40.5 106q0 69 48.5 107.5t124.5 37.5h135v49q0 50 -28.5 83t-87.5 33q-53 0 -83 -11
t-56 -23z" />
    <glyph glyph-name="aring" unicode="&#xe5;" horiz-adv-x="500" 
d="M244 759q35 0 61.5 -24t26.5 -60q0 -35 -26.5 -58t-61.5 -23q-37 0 -63.5 23t-26.5 58q0 36 26.5 60t63.5 24zM244 633q17 0 30.5 12t13.5 30q0 19 -13.5 31.5t-30.5 12.5q-19 0 -32 -12.5t-13 -31.5q0 -18 13 -30t32 -12zM113 136q0 -34 23 -66t77 -32q47 0 84.5 24
t62.5 55v123h-137q-54 0 -82 -31t-28 -73zM86 456q28 19 76.5 30.5t78.5 11.5q83 0 132 -43.5t49 -114.5v-340h-41l-18 52q-23 -24 -64 -44.5t-84 -20.5q-82 0 -122.5 43t-40.5 106q0 69 48.5 107.5t124.5 37.5h135v49q0 50 -28.5 83t-87.5 33q-53 0 -83 -11t-56 -23z" />
    <glyph glyph-name="ae" unicode="&#xe6;" horiz-adv-x="830" 
d="M782 239h-360q1 -87 41 -144.5t130 -57.5q53 0 85.5 10.5t57.5 23.5l19 -46q-28 -19 -79 -28.5t-82 -9.5q-68 0 -117 26t-76 71q-24 -38 -73 -67.5t-109 -29.5q-87 0 -127 43t-40 106q0 69 48.5 107.5t124.5 37.5h135v49q0 50 -28.5 83t-87.5 33q-53 0 -83 -11t-56 -23
l-19 44q28 19 76.5 30.5t78.5 11.5q60 0 102 -24.5t62 -64.5q27 41 71 65t103 24q107 0 155 -74t48 -185zM719 282q-6 71 -38.5 117.5t-103.5 46.5q-72 0 -108.5 -46.5t-45.5 -117.5h296zM113 136q0 -34 23 -66t77 -32q53 0 96 28t68 68q-7 24 -12 50t-5 55h-137
q-54 0 -82 -30.5t-28 -72.5z" />
    <glyph glyph-name="ccedilla" unicode="&#xe7;" horiz-adv-x="463" 
d="M392 73l20 -45q-25 -15 -58 -25t-63 -14l-16 -43q34 -4 57.5 -28t23.5 -50q0 -46 -34.5 -67.5t-77.5 -21.5q-19 0 -40.5 5.5t-35.5 13.5l17 42q8 -4 25.5 -9t33.5 -5q19 0 37.5 10.5t18.5 29.5q0 21 -25.5 35t-62.5 18l26 70q-93 9 -139.5 79.5t-46.5 176.5q1 109 57 181
t163 72q29 0 72.5 -11.5t72.5 -30.5l-20 -44q-25 12 -50.5 23t-77.5 11q-80 0 -116.5 -57.5t-37.5 -142.5q0 -89 33.5 -148t115.5 -59q53 0 77.5 10.5t50.5 23.5z" />
    <glyph glyph-name="egrave" unicode="&#xe8;" horiz-adv-x="522" 
d="M186 742h71l61 -153h-47zM475 239h-360q1 -87 40.5 -144.5t129.5 -57.5q53 0 85.5 10.5t57.5 23.5l21 -46q-30 -19 -81 -28.5t-80 -9.5q-119 0 -177.5 72.5t-58.5 185.5q1 109 57 181t163 72t155 -74t48 -185zM412 282q-7 71 -39 117.5t-104 46.5t-108.5 -46.5
t-43.5 -117.5h295z" />
    <glyph glyph-name="eacute" unicode="&#xe9;" horiz-adv-x="522" 
d="M281 742h71l-85 -153h-47zM475 239h-360q1 -87 40.5 -144.5t129.5 -57.5q53 0 85.5 10.5t57.5 23.5l21 -46q-30 -19 -81 -28.5t-80 -9.5q-119 0 -177.5 72.5t-58.5 185.5q1 109 57 181t163 72t155 -74t48 -185zM412 282q-7 71 -39 117.5t-104 46.5t-108.5 -46.5
t-43.5 -117.5h295z" />
    <glyph glyph-name="ecircumflex" unicode="&#xea;" horiz-adv-x="522" 
d="M196 589h-62l107 153h59l105 -153h-61l-73 109zM475 239h-360q1 -87 40.5 -144.5t129.5 -57.5q53 0 85.5 10.5t57.5 23.5l21 -46q-30 -19 -81 -28.5t-80 -9.5q-119 0 -177.5 72.5t-58.5 185.5q1 109 57 181t163 72t155 -74t48 -185zM412 282q-7 71 -39 117.5t-104 46.5
t-108.5 -46.5t-43.5 -117.5h295z" />
    <glyph glyph-name="edieresis" unicode="&#xeb;" horiz-adv-x="522" 
d="M350 704q18 0 30.5 -12.5t12.5 -29.5q0 -19 -12.5 -31.5t-30.5 -12.5q-19 0 -32 12.5t-13 31.5q0 17 13 29.5t32 12.5zM192 704q19 0 32 -12.5t13 -29.5q0 -19 -13 -31.5t-32 -12.5q-18 0 -30 12.5t-12 31.5q0 17 12 29.5t30 12.5zM475 239h-360q1 -87 40.5 -144.5
t129.5 -57.5q53 0 85.5 10.5t57.5 23.5l21 -46q-30 -19 -81 -28.5t-80 -9.5q-119 0 -177.5 72.5t-58.5 185.5q1 109 57 181t163 72t155 -74t48 -185zM412 282q-7 71 -39 117.5t-104 46.5t-108.5 -46.5t-43.5 -117.5h295z" />
    <glyph glyph-name="igrave" unicode="&#xec;" horiz-adv-x="232" 
d="M15 742h72l60 -153h-47zM85 0v485h63v-485h-63z" />
    <glyph glyph-name="iacute" unicode="&#xed;" horiz-adv-x="232" 
d="M146 742h71l-85 -153h-47zM85 0v485h63v-485h-63z" />
    <glyph glyph-name="icircumflex" unicode="&#xee;" horiz-adv-x="232" 
d="M41 589h-61l107 153h59l106 -153h-62l-73 109zM85 0v485h63v-485h-63z" />
    <glyph glyph-name="idieresis" unicode="&#xef;" horiz-adv-x="232" 
d="M195 704q18 0 31 -12.5t13 -29.5q0 -19 -13 -31.5t-31 -12.5t-31.5 12.5t-13.5 31.5q0 17 13.5 29.5t31.5 12.5zM38 704q18 0 31.5 -12.5t13.5 -29.5q0 -19 -13.5 -31.5t-31.5 -12.5t-31 12.5t-13 31.5q0 17 13 29.5t31 12.5zM85 0v485h63v-485h-63z" />
    <glyph glyph-name="eth" unicode="&#xf0;" horiz-adv-x="540" 
d="M394 664l-74 -65q67 -61 112 -149.5t45 -188.5q0 -133 -62 -203.5t-164 -70.5q-89 0 -144 62.5t-55 140.5q0 76 53.5 136.5t146.5 60.5q45 0 86.5 -20.5t69.5 -46.5q-11 71 -46.5 133t-83.5 108l-98 -86l-29 39l90 79q-32 25 -66 42t-68 24l27 39q37 -8 75 -25.5
t73 -43.5l82 73zM115 185q0 -57 37 -101t101 -44q80 0 118.5 57t41.5 151q-22 35 -64.5 62t-96.5 27q-64 0 -100.5 -46t-36.5 -106z" />
    <glyph glyph-name="ntilde" unicode="&#xf1;" horiz-adv-x="552" 
d="M409 699h46q2 -52 -23 -71.5t-61 -19.5q-34 0 -60.5 24t-52.5 24q-13 0 -24.5 -10.5t-12.5 -33.5h-47q-1 53 24.5 72t59.5 19q43 0 65 -23.5t47 -23.5q13 0 25 10t14 33zM84 0v485h41l20 -76q31 36 79 62.5t93 26.5q78 0 117.5 -45.5t39.5 -115.5v-336h-62v324
q0 50 -24.5 84.5t-77.5 35.5q-32 0 -81 -23t-83 -66v-356h-62z" />
    <glyph glyph-name="ograve" unicode="&#xf2;" horiz-adv-x="528" 
d="M182 742h71l60 -153h-47zM257 -13q-105 1 -155 74.5t-50 183.5q1 107 56 179.5t159 73.5q107 0 157.5 -73.5t50.5 -185.5q-1 -110 -57 -181t-161 -71zM414 239q0 87 -31.5 146.5t-113.5 59.5q-80 0 -116.5 -57t-37.5 -142q0 -89 31 -147.5t112 -58.5t118 56t38 143z" />
    <glyph glyph-name="oacute" unicode="&#xf3;" horiz-adv-x="528" 
d="M276 742h72l-86 -153h-46zM257 -13q-105 1 -155 74.5t-50 183.5q1 107 56 179.5t159 73.5q107 0 157.5 -73.5t50.5 -185.5q-1 -110 -57 -181t-161 -71zM414 239q0 87 -31.5 146.5t-113.5 59.5q-80 0 -116.5 -57t-37.5 -142q0 -89 31 -147.5t112 -58.5t118 56t38 143z" />
    <glyph glyph-name="ocircumflex" unicode="&#xf4;" horiz-adv-x="528" 
d="M191 589h-60l106 153h58l107 -153h-62l-74 109zM257 -13q-105 1 -155 74.5t-50 183.5q1 107 56 179.5t159 73.5q107 0 157.5 -73.5t50.5 -185.5q-1 -110 -57 -181t-161 -71zM414 239q0 87 -31.5 146.5t-113.5 59.5q-80 0 -116.5 -57t-37.5 -142q0 -89 31 -147.5
t112 -58.5t118 56t38 143z" />
    <glyph glyph-name="otilde" unicode="&#xf5;" horiz-adv-x="528" 
d="M358 699h47q1 -52 -24 -71.5t-60 -19.5q-34 0 -60 24t-52 24q-13 0 -25 -10.5t-13 -33.5h-48q-1 53 24.5 72t59.5 19q43 0 65.5 -23.5t48.5 -23.5q12 0 24 10t13 33zM257 -13q-105 1 -155 74.5t-50 183.5q1 107 56 179.5t159 73.5q107 0 157.5 -73.5t50.5 -185.5
q-1 -110 -57 -181t-161 -71zM414 239q0 87 -31.5 146.5t-113.5 59.5q-80 0 -116.5 -57t-37.5 -142q0 -89 31 -147.5t112 -58.5t118 56t38 143z" />
    <glyph glyph-name="odieresis" unicode="&#xf6;" horiz-adv-x="528" 
d="M345 704q19 0 31.5 -12.5t12.5 -29.5q0 -19 -12.5 -31.5t-31.5 -12.5q-18 0 -30.5 12.5t-12.5 31.5q0 17 12.5 29.5t30.5 12.5zM189 704q18 0 30.5 -12.5t12.5 -29.5q0 -19 -12.5 -31.5t-30.5 -12.5q-19 0 -31.5 12.5t-12.5 31.5q0 17 12.5 29.5t31.5 12.5zM257 -13
q-105 1 -155 74.5t-50 183.5q1 107 56 179.5t159 73.5q107 0 157.5 -73.5t50.5 -185.5q-1 -110 -57 -181t-161 -71zM414 239q0 87 -31.5 146.5t-113.5 59.5q-80 0 -116.5 -57t-37.5 -142q0 -89 31 -147.5t112 -58.5t118 56t38 143z" />
    <glyph glyph-name="divide" unicode="&#xf7;" horiz-adv-x="480" 
d="M239 360q-25 0 -41 17t-16 39q0 24 16 40t41 16q23 0 39 -16t16 -40q0 -22 -16 -39t-39 -17zM458 248h-429l-8 50h430zM241 57q-24 0 -40 17t-16 40t16 39.5t40 16.5q23 0 39.5 -16.5t16.5 -39.5t-16.5 -40t-39.5 -17z" />
    <glyph glyph-name="oslash" unicode="&#xf8;" horiz-adv-x="528" 
d="M257 -13q-105 1 -155 74.5t-50 183.5q1 107 56 179.5t159 73.5q107 0 157.5 -73.5t50.5 -185.5q-1 -110 -57 -181t-161 -71zM338 428q-13 8 -30.5 12.5t-38.5 4.5q-80 0 -116.5 -57t-37.5 -142q0 -52 9.5 -95.5t34.5 -71.5zM258 40q81 0 118 56t38 143q0 45 -8.5 84.5
t-26.5 66.5l-175 -341q11 -5 25 -7t29 -2z" />
    <glyph glyph-name="ugrave" unicode="&#xf9;" horiz-adv-x="531" 
d="M178 742h70l61 -153h-47zM448 485v-485h-42l-19 55q-31 -28 -71.5 -47.5t-79.5 -19.5q-80 0 -119 45t-39 117v335h62v-326q0 -49 25 -83.5t76 -34.5q28 0 69 16.5t76 49.5v378h62z" />
    <glyph glyph-name="uacute" unicode="&#xfa;" horiz-adv-x="531" 
d="M272 742h72l-86 -153h-45zM448 485v-485h-42l-19 55q-31 -28 -71.5 -47.5t-79.5 -19.5q-80 0 -119 45t-39 117v335h62v-326q0 -49 25 -83.5t76 -34.5q28 0 69 16.5t76 49.5v378h62z" />
    <glyph glyph-name="ucircumflex" unicode="&#xfb;" horiz-adv-x="531" 
d="M188 589h-61l105 153h59l106 -153h-60l-75 109zM448 485v-485h-42l-19 55q-31 -28 -71.5 -47.5t-79.5 -19.5q-80 0 -119 45t-39 117v335h62v-326q0 -49 25 -83.5t76 -34.5q28 0 69 16.5t76 49.5v378h62z" />
    <glyph glyph-name="udieresis" unicode="&#xfc;" horiz-adv-x="531" 
d="M341 704q19 0 31.5 -12.5t12.5 -29.5q0 -19 -12.5 -31.5t-31.5 -12.5q-17 0 -30.5 12.5t-13.5 31.5q0 17 13.5 29.5t30.5 12.5zM185 704q18 0 30.5 -12.5t12.5 -29.5q0 -19 -12.5 -31.5t-30.5 -12.5q-19 0 -32 12.5t-13 31.5q0 17 13 29.5t32 12.5zM448 485v-485h-42
l-19 55q-31 -28 -71.5 -47.5t-79.5 -19.5q-80 0 -119 45t-39 117v335h62v-326q0 -49 25 -83.5t76 -34.5q28 0 69 16.5t76 49.5v378h62z" />
    <glyph glyph-name="yacute" unicode="&#xfd;" horiz-adv-x="469" 
d="M251 742h71l-85 -153h-47zM181 -98l32 91l-192 482l59 10l159 -402l150 402h60l-134 -368l-79 -229q-15 -41 -50 -69t-83 -38l-17 40q37 17 59.5 32t35.5 49z" />
    <glyph glyph-name="thorn" unicode="&#xfe;" horiz-adv-x="542" 
d="M146 98q31 -29 65.5 -43.5t64.5 -14.5q82 0 117 56.5t35 144.5q0 89 -35 146.5t-117 57.5q-30 0 -64.5 -15t-65.5 -44v-288zM84 -219v915l62 10v-262q30 23 65.5 38.5t69.5 15.5q107 0 157.5 -72.5t50.5 -183.5t-50.5 -183t-157.5 -72q-34 0 -69.5 14.5t-65.5 38.5v-248z
" />
    <glyph glyph-name="ydieresis" unicode="&#xff;" horiz-adv-x="469" 
d="M321 704q17 0 29.5 -12.5t12.5 -29.5q0 -19 -12.5 -31.5t-29.5 -12.5q-19 0 -32 12.5t-13 31.5q0 17 13 29.5t32 12.5zM163 704q19 0 31 -12.5t12 -29.5q0 -19 -12 -31.5t-31 -12.5q-18 0 -30.5 12.5t-12.5 31.5q0 17 12.5 29.5t30.5 12.5zM181 -98l32 91l-192 482l59 10
l159 -402l150 402h60l-134 -368l-79 -229q-15 -41 -50 -69t-83 -38l-17 40q37 17 59.5 32t35.5 49z" />
    <glyph glyph-name="Amacron" unicode="&#x100;" horiz-adv-x="584" 
d="M166 839h241v-49h-241v49zM286 600l-129 -346h262zM318 680l260 -670l-61 -10l-80 204h-297l-75 -204h-59l247 680h65z" />
    <glyph glyph-name="amacron" unicode="&#x101;" horiz-adv-x="500" 
d="M122 689h241v-49h-241v49zM113 136q0 -34 23 -66t77 -32q47 0 84.5 24t62.5 55v123h-137q-54 0 -82 -31t-28 -73zM86 456q28 19 76.5 30.5t78.5 11.5q83 0 132 -43.5t49 -114.5v-340h-41l-18 52q-23 -24 -64 -44.5t-84 -20.5q-82 0 -122.5 43t-40.5 106q0 69 48.5 107.5
t124.5 37.5h135v49q0 50 -28.5 83t-87.5 33q-53 0 -83 -11t-56 -23z" />
    <glyph glyph-name="Abreve" unicode="&#x102;" horiz-adv-x="584" 
d="M416 881q0 -50 -30.5 -89.5t-99.5 -40.5q-69 1 -99.5 40.5t-30.5 89.5h46q0 -28 21 -55t63 -27q40 0 61.5 27t21.5 55h47zM286 600l-129 -346h262zM318 680l260 -670l-61 -10l-80 204h-297l-75 -204h-59l247 680h65z" />
    <glyph glyph-name="abreve" unicode="&#x103;" horiz-adv-x="500" 
d="M372 731q0 -50 -30.5 -89.5t-99.5 -40.5q-69 1 -99 40.5t-30 89.5h46q0 -28 21.5 -55t61.5 -27q41 0 62 27t21 55h47zM113 136q0 -34 23 -66t77 -32q47 0 84.5 24t62.5 55v123h-137q-54 0 -82 -31t-28 -73zM86 456q28 19 76.5 30.5t78.5 11.5q83 0 132 -43.5t49 -114.5
v-340h-41l-18 52q-23 -24 -64 -44.5t-84 -20.5q-82 0 -122.5 43t-40.5 106q0 69 48.5 107.5t124.5 37.5h135v49q0 50 -28.5 83t-87.5 33q-53 0 -83 -11t-56 -23z" />
    <glyph glyph-name="Aogonek" unicode="&#x104;" horiz-adv-x="584" 
d="M318 680l260 -670q-22 -17 -43 -54.5t-21 -62.5q0 -30 16.5 -41.5t35.5 -11.5q16 0 29.5 5.5t25.5 15.5l22 -38q-13 -13 -34 -21.5t-46 -8.5q-45 0 -74.5 26.5t-29.5 69.5q0 30 15.5 62t40.5 52l-78 201h-297l-75 -204h-59l247 680h65zM286 600l-129 -346h262z" />
    <glyph glyph-name="aogonek" unicode="&#x105;" horiz-adv-x="500" 
d="M86 456q28 19 76.5 30.5t78.5 11.5q83 0 132 -43.5t49 -114.5v-340q-21 -16 -43.5 -47.5t-22.5 -59.5q0 -30 16 -41.5t36 -11.5q16 0 29.5 5.5t24.5 15.5l23 -38q-13 -13 -35 -21.5t-47 -8.5q-44 0 -73.5 26.5t-29.5 69.5q0 37 23 72.5t51 56.5l-11 34q-23 -24 -64 -44.5
t-84 -20.5q-82 0 -122.5 43t-40.5 106q0 69 48.5 107.5t124.5 37.5h135v49q0 50 -28.5 83t-87.5 33q-53 0 -83 -11t-56 -23zM113 136q0 -34 23 -66t77 -32q47 0 84.5 24t62.5 55v123h-137q-54 0 -82 -31t-28 -73z" />
    <glyph glyph-name="Cacute" unicode="&#x106;" horiz-adv-x="600" 
d="M381 892h72l-86 -153h-46zM517 611q-31 13 -61 21t-84 8q-107 -1 -170 -86.5t-63 -216.5q0 -122 54 -209t170 -87q54 0 88.5 9t61.5 21l24 -48q-28 -15 -78.5 -26t-93.5 -11q-156 0 -224 105.5t-68 244.5q0 149 75.5 253.5t222.5 104.5q31 0 84.5 -9t81.5 -28z" />
    <glyph glyph-name="cacute" unicode="&#x107;" horiz-adv-x="463" 
d="M281 742h71l-85 -153h-47zM412 28q-30 -19 -73 -30t-74 -11q-107 0 -160 72.5t-53 185.5q1 109 57 181t163 72q29 0 72.5 -11.5t72.5 -30.5l-20 -44q-25 12 -50.5 23t-77.5 11q-80 0 -116.5 -57.5t-37.5 -142.5q0 -89 33.5 -148t115.5 -59q53 0 77.5 10.5t50.5 23.5z" />
    <glyph glyph-name="Ccaron" unicode="&#x10c;" horiz-adv-x="600" 
d="M234 892h60l75 -108l74 108h62l-106 -153h-60zM517 611q-31 13 -61 21t-84 8q-107 -1 -170 -86.5t-63 -216.5q0 -122 54 -209t170 -87q54 0 88.5 9t61.5 21l24 -48q-28 -15 -78.5 -26t-93.5 -11q-156 0 -224 105.5t-68 244.5q0 149 75.5 253.5t222.5 104.5q31 0 84.5 -9
t81.5 -28z" />
    <glyph glyph-name="ccaron" unicode="&#x10d;" horiz-adv-x="463" 
d="M134 742h60l75 -108l75 108h59l-105 -153h-59zM412 28q-30 -19 -73 -30t-74 -11q-107 0 -160 72.5t-53 185.5q1 109 57 181t163 72q29 0 72.5 -11.5t72.5 -30.5l-20 -44q-25 12 -50.5 23t-77.5 11q-80 0 -116.5 -57.5t-37.5 -142.5q0 -89 33.5 -148t115.5 -59
q53 0 77.5 10.5t50.5 23.5z" />
    <glyph glyph-name="Dcaron" unicode="&#x10e;" horiz-adv-x="693" 
d="M168 891h60l75 -108l74 108h62l-106 -153h-60zM105 0v680h222q157 0 224.5 -98.5t67.5 -237.5q0 -142 -76 -243t-225 -101h-213zM330 627h-163v-575h153q107 0 173 80t66 211q0 121 -56.5 202.5t-172.5 81.5z" />
    <glyph glyph-name="dcaron" unicode="&#x10f;" horiz-adv-x="663" 
d="M610 702q19 0 33 -15t14 -40q0 -45 -27 -87.5t-64 -61.5l-19 29q24 16 39.5 34.5t18.5 44.5q-20 2 -32 16t-12 32q0 19 14.5 33.5t34.5 14.5zM395 386q-31 29 -65 44t-64 15q-82 0 -116.5 -57.5t-34.5 -145.5t34.5 -145t116.5 -57q30 0 64 14.5t65 43.5v288zM458 705
v-705h-41l-16 43q-31 -25 -68.5 -40.5t-72.5 -15.5q-106 0 -157 71.5t-51 182.5q0 112 51 184.5t157 72.5q33 0 69.5 -15.5t65.5 -38.5v252z" />
    <glyph glyph-name="Dcroat" unicode="&#x110;" horiz-adv-x="700" 
d="M111 0v309h-82l-8 50h90v321h223q156 0 224 -98.5t68 -237.5q0 -142 -76.5 -243t-225.5 -101h-213zM277 309h-104v-257h152q107 0 173.5 80t66.5 211q0 121 -56 202.5t-172 81.5h-164v-268h96z" />
    <glyph glyph-name="dcroat" unicode="&#x111;" horiz-adv-x="542" 
d="M395 386q-31 29 -65 44t-64 15q-82 0 -116.5 -57.5t-34.5 -145.5t34.5 -145t116.5 -57q30 0 64 14.5t65 43.5v288zM522 566h-64v-566h-41l-16 43q-31 -25 -68.5 -40.5t-72.5 -15.5q-106 0 -157 71.5t-51 182.5q0 112 51 184.5t157 72.5q33 0 69.5 -15.5t65.5 -38.5v122
h-121l-7 45h128v85l63 9v-94h57z" />
    <glyph glyph-name="Emacron" unicode="&#x112;" horiz-adv-x="524" 
d="M162 839h241v-49h-241v49zM105 0v680h360l5 -45h-303v-264h200l5 -45h-205v-276h320l6 -50h-388z" />
    <glyph glyph-name="emacron" unicode="&#x113;" horiz-adv-x="522" 
d="M150 689h241v-49h-241v49zM475 239h-360q1 -87 40.5 -144.5t129.5 -57.5q53 0 85.5 10.5t57.5 23.5l21 -46q-30 -19 -81 -28.5t-80 -9.5q-119 0 -177.5 72.5t-58.5 185.5q1 109 57 181t163 72t155 -74t48 -185zM412 282q-7 71 -39 117.5t-104 46.5t-108.5 -46.5
t-43.5 -117.5h295z" />
    <glyph glyph-name="Edotaccent" unicode="&#x116;" horiz-adv-x="524" 
d="M282 864q19 0 33 -14.5t14 -33.5q0 -20 -14 -34t-33 -14q-20 0 -34 14t-14 34q0 19 14 33.5t34 14.5zM105 0v680h360l5 -45h-303v-264h200l5 -45h-205v-276h320l6 -50h-388z" />
    <glyph glyph-name="edotaccent" unicode="&#x117;" horiz-adv-x="522" 
d="M271 714q19 0 33 -14.5t14 -33.5q0 -20 -14 -34t-33 -14q-20 0 -34 14t-14 34q0 19 14 33.5t34 14.5zM475 239h-360q1 -87 40.5 -144.5t129.5 -57.5q53 0 85.5 10.5t57.5 23.5l21 -46q-30 -19 -81 -28.5t-80 -9.5q-119 0 -177.5 72.5t-58.5 185.5q1 109 57 181t163 72
t155 -74t48 -185zM412 282q-7 71 -39 117.5t-104 46.5t-108.5 -46.5t-43.5 -117.5h295z" />
    <glyph glyph-name="Eogonek" unicode="&#x118;" horiz-adv-x="524" 
d="M105 0v680h360l5 -45h-303v-264h200l5 -45h-205v-276h320l6 -50h-60q-25 -19 -46 -51t-21 -56q0 -30 16.5 -41.5t35.5 -11.5q16 0 29.5 5.5t25.5 15.5l22 -38q-13 -13 -34 -21.5t-46 -8.5q-45 0 -74.5 26.5t-29.5 69.5q0 28 14 59t38 52h-258z" />
    <glyph glyph-name="eogonek" unicode="&#x119;" horiz-adv-x="522" 
d="M475 239h-360q1 -87 40.5 -144.5t129.5 -57.5q53 0 85.5 10.5t57.5 23.5l21 -46q-13 -7 -29.5 -14t-34.5 -11q-25 -19 -46 -51t-21 -56q0 -30 16.5 -41.5t35.5 -11.5q16 0 29.5 5.5t23.5 15.5l24 -38q-13 -13 -34 -21.5t-47 -8.5q-44 0 -74 26.5t-30 69.5q0 25 11 51.5
t30 47.5q-4 -1 -8 -1h-7q-119 0 -177.5 72.5t-58.5 185.5q1 109 57 181t163 72t155 -74t48 -185zM412 282q-7 71 -39 117.5t-104 46.5t-108.5 -46.5t-43.5 -117.5h295z" />
    <glyph glyph-name="Ecaron" unicode="&#x11a;" horiz-adv-x="524" 
d="M145 892h60l75 -108l74 108h62l-106 -153h-60zM105 0v680h360l5 -45h-303v-264h200l5 -45h-205v-276h320l6 -50h-388z" />
    <glyph glyph-name="ecaron" unicode="&#x11b;" horiz-adv-x="522" 
d="M134 742h60l75 -108l75 108h59l-105 -153h-59zM475 239h-360q1 -87 40.5 -144.5t129.5 -57.5q53 0 85.5 10.5t57.5 23.5l21 -46q-30 -19 -81 -28.5t-80 -9.5q-119 0 -177.5 72.5t-58.5 185.5q1 109 57 181t163 72t155 -74t48 -185zM412 282q-7 71 -39 117.5t-104 46.5
t-108.5 -46.5t-43.5 -117.5h295z" />
    <glyph glyph-name="Gbreve" unicode="&#x11e;" horiz-adv-x="657" 
d="M532 881q0 -50 -30.5 -89.5t-99.5 -40.5q-69 1 -99.5 40.5t-30.5 89.5h46q0 -28 21 -55t63 -27q40 0 61.5 27t21.5 55h47zM370 342h209v-310h-1l1 -1q-28 -19 -84 -32t-99 -13q-155 0 -239 100.5t-84 249.5q0 161 91.5 259.5t237.5 98.5q31 0 84.5 -9t81.5 -28l-19 -46
q-31 13 -61.5 21t-83.5 8q-107 -1 -186 -79.5t-79 -223.5q0 -137 70 -216.5t186 -79.5q36 0 66.5 7t55.5 16v233h-153z" />
    <glyph glyph-name="gbreve" unicode="&#x11f;" horiz-adv-x="542" 
d="M389 731q0 -50 -30 -89.5t-99 -40.5q-69 1 -99.5 40.5t-30.5 89.5h47q0 -28 21.5 -55t61.5 -27q41 0 62.5 27t21.5 55h45zM395 386q-31 29 -65 44t-64 15q-82 0 -116.5 -57.5t-34.5 -145.5t34.5 -145t116.5 -57q30 0 64 14.5t65 43.5v288zM458 -53q0 -72 -50.5 -120
t-145.5 -48q-29 0 -78 11t-77 30l19 46q25 -12 54 -23t80 -12q61 0 98 28.5t37 88.5v92q-29 -24 -65.5 -38.5t-69.5 -14.5q-106 0 -157 71.5t-51 182.5q0 112 51 184.5t157 72.5q35 0 72.5 -16.5t67.5 -41.5l17 45h41v-538z" />
    <glyph glyph-name="Gcedilla" unicode="&#x122;" horiz-adv-x="657" 
d="M370 342h209v-310h-1l1 -1q-26 -18 -78.5 -31t-95.5 -14l-16 -40q34 -4 57 -28t23 -50q0 -46 -34 -67.5t-78 -21.5q-19 0 -40 5.5t-34 13.5l15 42q9 -4 26.5 -9t32.5 -5q20 0 38.5 10.5t18.5 29.5q0 21 -25.5 35t-63.5 18l28 70q-135 14 -207.5 111t-72.5 236
q0 161 91.5 259.5t237.5 98.5q31 0 84.5 -9t81.5 -28l-19 -46q-31 13 -61.5 21t-83.5 8q-107 -1 -186 -79.5t-79 -223.5q0 -137 70 -216.5t186 -79.5q36 0 66.5 7t55.5 16v233h-153z" />
    <glyph glyph-name="gcedilla" unicode="&#x123;" horiz-adv-x="542" 
d="M260 566q-20 0 -33.5 15t-13.5 41q0 45 27 87.5t64 61.5l19 -30q-24 -16 -40 -34.5t-18 -44.5q19 -2 31 -16t12 -31q0 -20 -13.5 -34.5t-34.5 -14.5zM395 386q-31 29 -65 44t-64 15q-82 0 -116.5 -57.5t-34.5 -145.5t34.5 -145t116.5 -57q30 0 64 14.5t65 43.5v288z
M458 -53q0 -72 -50.5 -120t-145.5 -48q-29 0 -78 11t-77 30l19 46q25 -12 54 -23t80 -12q61 0 98 28.5t37 88.5v92q-29 -24 -65.5 -38.5t-69.5 -14.5q-106 0 -157 71.5t-51 182.5q0 112 51 184.5t157 72.5q35 0 72.5 -16.5t67.5 -41.5l17 45h41v-538z" />
    <glyph glyph-name="Imacron" unicode="&#x12a;" horiz-adv-x="272" 
d="M16 839h241v-49h-241v49zM105 0v680h62v-680h-62z" />
    <glyph glyph-name="imacron" unicode="&#x12b;" horiz-adv-x="232" 
d="M-5 689h242v-49h-242v49zM85 0v485h63v-485h-63z" />
    <glyph glyph-name="Iogonek" unicode="&#x12e;" horiz-adv-x="272" 
d="M105 4v676h62v-680q-22 -15 -43 -48.5t-21 -58.5q0 -30 16.5 -41.5t35.5 -11.5q16 0 29.5 5.5t25.5 15.5l22 -38q-13 -13 -34 -21.5t-46 -8.5q-45 0 -74.5 26.5t-29.5 69.5q0 30 15.5 62t41.5 53z" />
    <glyph glyph-name="iogonek" unicode="&#x12f;" horiz-adv-x="232" 
d="M116 591q-21 0 -34 13.5t-13 33.5t13 33.5t34 13.5q19 0 33.5 -13.5t14.5 -33.5t-14.5 -33.5t-33.5 -13.5zM148 485v-485q-22 -16 -44.5 -47.5t-22.5 -59.5q0 -30 16 -41.5t37 -11.5q15 0 28 5.5t25 15.5l22 -38q-13 -13 -34.5 -21.5t-47.5 -8.5q-43 0 -73 26.5t-30 69.5
q0 32 18.5 63.5t42.5 53.5v479h63z" />
    <glyph glyph-name="Idotaccent" unicode="&#x130;" horiz-adv-x="272" 
d="M136 864q19 0 33 -14.5t14 -33.5q0 -20 -14 -34t-33 -14q-20 0 -34 14t-14 34q0 19 14 33.5t34 14.5zM105 0v680h62v-680h-62z" />
    <glyph glyph-name="dotlessi" unicode="&#x131;" horiz-adv-x="232" 
d="M85 0v485h63v-485h-63z" />
    <glyph glyph-name="Kcedilla" unicode="&#x136;" horiz-adv-x="603" 
d="M519 0l-275 346l-77 -89v-257h-62v680h62v-345l306 360l40 -38l-230 -266l310 -391h-74zM344 -21q19 0 33 -14.5t14 -39.5q0 -45 -27 -88t-66 -62l-17 30q23 16 39.5 34.5t17.5 44.5q-20 2 -31.5 16t-11.5 31q0 20 14.5 34t34.5 14z" />
    <glyph glyph-name="kcedilla" unicode="&#x137;" horiz-adv-x="482" 
d="M84 0v696l62 10v-440l225 232l39 -37l-152 -156l208 -305h-75l-173 264l-72 -74v-190h-62zM255 -21q20 0 34.5 -14.5t14.5 -39.5q0 -45 -28 -88t-65 -62l-19 30q24 16 40 34.5t19 44.5q-20 2 -32 16t-12 31q0 20 14.5 34t33.5 14z" />
    <glyph glyph-name="Lacute" unicode="&#x139;" horiz-adv-x="507" 
d="M197 892h72l-86 -153h-46zM486 0h-381v680h62v-630h314z" />
    <glyph glyph-name="lacute" unicode="&#x13a;" horiz-adv-x="230" 
d="M150 829h72l-86 -117h-46zM84 0v673l62 12v-685h-62z" />
    <glyph glyph-name="Lcedilla" unicode="&#x13b;" horiz-adv-x="507" 
d="M486 0h-381v680h62v-630h314zM312 -21q20 0 34 -14.5t14 -39.5q0 -45 -27.5 -88t-64.5 -62l-18 30q23 16 39 34.5t18 44.5q-19 2 -31 16t-12 31q0 20 14.5 34t33.5 14z" />
    <glyph glyph-name="lcedilla" unicode="&#x13c;" horiz-adv-x="230" 
d="M84 0v696l62 10v-706h-62zM115 -21q19 0 33 -14.5t14 -39.5q0 -45 -27 -88t-64 -62l-19 30q25 16 40.5 34.5t17.5 44.5q-19 2 -31 16t-12 31q0 20 13.5 34t34.5 14z" />
    <glyph glyph-name="Lcaron" unicode="&#x13d;" horiz-adv-x="507" 
d="M340 702q19 0 33 -15t14 -40q0 -45 -27.5 -87.5t-64.5 -61.5l-18 29q23 16 38.5 34.5t17.5 44.5q-19 2 -30.5 16t-11.5 32q0 19 14 33.5t35 14.5zM486 0h-381v680h62v-630h314z" />
    <glyph glyph-name="lcaron" unicode="&#x13e;" horiz-adv-x="351" 
d="M84 0v696l62 10v-706h-62zM297 702q20 0 34 -15t14 -40q0 -45 -27 -87.5t-65 -61.5l-18 29q24 16 40 34.5t17 44.5q-19 2 -30.5 16t-11.5 32q0 19 14 33.5t33 14.5z" />
    <glyph glyph-name="Lslash" unicode="&#x141;" horiz-adv-x="510" 
d="M489 0h-382v262l-52 -46l-30 39l82 70v355h62v-299l105 91l30 -37l-135 -118v-267h315z" />
    <glyph glyph-name="lslash" unicode="&#x142;" horiz-adv-x="230" 
d="M253 455l-107 -95v-360h-62v306l-78 -69l-30 39l108 94v326l62 10v-282l78 70z" />
    <glyph glyph-name="Nacute" unicode="&#x143;" horiz-adv-x="703" 
d="M375 892h72l-86 -153h-46zM105 0v680h41l357 -492l34 -59v551h63v-680h-41l-378 531l-14 29v-560h-62z" />
    <glyph glyph-name="nacute" unicode="&#x144;" horiz-adv-x="552" 
d="M326 742h72l-85 -153h-47zM84 0v485h41l20 -76q31 36 79 62.5t93 26.5q78 0 117.5 -45.5t39.5 -115.5v-336h-62v324q0 50 -24.5 84.5t-77.5 35.5q-32 0 -81 -23t-83 -66v-356h-62z" />
    <glyph glyph-name="Ncedilla" unicode="&#x145;" horiz-adv-x="703" 
d="M105 0v680h41l357 -492l34 -59v551h63v-680h-41l-378 531l-14 29v-560h-62zM356 -20q21 0 34 -14.5t13 -39.5q0 -45 -27 -87.5t-65 -61.5l-18 29q24 16 40.5 34t17.5 45q-19 2 -31 16t-12 31q0 20 14.5 34t33.5 14z" />
    <glyph glyph-name="ncedilla" unicode="&#x146;" horiz-adv-x="552" 
d="M84 0v485h41l20 -76q31 36 79 62.5t93 26.5q78 0 117.5 -45.5t39.5 -115.5v-336h-62v324q0 50 -24.5 84.5t-77.5 35.5q-32 0 -81 -23t-83 -66v-356h-62zM275 -21q20 0 34 -14.5t14 -39.5q0 -45 -27.5 -88t-65.5 -62l-17 30q23 16 39 34.5t18 44.5q-19 2 -31.5 16
t-12.5 31q0 20 14.5 34t34.5 14z" />
    <glyph glyph-name="Ncaron" unicode="&#x147;" horiz-adv-x="703" 
d="M228 892h60l75 -108l74 108h62l-106 -153h-60zM105 0v680h41l357 -492l34 -59v551h63v-680h-41l-378 531l-14 29v-560h-62z" />
    <glyph glyph-name="ncaron" unicode="&#x148;" horiz-adv-x="552" 
d="M180 742h60l76 -108l73 108h62l-107 -153h-58zM84 0v485h41l20 -76q31 36 79 62.5t93 26.5q78 0 117.5 -45.5t39.5 -115.5v-336h-62v324q0 50 -24.5 84.5t-77.5 35.5q-32 0 -81 -23t-83 -66v-356h-62z" />
    <glyph glyph-name="Omacron" unicode="&#x14c;" horiz-adv-x="736" 
d="M251 839h241v-49h-241v49zM371 696q156 0 224.5 -106t68.5 -245q0 -141 -76 -249t-223 -110q-156 0 -224 106.5t-68 244.5q0 149 75.5 252.5t222.5 106.5zM139 338q0 -122 54 -209.5t170 -87.5q107 0 170 85.5t63 217.5q0 122 -53.5 209t-170.5 87q-107 0 -170 -85.5
t-63 -216.5z" />
    <glyph glyph-name="omacron" unicode="&#x14d;" horiz-adv-x="528" 
d="M146 689h241v-49h-241v49zM257 -13q-105 1 -155 74.5t-50 183.5q1 107 56 179.5t159 73.5q107 0 157.5 -73.5t50.5 -185.5q-1 -110 -57 -181t-161 -71zM414 239q0 87 -31.5 146.5t-113.5 59.5q-80 0 -116.5 -57t-37.5 -142q0 -89 31 -147.5t112 -58.5t118 56t38 143z" />
    <glyph glyph-name="Ohungarumlaut" unicode="&#x150;" horiz-adv-x="736" 
d="M448 892h70l-84 -153h-45zM325 892h69l-86 -153h-43zM371 696q156 0 224.5 -106t68.5 -245q0 -141 -76 -249t-223 -110q-156 0 -224 106.5t-68 244.5q0 149 75.5 252.5t222.5 106.5zM139 338q0 -122 54 -209.5t170 -87.5q107 0 170 85.5t63 217.5q0 122 -53.5 209
t-170.5 87q-107 0 -170 -85.5t-63 -216.5z" />
    <glyph glyph-name="ohungarumlaut" unicode="&#x151;" horiz-adv-x="528" 
d="M344 742h69l-85 -153h-44zM220 742h69l-85 -153h-44zM257 -13q-105 1 -155 74.5t-50 183.5q1 107 56 179.5t159 73.5q107 0 157.5 -73.5t50.5 -185.5q-1 -110 -57 -181t-161 -71zM414 239q0 87 -31.5 146.5t-113.5 59.5q-80 0 -116.5 -57t-37.5 -142q0 -89 31 -147.5
t112 -58.5t118 56t38 143z" />
    <glyph glyph-name="OE" unicode="&#x152;" horiz-adv-x="942" 
d="M523 612q-29 13 -58.5 20.5t-80.5 7.5q-108 -1 -176.5 -86.5t-68.5 -216.5q0 -122 59.5 -209t174.5 -87q53 0 88 9t62 21v541zM911 0h-388v12q-31 -12 -72 -19t-75 -7q-156 0 -229.5 105.5t-73.5 244.5q0 149 81 253.5t228 104.5q25 0 67 -6t74 -18v10h360l7 -45h-305
v-264h200l6 -45h-206v-276h321z" />
    <glyph glyph-name="oe" unicode="&#x153;" horiz-adv-x="822" 
d="M776 239h-362q1 -87 40.5 -144.5t129.5 -57.5q54 0 86.5 10.5t58.5 23.5l19 -46q-28 -19 -79 -28.5t-82 -9.5q-43 0 -77.5 10t-61.5 27q-29 -18 -69 -27.5t-71 -9.5q-117 0 -186 72t-70 182q0 110 69 183.5t187 73.5q30 0 69.5 -9t69.5 -28q24 17 55 27t69 10
q107 0 156 -74t49 -185zM115 246q0 -89 49.5 -149t140.5 -60q43 0 64.5 7t39.5 16q-28 34 -42 81.5t-14 103.5q0 54 13.5 100.5t41.5 79.5q-18 9 -40 16.5t-63 7.5q-90 0 -139.5 -59t-50.5 -144zM712 282q-7 71 -39.5 117.5t-104.5 46.5q-71 0 -107.5 -46.5t-44.5 -117.5
h296z" />
    <glyph glyph-name="Racute" unicode="&#x154;" horiz-adv-x="633" 
d="M291 892h72l-86 -153h-46zM283 627h-116v-290h105q76 0 133 31t58 116q0 87 -51 115t-129 28zM510 0l-161 291q-19 -2 -39 -3.5t-40 -1.5h-103v-286h-62v680h176q106 0 175.5 -43.5t69.5 -150.5q-1 -71 -35 -114t-87 -64l176 -308h-70z" />
    <glyph glyph-name="racute" unicode="&#x155;" horiz-adv-x="321" 
d="M197 742h72l-84 -153h-47zM84 0v485h41l18 -67q26 22 68.5 44.5t80.5 22.5l17 -49q-46 0 -90.5 -24.5t-72.5 -55.5v-356h-62z" />
    <glyph glyph-name="Rcedilla" unicode="&#x156;" horiz-adv-x="633" 
d="M283 627h-116v-290h105q76 0 133 31t58 116q0 87 -51 115t-129 28zM510 0l-161 291q-19 -2 -39 -3.5t-40 -1.5h-103v-286h-62v680h176q106 0 175.5 -43.5t69.5 -150.5q-1 -71 -35 -114t-87 -64l176 -308h-70zM321 -21q21 0 35 -14.5t14 -39.5q0 -45 -28.5 -88t-65.5 -62
l-18 30q25 16 41 34.5t17 44.5q-19 2 -31 16t-12 31q0 20 14 34t34 14z" />
    <glyph glyph-name="rcedilla" unicode="&#x157;" horiz-adv-x="321" 
d="M84 0v485h41l18 -67q26 22 68.5 44.5t80.5 22.5l17 -49q-46 0 -90.5 -24.5t-72.5 -55.5v-356h-62zM117 -21q19 0 33 -14.5t14 -39.5q0 -45 -27.5 -88t-65.5 -62l-17 30q23 16 39 34.5t18 44.5q-19 2 -30.5 16t-11.5 31q0 20 13.5 34t34.5 14z" />
    <glyph glyph-name="Rcaron" unicode="&#x158;" horiz-adv-x="633" 
d="M144 892h60l75 -108l74 108h62l-106 -153h-60zM283 627h-116v-290h105q76 0 133 31t58 116q0 87 -51 115t-129 28zM510 0l-161 291q-19 -2 -39 -3.5t-40 -1.5h-103v-286h-62v680h176q106 0 175.5 -43.5t69.5 -150.5q-1 -71 -35 -114t-87 -64l176 -308h-70z" />
    <glyph glyph-name="rcaron" unicode="&#x159;" horiz-adv-x="321" 
d="M24 742h61l75 -108l74 108h61l-106 -153h-59zM84 0v485h41l18 -67q26 22 68.5 44.5t80.5 22.5l17 -49q-46 0 -90.5 -24.5t-72.5 -55.5v-356h-62z" />
    <glyph glyph-name="Sacute" unicode="&#x15a;" horiz-adv-x="533" 
d="M276 892h72l-86 -153h-46zM80 77q26 -13 71 -26t95 -13q86 0 131.5 35t45.5 87q0 117 -185 166.5t-184 203.5q1 70 58.5 118t153.5 48q50 0 94 -12t74 -27l-22 -47q-26 12 -59 23t-85 11q-72 0 -114 -31t-42 -83q0 -119 187 -170t183 -200q-1 -75 -62.5 -124t-172.5 -49
q-43 0 -104 13.5t-78 28.5z" />
    <glyph glyph-name="sacute" unicode="&#x15b;" horiz-adv-x="451" 
d="M241 742h70l-84 -153h-46zM76 73q26 -13 60.5 -23.5t72.5 -10.5q60 0 94 19.5t34 60.5q0 35 -38 60.5t-90 43.5q-57 19 -107 51.5t-50 89.5q0 63 48 98.5t130 35.5q31 0 76 -11t70 -29l-20 -46q-20 10 -51.5 22t-76.5 12q-51 0 -82 -21.5t-31 -56.5q1 -34 36 -55.5
t86 -38.5q59 -21 110.5 -56.5t51.5 -93.5q0 -64 -49.5 -100.5t-142.5 -36.5q-30 0 -76.5 9.5t-74.5 28.5z" />
    <glyph glyph-name="Scedilla" unicode="&#x15e;" horiz-adv-x="533" 
d="M80 77q26 -13 71 -26t95 -13q86 0 131.5 35t45.5 87q0 117 -185 166.5t-184 203.5q1 70 58.5 118t153.5 48q50 0 94 -12t74 -27l-22 -47q-26 12 -59 23t-85 11q-72 0 -114 -31t-42 -83q0 -119 187 -170t183 -200q-1 -71 -56 -119t-154 -53l-16 -42q32 -4 56 -28t24 -50
q0 -46 -34.5 -67.5t-77.5 -21.5q-19 0 -40 5.5t-35 13.5l16 42q9 -4 26 -9t33 -5q20 0 38 10.5t18 29.5q0 21 -25.5 35t-63.5 18l28 70q-43 4 -91.5 15.5t-62.5 24.5z" />
    <glyph glyph-name="scedilla" unicode="&#x15f;" horiz-adv-x="451" 
d="M76 73q26 -13 60.5 -23.5t72.5 -10.5q60 0 94 19.5t34 60.5q0 35 -38 60.5t-90 43.5q-57 19 -107 51.5t-50 89.5q0 63 48 98.5t130 35.5q31 0 76 -11t70 -29l-20 -46q-20 10 -51.5 22t-76.5 12q-51 0 -82 -21.5t-31 -56.5q1 -34 36 -55.5t86 -38.5q59 -21 110.5 -56.5
t51.5 -93.5q0 -60 -43 -95.5t-124 -40.5l-16 -42q33 -4 56.5 -28t23.5 -50q0 -46 -34 -67.5t-77 -21.5q-19 0 -40.5 5.5t-34.5 13.5l16 42q9 -4 26 -9t33 -5q20 0 38 10.5t18 29.5q0 21 -25.5 35t-62.5 18l27 70q-30 3 -66 12t-58 24z" />
    <glyph glyph-name="Scaron" unicode="&#x160;" horiz-adv-x="533" 
d="M129 892h60l75 -108l74 108h62l-106 -153h-60zM80 77q26 -13 71 -26t95 -13q86 0 131.5 35t45.5 87q0 117 -185 166.5t-184 203.5q1 70 58.5 118t153.5 48q50 0 94 -12t74 -27l-22 -47q-26 12 -59 23t-85 11q-72 0 -114 -31t-42 -83q0 -119 187 -170t183 -200
q-1 -75 -62.5 -124t-172.5 -49q-43 0 -104 13.5t-78 28.5z" />
    <glyph glyph-name="scaron" unicode="&#x161;" horiz-adv-x="451" 
d="M93 742h61l75 -108l75 108h60l-106 -153h-59zM76 73q26 -13 60.5 -23.5t72.5 -10.5q60 0 94 19.5t34 60.5q0 35 -38 60.5t-90 43.5q-57 19 -107 51.5t-50 89.5q0 63 48 98.5t130 35.5q31 0 76 -11t70 -29l-20 -46q-20 10 -51.5 22t-76.5 12q-51 0 -82 -21.5t-31 -56.5
q1 -34 36 -55.5t86 -38.5q59 -21 110.5 -56.5t51.5 -93.5q0 -64 -49.5 -100.5t-142.5 -36.5q-30 0 -76.5 9.5t-74.5 28.5z" />
    <glyph glyph-name="Tcedilla" unicode="&#x162;" horiz-adv-x="514" 
d="M503 631h-215v-631h-7l-22 -54q34 -4 57 -28t23 -50q0 -46 -33.5 -67.5t-77.5 -21.5q-18 0 -39.5 5.5t-34.5 13.5l15 42q9 -4 26 -9t33 -5q20 0 38.5 10.5t18.5 29.5q0 21 -26 35t-63 18l32 81h-3v631h-215v49h488z" />
    <glyph glyph-name="tcedilla" unicode="&#x163;" horiz-adv-x="309" 
d="M265 428h-109v-305q0 -36 15.5 -59t52.5 -23q11 0 23.5 3.5t17.5 5.5l12 -51q-8 -1 -22.5 -5.5t-31.5 -5.5l-16 -42q34 -4 57.5 -28t23.5 -50q0 -46 -34.5 -67.5t-77.5 -21.5q-19 0 -40 5.5t-35 13.5l17 42q7 -4 24.5 -9t33.5 -5q19 0 37.5 10.5t18.5 29.5q0 21 -25.5 35
t-62.5 18l28 73q-37 10 -58 41.5t-21 82.5v312h-71l-1 47h72v126l63 22v-148h88z" />
    <glyph glyph-name="Tcaron" unicode="&#x164;" horiz-adv-x="514" 
d="M120 892h60l75 -108l74 108h62l-106 -153h-60zM503 631h-215v-631h-63v631h-215v49h488z" />
    <glyph glyph-name="tcaron" unicode="&#x165;" horiz-adv-x="429" 
d="M377 702q19 0 33 -15t14 -40q0 -45 -26.5 -87.5t-65.5 -61.5l-18 29q24 16 40 34.5t17 44.5q-19 2 -31 16t-12 32q0 19 14.5 33.5t34.5 14.5zM265 428h-109v-305q0 -36 15.5 -59t52.5 -23q11 0 23.5 3.5t17.5 5.5l12 -51q-10 -2 -27.5 -7t-38.5 -5q-53 0 -85.5 33
t-32.5 96v312h-71l-1 47h72v126l63 22v-148h88z" />
    <glyph glyph-name="Umacron" unicode="&#x16a;" horiz-adv-x="685" 
d="M222 839h241v-49h-241v49zM156 248q0 -87 50 -147t136 -60q89 0 137.5 60t48.5 147v432h63v-441q0 -109 -66.5 -180t-182.5 -71q-115 1 -181.5 71.5t-66.5 179.5v441h62v-432z" />
    <glyph glyph-name="umacron" unicode="&#x16b;" horiz-adv-x="531" 
d="M141 689h243v-49h-243v49zM448 485v-485h-42l-19 55q-31 -28 -71.5 -47.5t-79.5 -19.5q-80 0 -119 45t-39 117v335h62v-326q0 -49 25 -83.5t76 -34.5q28 0 69 16.5t76 49.5v378h62z" />
    <glyph glyph-name="Uring" unicode="&#x16e;" horiz-adv-x="685" 
d="M342 909q36 0 62 -24t26 -60q0 -35 -26 -58t-62 -23t-62.5 23t-26.5 58q0 36 26.5 60t62.5 24zM342 783q18 0 31 12t13 30q0 19 -13 31.5t-31 12.5t-31 -12.5t-13 -31.5q0 -18 13 -30t31 -12zM156 248q0 -87 50 -147t136 -60q89 0 137.5 60t48.5 147v432h63v-441
q0 -109 -66.5 -180t-182.5 -71q-115 1 -181.5 71.5t-66.5 179.5v441h62v-432z" />
    <glyph glyph-name="uring" unicode="&#x16f;" horiz-adv-x="531" 
d="M262 759q35 0 62 -24t27 -60q0 -35 -27 -58t-62 -23q-36 0 -62.5 23t-26.5 58q0 36 26.5 60t62.5 24zM262 633q19 0 31.5 12t12.5 30q0 19 -12.5 31.5t-31.5 12.5q-17 0 -30 -12.5t-13 -31.5q0 -18 13 -30t30 -12zM448 485v-485h-42l-19 55q-31 -28 -71.5 -47.5
t-79.5 -19.5q-80 0 -119 45t-39 117v335h62v-326q0 -49 25 -83.5t76 -34.5q28 0 69 16.5t76 49.5v378h62z" />
    <glyph glyph-name="Uhungarumlaut" unicode="&#x170;" horiz-adv-x="685" 
d="M419 892h70l-84 -153h-45zM296 892h69l-86 -153h-43zM156 248q0 -87 50 -147t136 -60q89 0 137.5 60t48.5 147v432h63v-441q0 -109 -66.5 -180t-182.5 -71q-115 1 -181.5 71.5t-66.5 179.5v441h62v-432z" />
    <glyph glyph-name="uhungarumlaut" unicode="&#x171;" horiz-adv-x="531" 
d="M339 742h70l-85 -153h-45zM216 742h69l-86 -153h-44zM448 485v-485h-42l-19 55q-31 -28 -71.5 -47.5t-79.5 -19.5q-80 0 -119 45t-39 117v335h62v-326q0 -49 25 -83.5t76 -34.5q28 0 69 16.5t76 49.5v378h62z" />
    <glyph glyph-name="Uogonek" unicode="&#x172;" horiz-adv-x="685" 
d="M156 248q0 -87 50 -147t136 -60q89 0 137.5 60t48.5 147v432h63v-441q0 -91 -47 -156.5t-131 -85.5q-24 -20 -43 -51t-19 -53q0 -30 16.5 -41.5t35.5 -11.5q16 0 29.5 5.5t25.5 15.5l22 -38q-13 -13 -34 -21.5t-46 -8.5q-45 0 -74.5 26.5t-29.5 69.5q0 25 10.5 51.5
t29.5 47.5q-112 3 -177 73t-65 178v441h62v-432z" />
    <glyph glyph-name="uogonek" unicode="&#x173;" horiz-adv-x="531" 
d="M448 485v-485q-22 -16 -44.5 -47.5t-22.5 -59.5q0 -30 16 -41.5t37 -11.5q15 0 28 5.5t24 15.5l24 -38q-13 -13 -34.5 -21.5t-47.5 -8.5q-43 0 -73 26.5t-30 69.5q0 37 23.5 72.5t50.5 56.5l-12 37q-31 -28 -71.5 -47.5t-79.5 -19.5q-80 0 -119 45t-39 117v335h62v-326
q0 -49 25 -83.5t76 -34.5q28 0 69 16.5t76 49.5v378h62z" />
    <glyph glyph-name="Ydieresis" unicode="&#x178;" horiz-adv-x="547" 
d="M351 854q19 0 31 -12.5t12 -29.5q0 -19 -12 -31.5t-31 -12.5q-18 0 -30.5 12.5t-12.5 31.5q0 17 12.5 29.5t30.5 12.5zM194 854q19 0 31.5 -12.5t12.5 -29.5q0 -19 -12.5 -31.5t-31.5 -12.5q-17 0 -30 12.5t-13 31.5q0 17 13 29.5t30 12.5zM240 0l1 276l-235 393l65 11
l201 -344l203 344h67l-238 -397l-1 -283h-63z" />
    <glyph glyph-name="Zacute" unicode="&#x179;" horiz-adv-x="566" 
d="M300 892h72l-86 -153h-46zM519 0h-488l-6 50l442 581h-405l-10 49h477l5 -49l-440 -581h420z" />
    <glyph glyph-name="zacute" unicode="&#x17a;" horiz-adv-x="472" 
d="M276 742h70l-85 -153h-46zM428 453l-305 -405h289l10 -48h-372l-8 31l301 405h-256l-16 49h354z" />
    <glyph glyph-name="Zdotaccent" unicode="&#x17b;" horiz-adv-x="566" 
d="M290 864q19 0 33 -14.5t14 -33.5q0 -20 -14 -34t-33 -14q-20 0 -34 14t-14 34q0 19 14 33.5t34 14.5zM519 0h-488l-6 50l442 581h-405l-10 49h477l5 -49l-440 -581h420z" />
    <glyph glyph-name="zdotaccent" unicode="&#x17c;" horiz-adv-x="472" 
d="M260 714q21 0 34.5 -14.5t13.5 -33.5q0 -20 -13.5 -34t-34.5 -14q-20 0 -33.5 14t-13.5 34q0 19 13.5 33.5t33.5 14.5zM428 453l-305 -405h289l10 -48h-372l-8 31l301 405h-256l-16 49h354z" />
    <glyph glyph-name="Zcaron" unicode="&#x17d;" horiz-adv-x="566" 
d="M153 892h60l75 -108l74 108h62l-106 -153h-60zM519 0h-488l-6 50l442 581h-405l-10 49h477l5 -49l-440 -581h420z" />
    <glyph glyph-name="zcaron" unicode="&#x17e;" horiz-adv-x="472" 
d="M122 742h62l74 -108l74 108h62l-106 -153h-59zM428 453l-305 -405h289l10 -48h-372l-8 31l301 405h-256l-16 49h354z" />
    <glyph glyph-name="florin" unicode="&#x192;" horiz-adv-x="288" 
d="M156 563v-88h88l21 -47h-109v-354q0 -63 -31.5 -101t-84.5 -38q-21 0 -39.5 4.5t-27.5 7.5l11 53q6 -3 18.5 -6t21.5 -3q39 0 54.5 22.5t15.5 59.5v355h-72l-1 47h73v88q0 63 32 101t86 38q20 0 38 -4.5t28 -8.5l-12 -53q-6 3 -18.5 6t-22.5 3q-38 0 -53.5 -23t-15.5 -59
z" />
    <glyph glyph-name="Scommaaccent" unicode="&#x218;" horiz-adv-x="533" 
d="M80 77q26 -13 71 -26t95 -13q86 0 131.5 35t45.5 87q0 117 -185 166.5t-184 203.5q1 70 58.5 118t153.5 48q50 0 94 -12t74 -27l-22 -47q-26 12 -59 23t-85 11q-72 0 -114 -31t-42 -83q0 -119 187 -170t183 -200q-1 -75 -62.5 -124t-172.5 -49q-43 0 -104 13.5t-78 28.5z
M246 -21q20 0 33.5 -14.5t13.5 -39.5q0 -45 -26.5 -88t-64.5 -62l-18 30q23 16 39.5 34.5t17.5 44.5q-20 2 -31.5 16t-11.5 31q0 20 14.5 34t33.5 14z" />
    <glyph glyph-name="scommaaccent" unicode="&#x219;" horiz-adv-x="451" 
d="M76 73q26 -13 60.5 -23.5t72.5 -10.5q60 0 94 19.5t34 60.5q0 35 -38 60.5t-90 43.5q-57 19 -107 51.5t-50 89.5q0 63 48 98.5t130 35.5q31 0 76 -11t70 -29l-20 -46q-20 10 -51.5 22t-76.5 12q-51 0 -82 -21.5t-31 -56.5q1 -34 36 -55.5t86 -38.5q59 -21 110.5 -56.5
t51.5 -93.5q0 -64 -49.5 -100.5t-142.5 -36.5q-30 0 -76.5 9.5t-74.5 28.5zM223 -21q20 0 34 -14.5t14 -39.5q0 -45 -27.5 -88t-64.5 -62l-19 30q24 16 40 34.5t18 44.5q-20 2 -32 16t-12 31q0 20 14.5 34t34.5 14z" />
    <glyph glyph-name="uni021A" unicode="&#x21a;" horiz-adv-x="514" 
d="M503 631h-215v-631h-63v631h-215v49h488zM257 -21q19 0 33 -14.5t14 -39.5q0 -45 -27 -88t-64 -62l-20 30q24 16 40 34.5t19 44.5q-20 2 -32 16t-12 31q0 20 14.5 34t34.5 14z" />
    <glyph glyph-name="uni021B" unicode="&#x21b;" horiz-adv-x="309" 
d="M265 428h-109v-305q0 -36 15.5 -59t52.5 -23q11 0 23.5 3.5t17.5 5.5l12 -51q-10 -2 -27.5 -7t-38.5 -5q-53 0 -85.5 33t-32.5 96v312h-71l-1 47h72v126l63 22v-148h88zM198 -21q20 0 34 -14.5t14 -39.5q0 -45 -27.5 -88t-64.5 -62l-19 30q24 16 40 34.5t17 44.5
q-19 2 -30.5 16t-11.5 31q0 20 14.5 34t33.5 14z" />
    <glyph glyph-name="circumflex" unicode="&#x2c6;" horiz-adv-x="302" 
d="M76 589h-60l105 153h60l106 -153h-62l-74 109z" />
    <glyph glyph-name="caron" unicode="&#x2c7;" horiz-adv-x="302" 
d="M16 742h60l75 -108l74 108h62l-106 -153h-60z" />
    <glyph glyph-name="uni02C9" unicode="&#x2c9;" horiz-adv-x="272" 
d="M16 689h241v-49h-241v49z" />
    <glyph glyph-name="breve" unicode="&#x2d8;" horiz-adv-x="291" 
d="M276 731q0 -50 -30.5 -89.5t-99.5 -40.5q-69 1 -99.5 40.5t-30.5 89.5h46q0 -28 21 -55t63 -27q40 0 61.5 27t21.5 55h47z" />
    <glyph glyph-name="dotaccent" unicode="&#x2d9;" horiz-adv-x="127" 
d="M64 714q19 0 33 -14.5t14 -33.5q0 -20 -14 -34t-33 -14q-20 0 -34 14t-14 34q0 19 14 33.5t34 14.5z" />
    <glyph glyph-name="ring" unicode="&#x2da;" horiz-adv-x="209" 
d="M105 759q36 0 62 -24t26 -60q0 -35 -26 -58t-62 -23t-62.5 23t-26.5 58q0 36 26.5 60t62.5 24zM105 633q18 0 31 12t13 30q0 19 -13 31.5t-31 12.5t-31 -12.5t-13 -31.5q0 -18 13 -30t31 -12z" />
    <glyph glyph-name="ogonek" unicode="&#x2db;" horiz-adv-x="216" 
d="M73 4h71q-27 -18 -50 -52t-23 -59q0 -30 16.5 -41.5t35.5 -11.5q16 0 29.5 5.5t25.5 15.5l22 -38q-13 -13 -34 -21.5t-46 -8.5q-45 0 -74.5 26.5t-29.5 69.5q0 30 15.5 62t41.5 53z" />
    <glyph glyph-name="tilde" unicode="&#x2dc;" 
d="M253 699h46q1 -52 -24 -71.5t-60 -19.5q-34 0 -60.5 24t-51.5 24q-13 0 -25 -10.5t-14 -33.5h-45q-2 53 23.5 72t59.5 19q42 0 64.5 -23.5t48.5 -23.5q13 0 24.5 10t13.5 33z" />
    <glyph glyph-name="hungarumlaut" unicode="&#x2dd;" horiz-adv-x="285" 
d="M199 742h70l-84 -153h-45zM76 742h69l-86 -153h-43z" />
    <glyph glyph-name="pi" unicode="&#x3c0;" horiz-adv-x="580" 
d="M115 0v435h-99v50h549v-50h-100v-435h-63v435h-224v-435h-63z" />
    <glyph glyph-name="dv_Candrabindu" unicode="&#x901;" horiz-adv-x="0" 
d="M219 874q-22 0 -37 15t-15 36q0 22 15 37t37 15t37.5 -15t15.5 -37q0 -21 -15.5 -36t-37.5 -15zM372 930l46 -28q-35 -66 -85.5 -99.5t-114.5 -33.5q-66 0 -116.5 33.5t-84.5 99.5l45 28q28 -56 67.5 -84t88.5 -28q48 0 86.5 28t67.5 84z" />
    <glyph glyph-name="dv_Anusvara" unicode="&#x902;" horiz-adv-x="0" 
d="M69 749q-22 0 -37 14.5t-15 36.5t15 37t37 15t37 -15t15 -37t-15 -36.5t-37 -14.5z" />
    <glyph glyph-name="dv_Visarga" unicode="&#x903;" horiz-adv-x="139" 
d="M69 419q-22 0 -37 15t-15 36q0 22 15 38t37 16t37 -16t15 -38q0 -21 -15 -36t-37 -15zM69 73q-22 0 -37 15t-15 37t15 37t37 15t37 -15t15 -37t-15 -37t-37 -15z" />
    <glyph glyph-name="dv_ShortA" unicode="&#x904;" horiz-adv-x="862" 
d="M486 179q0 -84 -58 -139.5t-171 -55.5q-60 0 -108.5 17.5t-79.5 39.5l12 58q34 -26 80.5 -42.5t98.5 -16.5q66 0 110.5 35t44.5 102q0 69 -42 108.5t-155 39.5h-63l-21 49h91q90 0 132.5 40t42.5 100q0 50 -30.5 87t-98.5 37q-51 0 -97 -18.5t-84 -48.5l-9 58
q32 26 84 45.5t109 19.5q108 0 152.5 -54t44.5 -123q0 -45 -24.5 -82.5t-63.5 -59.5h288v251h-119l-16 54h135v17q0 38 -24.5 63t-74.5 25h-19q-78 1 -125 39.5t-47 101.5v15l64 -15q0 -38 29 -60.5t74 -22.5h19q78 -1 125 -43.5t47 -102.5v-17h119l16 -54h-135v-642l-68 16
v324h-274q42 -24 65.5 -60t23.5 -85z" />
    <glyph glyph-name="dv_A" unicode="&#x905;" horiz-adv-x="862" 
d="M486 179q0 -84 -58 -139.5t-171 -55.5q-60 0 -108.5 17.5t-79.5 39.5l12 58q34 -26 80.5 -42.5t98.5 -16.5q66 0 110.5 35t44.5 102q0 69 -42 108.5t-155 39.5h-63l-21 49h91q90 0 132.5 40t42.5 100q0 50 -30.5 87t-98.5 37q-51 0 -97 -18.5t-84 -48.5l-9 58
q32 26 84 45.5t109 19.5q108 0 152.5 -54t44.5 -123q0 -45 -24.5 -82.5t-63.5 -59.5h288v251h-119l-16 54h322l16 -54h-135v-642l-68 16v324h-274q42 -24 65.5 -60t23.5 -85z" />
    <glyph glyph-name="dv_Aa" unicode="&#x906;" horiz-adv-x="1138" 
d="M671 0v324h-274q42 -24 65.5 -60t23.5 -85q0 -84 -58 -139.5t-171 -55.5q-60 0 -108.5 17.5t-79.5 39.5l12 58q34 -26 80.5 -42.5t98.5 -16.5q66 0 110.5 35t44.5 102q0 69 -42 108.5t-155 39.5h-63l-21 49h91q90 0 132.5 40t42.5 100q0 50 -30.5 87t-98.5 37
q-51 0 -97 -18.5t-84 -48.5l-9 58q32 26 84 45.5t109 19.5q108 0 152.5 -54t44.5 -123q0 -45 -24.5 -82.5t-63.5 -59.5h288v251h-119l-16 54h599l14 -54h-133v-642l-69 16v626h-208v-642z" />
    <glyph glyph-name="dv_I" unicode="&#x907;" horiz-adv-x="530" 
d="M183 50q22 -6 45 -9.5t45 -3.5q62 0 104 28.5t42 78.5q0 47 -33 78t-84 31h-95q-58 0 -106.5 38t-48.5 93q0 60 44.5 95.5t108.5 35.5h159v111h-361l-14 54h537l14 -54h-107v-168h-228q-39 0 -62 -21.5t-23 -52.5q0 -33 24 -54t63 -21h86q92 0 143.5 -42.5t51.5 -123.5
q0 -66 -56 -114t-159 -48q-17 0 -35 1.5t-35 4.5l101 -127l-44 -32l-128 164q-28 12 -57 39t-29 62q0 16 11 25.5t28 9.5q34 0 61 -23t37 -55z" />
    <glyph glyph-name="dv_Ii" unicode="&#x908;" horiz-adv-x="530" 
d="M183 50q22 -6 45 -9.5t45 -3.5q62 0 104 28.5t42 78.5q0 48 -33 78.5t-84 30.5h-95q-58 0 -106.5 38t-48.5 93q0 60 44.5 95.5t108.5 35.5h159v111h-361l-14 54h366q-27 22 -47 64t-20 77q0 53 34 95.5t94 42.5q42 0 69 -11.5t40 -21.5l-24 -42q-17 8 -34.5 16t-44.5 8
q-34 0 -53.5 -29.5t-19.5 -62.5q0 -40 24 -78.5t49 -57.5h104l14 -54h-107v-168h-228q-39 0 -62 -21.5t-23 -52.5q0 -33 24 -54t63 -21h86q92 0 143.5 -42.5t51.5 -123.5q0 -66 -56 -114t-159 -48q-17 0 -35 1.5t-35 4.5l101 -127l-44 -32l-128 164q-28 12 -57 39t-29 62
q0 16 11 25.5t28 9.5q34 0 61 -23t37 -55z" />
    <glyph glyph-name="dv_U" unicode="&#x909;" horiz-adv-x="543" 
d="M483 179q0 -84 -58 -139.5t-170 -55.5q-61 0 -109.5 17.5t-80.5 39.5l13 58q35 -26 81.5 -42.5t98.5 -16.5q65 0 109.5 35t44.5 102q0 69 -42 108.5t-155 39.5h-63l-21 49h92q89 0 131.5 40t42.5 100q0 37 -17.5 67.5t-51.5 44.5h-325l-14 54h550l15 -54h-128
q19 -21 31 -51t12 -58q0 -45 -30.5 -95t-93.5 -69q79 -21 108.5 -73t29.5 -101z" />
    <glyph glyph-name="dv_Uu" unicode="&#x90a;" horiz-adv-x="848" 
d="M483 179q0 -84 -58 -139.5t-170 -55.5q-61 0 -109.5 17.5t-80.5 39.5l13 58q35 -26 81.5 -42.5t98.5 -16.5q65 0 109.5 35t44.5 102q0 69 -42 108.5t-155 39.5h-63l-21 49h92q89 0 131.5 40t42.5 100q0 37 -17.5 67.5t-51.5 44.5h-325l-14 54h856l15 -54h-434
q19 -21 31 -51t12 -58q0 -45 -30.5 -95t-93.5 -69q31 -8 53 -19t38 -27q24 27 70.5 53.5t110.5 26.5q99 0 157.5 -58.5t58.5 -145.5q0 -95 -63.5 -149t-143.5 -54l-11 57q61 0 101.5 40.5t40.5 106.5q0 65 -40 105.5t-98 40.5q-55 0 -92 -23.5t-59 -49.5q8 -19 11.5 -40
t3.5 -38z" />
    <glyph glyph-name="dv_VocalicR" unicode="&#x90b;" horiz-adv-x="897" 
d="M589 87q22 -7 38 -9t41 -2q34 0 66 30t32 98q0 47 -19.5 86.5t-53.5 81.5q-18 -30 -72 -62.5t-123 -32.5h-39v-293l-68 16v251l-267 -143l-35 47l285 154q-69 83 -117.5 101t-91.5 18q-19 0 -44.5 -9t-47.5 -19l-25 54q21 11 58.5 19.5t55.5 8.5q49 0 108 -15.5
t121 -99.5v259h-388l-14 54h904l16 -54h-450v-295h20q81 0 122.5 31.5t56.5 56.5q-10 8 -18.5 25.5t-8.5 39.5q0 19 12 29.5t35 10.5q30 0 57 -18.5t27 -49.5q0 -12 -5.5 -24.5t-20.5 -25.5q49 -44 71.5 -108t22.5 -102q0 -70 -40 -123t-122 -53q-29 0 -49 3t-45 12z" />
    <glyph glyph-name="dv_VocalicL" unicode="&#x90c;" horiz-adv-x="872" 
d="M606 0q0 -38 26 -62.5t70 -24.5q16 0 28.5 3t28.5 8l10 -51q-18 -5 -37.5 -8.5t-40.5 -3.5q-55 0 -102 37t-47 102q0 63 44.5 99t95.5 40v138q0 65 -28 105t-84 40q-54 0 -81.5 -42.5t-27.5 -108.5v-115l-69 20v95q0 66 -29 107.5t-92 41.5q-49 0 -82.5 -35t-33.5 -79
q0 -79 29 -142.5t78 -162.5l-56 -19q-45 88 -82 166t-37 165q0 65 54.5 116t129.5 51q50 0 90 -21t64 -58q23 38 61 58.5t85 20.5q34 0 61.5 -10t49.5 -28v184h-679l-14 54h879l15 -54h-133v-539h-48q-44 0 -70 -24.5t-26 -62.5z" />
    <glyph glyph-name="dv_CandraE" unicode="&#x90d;" horiz-adv-x="676" 
d="M503 930l46 -28q-34 -66 -84.5 -99.5t-114.5 -33.5q-67 0 -117 33.5t-83 99.5l44 28q28 -56 67.5 -84t88.5 -28q48 0 86.5 28t66.5 84zM492 268v358h-295v-487q0 -30 10.5 -60.5t40.5 -49.5l264 -164l-36 -51l-252 150q-44 26 -69.5 65.5t-25.5 105.5v491h-126l-14 54
h684l14 -54h-126v-381q0 -67 -34.5 -105.5t-112.5 -63.5l-27 51q56 20 80.5 48t24.5 93z" />
    <glyph glyph-name="dv_ShortE" unicode="&#x90e;" horiz-adv-x="676" 
d="M284 843h103q78 0 126 -43t48 -103v-17h112l14 -54h-126v-381q0 -67 -34.5 -105.5t-112.5 -63.5l-27 51q56 20 80.5 48t24.5 93v358h-295v-487q0 -30 10.5 -60.5t40.5 -49.5l264 -164l-36 -51l-252 150q-44 26 -69.5 65.5t-25.5 105.5v491h-126l-14 54h503v17
q0 38 -25 63t-74 25h-104q-78 0 -125 39t-47 102v15l64 -15q0 -38 29 -60.5t74 -22.5z" />
    <glyph glyph-name="dv_E" unicode="&#x90f;" horiz-adv-x="676" 
d="M492 268v358h-295v-487q0 -30 11.5 -61t39.5 -49l264 -164l-36 -51l-252 150q-44 26 -69.5 65.5t-25.5 105.5v491h-126l-14 54h684l14 -54h-126v-381q0 -67 -34.5 -105.5t-112.5 -63.5l-27 51q56 20 80.5 48t24.5 93z" />
    <glyph glyph-name="dv_Ai" unicode="&#x910;" horiz-adv-x="676" 
d="M492 268v358h-295v-487q0 -30 11 -61t40 -49l264 -164l-36 -51l-252 150q-44 26 -69.5 65.5t-25.5 105.5v491h-126l-14 54h478l-244 224l57 37l263 -261h130l14 -54h-126v-381q0 -67 -34.5 -105.5t-112.5 -63.5l-27 51q56 20 80.5 48t24.5 93z" />
    <glyph glyph-name="dv_CandraO" unicode="&#x911;" horiz-adv-x="1138" 
d="M999 930l45 -28q-34 -66 -84 -99.5t-115 -33.5q-66 0 -116.5 33.5t-84.5 99.5l45 28q28 -56 67.5 -84t88.5 -28q48 0 86.5 28t67.5 84zM671 0v324h-274q42 -24 65.5 -60t23.5 -85q0 -84 -58 -139.5t-171 -55.5q-60 0 -108.5 17.5t-79.5 39.5l12 58q34 -26 80.5 -42.5
t98.5 -16.5q66 0 110.5 35t44.5 102q0 69 -42 108.5t-155 39.5h-63l-21 49h91q90 0 132.5 40t42.5 100q0 50 -30.5 87t-98.5 37q-51 0 -97 -18.5t-84 -48.5l-9 58q32 26 84 45.5t109 19.5q108 0 152.5 -54t44.5 -123q0 -45 -24.5 -82.5t-63.5 -59.5h288v251h-119l-16 54h599
l14 -54h-133v-642l-69 16v626h-208v-642z" />
    <glyph glyph-name="dv_ShortO" unicode="&#x912;" horiz-adv-x="1138" 
d="M779 843h65q77 0 124.5 -43t47.5 -103v-17h119l14 -54h-133v-642l-69 16v626h-208v-642l-68 16v324h-274q42 -24 65.5 -63t23.5 -88q0 -83 -58 -136t-171 -53q-60 0 -108.5 17.5t-79.5 39.5l12 58q34 -26 80.5 -42.5t98.5 -16.5q66 0 110.5 33t44.5 99q0 69 -42 111
t-155 42h-63l-21 49h91q90 0 132.5 37.5t42.5 98.5q0 49 -30.5 88.5t-98.5 39.5q-51 0 -97 -18.5t-84 -48.5l-9 58q32 26 84 45.5t109 19.5q108 0 152.5 -56.5t44.5 -125.5q0 -45 -24.5 -80t-63.5 -57h288v251h-119l-16 54h412v17q0 38 -25 63t-75 25h-65q-77 0 -124.5 39
t-47.5 102v15l64 -15q0 -38 29.5 -60.5t74.5 -22.5z" />
    <glyph glyph-name="dv_O" unicode="&#x913;" horiz-adv-x="1138" 
d="M536 680h389l-243 224l56 37l264 -261h133l14 -54h-133v-642l-69 16v626h-208v-642l-68 16v324h-274q42 -24 65.5 -60t23.5 -85q0 -84 -58 -139.5t-171 -55.5q-60 0 -108.5 17.5t-79.5 39.5l12 58q34 -26 80.5 -42.5t98.5 -16.5q66 0 110.5 35t44.5 102q0 69 -42 108.5
t-155 39.5h-63l-21 49h91q90 0 132.5 40t42.5 100q0 50 -30.5 87t-98.5 37q-51 0 -97 -18.5t-84 -48.5l-9 58q32 26 84 45.5t109 19.5q108 0 152.5 -54t44.5 -123q0 -45 -24.5 -82.5t-63.5 -59.5h288v251h-119z" />
    <glyph glyph-name="dv_Au" unicode="&#x914;" horiz-adv-x="1138" 
d="M1007 680h128l14 -54h-133v-642l-69 16v626h-208v-642l-68 16v324h-274q42 -24 65.5 -60t23.5 -85q0 -84 -58 -139.5t-171 -55.5q-60 0 -108.5 17.5t-79.5 39.5l12 58q34 -26 80.5 -42.5t98.5 -16.5q66 0 110.5 35t44.5 102q0 69 -42 108.5t-155 39.5h-63l-21 49h91
q90 0 132.5 40t42.5 100q0 50 -30.5 87t-98.5 37q-51 0 -97 -18.5t-84 -48.5l-9 58q32 26 84 45.5t109 19.5q108 0 152.5 -54t44.5 -123q0 -45 -24.5 -82.5t-63.5 -59.5h288v251h-119l-16 54h407l-42 45q-51 57 -89.5 69t-80.5 12h-85l-14 60h96q55 0 101.5 -15t102.5 -84
l-75 226l66 24z" />
    <glyph glyph-name="dv_Ka" unicode="&#x915;" horiz-adv-x="909" 
d="M273 453q-57 0 -99.5 -41t-42.5 -106t40 -106.5t102 -41.5t96 32.5t54 60.5v109q-20 28 -54 60.5t-96 32.5zM646 158q62 0 102.5 41.5t40.5 106.5t-43 106t-100 41q-66 0 -101.5 -37t-53.5 -64v-368l-68 16v163q-25 -22 -61 -41.5t-86 -19.5q-91 0 -156 54.5t-65 148.5
q0 87 60.5 146t160.5 59q50 0 86 -19.5t61 -42.5v178h-420l-14 54h918l14 -54h-430v-185q24 25 62 47t92 22q99 0 159 -59t60 -146q0 -94 -62.5 -148.5t-143.5 -54.5z" />
    <glyph glyph-name="dv_Kha" unicode="&#x916;" horiz-adv-x="904" 
d="M394 344q0 75 54 126t141 51q37 0 69 -10.5t56 -29.5v145h-426q28 -30 42.5 -72.5t14.5 -86.5q0 -72 -45.5 -129t-120.5 -73q4 -73 77.5 -148.5t183.5 -75.5q103 0 173.5 50.5t91.5 114.5q-24 -19 -53.5 -29.5t-62.5 -10.5q-78 0 -136.5 47t-58.5 131zM464 344
q0 -57 35.5 -90.5t89.5 -33.5t89.5 33t35.5 90v6q-2 54 -37.5 86.5t-87.5 32.5q-51 0 -88 -33.5t-37 -90.5zM782 -16l-68 16v106q-43 -52 -113.5 -87t-160.5 -35q-149 0 -234 88.5t-89 187.5h-39q-15 0 -23 10t-8 24q0 31 27.5 64t69.5 33q13 0 20 -11.5t7 -28.5v-27
q46 11 76 48t30 95q0 47 -22 93.5t-59 65.5h-193l-14 54h912l14 -54h-133v-642z" />
    <glyph glyph-name="dv_Ga" unicode="&#x917;" horiz-adv-x="610" 
d="M421 0v626h-229v-401q0 -19 -7 -31t-21 -12q-46 0 -77 35t-31 70q0 16 9.5 25.5t22.5 9.5h35v304h-120l-14 54h618l15 -54h-133v-642z" />
    <glyph glyph-name="dv_Gha" unicode="&#x918;" horiz-adv-x="701" 
d="M512 0v213q-32 -54 -86.5 -90t-143.5 -36q-96 0 -150.5 51.5t-54.5 117.5q0 52 25 95t73 54q-40 13 -63.5 50t-23.5 83q0 24 10.5 47.5t26.5 40.5h-122l-14 54h709l15 -54h-134v-642zM512 626h-289q-33 -10 -49 -34.5t-16 -54.5q0 -49 34 -79t105 -30h35l21 -48h-50
q-90 0 -122.5 -38t-32.5 -87q0 -44 39 -76t98 -32q99 0 163 71.5t64 228.5v179z" />
    <glyph glyph-name="dv_Nga" unicode="&#x919;" horiz-adv-x="577" 
d="M536 321q-21 0 -36 15t-15 36q0 22 15 38t36 16q22 0 37.5 -16t15.5 -38q0 -21 -15.5 -36t-37.5 -15zM76 97q36 -25 90 -42.5t107 -17.5q62 0 104 28.5t42 78.5q0 48 -33 78.5t-84 30.5h-95q-58 0 -106.5 38t-48.5 93q0 60 44.5 95.5t108.5 35.5h159v111h-361l-14 54h585
l15 -54h-156v-168h-228q-39 0 -62 -21.5t-23 -52.5q0 -33 24 -54t63 -21h86q92 0 143.5 -42.5t51.5 -123.5q0 -66 -56 -114t-159 -48q-61 0 -120.5 18t-88.5 39z" />
    <glyph glyph-name="dv_Ca" unicode="&#x91a;" horiz-adv-x="703" 
d="M513 0v151q-27 -23 -63.5 -34.5t-82.5 -11.5q-91 0 -152.5 47.5t-61.5 139.5q0 42 15.5 74.5t40.5 55.5h-154l-14 59h378l18 -59h-53q-83 -1 -123 -36t-40 -94q0 -60 40 -95t106 -35q62 0 104 31t42 85v348h-510l-14 54h711l14 -54h-133v-642z" />
    <glyph glyph-name="dv_Cha" unicode="&#x91b;" horiz-adv-x="811" 
d="M752 407q0 -110 -105 -266.5t-309 -156.5q-113 0 -190 50t-77 148q0 49 30 103t108 73q-64 19 -94 68t-30 93q0 30 11.5 58t30.5 49h-122l-16 54h817l16 -54h-172v-72q51 -14 76.5 -57t25.5 -90zM142 180q0 -73 63.5 -106.5t133.5 -33.5q107 0 188.5 64t106.5 141
q-61 0 -117 47t-56 115q0 64 38.5 106t92.5 47v66h-367q-34 -14 -51.5 -43t-17.5 -65q0 -61 43 -99t133 -38h28l21 -49h-42q-104 0 -150.5 -41.5t-46.5 -110.5zM661 289q13 26 21 55t8 59q0 38 -19 69t-65 31q-39 0 -60.5 -28t-21.5 -68q0 -51 45 -83.5t92 -34.5z" />
    <glyph glyph-name="dv_Ja" unicode="&#x91c;" horiz-adv-x="747" 
d="M557 402h-191q23 -24 36.5 -57t13.5 -73q0 -92 -62 -139.5t-154 -47.5q-60 0 -108.5 17t-80.5 39l13 58q35 -26 80 -42.5t96 -16.5q66 0 106.5 35.5t40.5 96.5q0 63 -40.5 96.5t-106.5 33.5h-53l-18 59h428v165h-554l-14 54h754l15 -54h-134v-642l-67 16v402z" />
    <glyph glyph-name="dv_Jha" unicode="&#x91d;" horiz-adv-x="846" 
d="M656 626h-223v-168h-228q-39 0 -62 -21.5t-23 -52.5q0 -33 24 -54t63 -21h86q51 0 90 -13.5t64 -38.5h209v369zM183 50q22 -6 45 -9.5t45 -3.5q62 0 104 28.5t42 78.5q0 48 -33 78.5t-84 30.5h-95q-58 0 -106.5 38t-48.5 93q0 60 44.5 95.5t108.5 35.5h159v111h-361
l-14 54h854l14 -54h-133v-642l-68 16v203h-177q4 -13 6.5 -28.5t2.5 -31.5q0 -66 -56 -114t-159 -48q-17 0 -35 1.5t-35 4.5l101 -127l-44 -32l-128 164q-28 12 -57 39t-29 62q0 16 11 25.5t28 9.5q34 0 61 -23t37 -55z" />
    <glyph glyph-name="dv_Nya" unicode="&#x91e;" horiz-adv-x="746" 
d="M414 272q-9 -90 -69 -134.5t-145 -44.5q-60 0 -108.5 17.5t-80.5 39.5l13 59q35 -27 80 -43t96 -16q66 0 106 39.5t40 112.5t-40 112.5t-106 39.5q-25 0 -52 -4.5t-49 -11.5l-14 54q25 8 54.5 13t60.5 5q86 0 146 -45.5t68 -139.5h142v301h-553l-14 54h753l15 -54h-133
v-642l-68 16v272h-142z" />
    <glyph glyph-name="dv_Tta" unicode="&#x91f;" horiz-adv-x="625" 
d="M132 227q0 -109 67.5 -147.5t160.5 -38.5q55 0 104.5 15t95.5 48l8 -63q-38 -29 -93 -44t-115 -15q-115 0 -207.5 52t-92.5 193q0 124 90.5 186t221.5 62h56v151h-425l-14 54h633l14 -54h-139v-210h-125q-103 0 -171.5 -46.5t-68.5 -142.5z" />
    <glyph glyph-name="dv_Ttha" unicode="&#x920;" horiz-adv-x="716" 
d="M360 -18q-114 0 -206.5 52t-92.5 193q0 113 77.5 174t183.5 71v154h-319l-14 54h724l14 -54h-337v-153q106 -6 187.5 -59.5t81.5 -184.5q0 -126 -90 -186.5t-209 -60.5zM132 227q0 -109 67.5 -147.5t160.5 -38.5t161 46t68 142q0 108 -68 147.5t-161 39.5
q-91 0 -159.5 -46.5t-68.5 -142.5z" />
    <glyph glyph-name="dv_Dda" unicode="&#x921;" horiz-adv-x="530" 
d="M76 97q36 -25 90 -42.5t107 -17.5q62 0 104 28.5t42 78.5q0 48 -33 78.5t-84 30.5h-95q-58 0 -106.5 38t-48.5 93q0 60 44.5 95.5t108.5 35.5h159v111h-361l-14 54h537l14 -54h-107v-168h-228q-39 0 -62 -21.5t-23 -52.5q0 -33 24 -54t63 -21h86q92 0 143.5 -42.5
t51.5 -123.5q0 -66 -56 -114t-159 -48q-61 0 -120.5 18t-88.5 39z" />
    <glyph glyph-name="dv_Ddha" unicode="&#x922;" horiz-adv-x="626" 
d="M497 626v-188h-125q-103 0 -171.5 -52t-68.5 -147q0 -104 62 -149t150 -49q-23 19 -38.5 46.5t-15.5 57.5q0 58 39.5 100.5t105.5 42.5q67 0 107 -37t40 -97q0 -72 -62.5 -122t-159.5 -50q-115 0 -207.5 58t-92.5 199q0 122 90.5 190.5t221.5 68.5h56v128h-425l-14 54
h634l15 -54h-141zM440 227q-34 0 -59 -21t-25 -61q0 -31 17.5 -57t48.5 -40q51 11 74 40.5t23 63.5q0 32 -21 53.5t-58 21.5z" />
    <glyph glyph-name="dv_Nna" unicode="&#x923;" horiz-adv-x="857" 
d="M469 387q0 -99 -49 -154t-134 -55q-84 0 -133.5 55t-49.5 154v239h-100l-14 54h865l15 -54h-133v-642l-68 16v626h-199v-239zM170 626v-239q0 -68 27 -109.5t91 -41.5q61 0 87.5 42t26.5 109v239h-232z" />
    <glyph glyph-name="dv_Ta" unicode="&#x924;" horiz-adv-x="673" 
d="M484 0v393h-208q-68 0 -102 -26.5t-34 -78.5q0 -61 50 -142t90 -144l-57 -20q-50 72 -101 155.5t-51 154.5q0 66 45 111t125 45h243v178h-481l-14 54h681l15 -54h-133v-642z" />
    <glyph glyph-name="dv_Tha" unicode="&#x925;" horiz-adv-x="666" 
d="M251 544q-13 -20 -38.5 -35.5t-55.5 -15.5q-43 0 -77.5 26.5t-34.5 69.5q0 45 32 75t83 30q53 0 102 -48t49 -120q0 -92 -44 -128t-91 -60q10 -43 54 -72.5t99 -29.5q69 0 107.5 40t38.5 111v239h-52l-14 54h254l14 -54h-133v-642l-69 16v231q-26 -25 -63 -39t-83 -14
q-88 0 -153 56.5t-65 128.5l12 14q32 9 81 38.5t49 101.5q0 7 -0.5 13.5t-1.5 13.5zM230 601q-12 18 -29.5 28.5t-38.5 10.5t-39 -12.5t-18 -38.5q0 -23 17 -35t38 -12q31 0 47 18.5t23 40.5z" />
    <glyph glyph-name="dv_Da" unicode="&#x926;" horiz-adv-x="593" 
d="M538 -12l-52 -31l-72 133q-19 -4 -38.5 -5.5t-38.5 -1.5q-104 0 -191 55.5t-87 174.5q0 107 83 166.5t207 59.5h44v87h-390l-14 54h599l15 -54h-141v-145h-113q-94 0 -156 -45.5t-62 -122.5q0 -86 61 -128t145 -42q13 0 25 1t25 2q-2 8 -4 18.5t-2 21.5q0 20 13 32.5
t34 12.5q22 0 50.5 -17t28.5 -45q0 -14 -9.5 -30t-28.5 -31z" />
    <glyph glyph-name="dv_Dha" unicode="&#x927;" horiz-adv-x="726" 
d="M268 637q-46 0 -76.5 -27.5t-30.5 -72.5q0 -49 33.5 -79t104.5 -30h36l21 -48h-52q-89 0 -121.5 -38t-32.5 -87t45 -78.5t103 -29.5q99 0 168.5 71.5t69.5 228.5v179h-66l-14 54h266l15 -54h-133v-642l-68 16v213q-30 -54 -91 -90t-150 -36q-96 0 -155.5 47t-59.5 122
q0 52 24.5 95t73.5 54q-40 13 -64 50t-24 83q0 63 47 109.5t128 46.5q47 0 84.5 -18.5t48.5 -34.5l-30 -41q-15 16 -40.5 26.5t-59.5 10.5z" />
    <glyph glyph-name="dv_Na" unicode="&#x928;" horiz-adv-x="596" 
d="M405 330h-231v-44q0 -21 -7.5 -33t-21.5 -12q-43 0 -75.5 34.5t-32.5 68.5q0 15 8 26t26 11h334v245h-402l-14 54h604l14 -54h-133v-642l-69 16v330z" />
    <glyph glyph-name="dv_Nnna" unicode="&#x929;" horiz-adv-x="596" 
d="M405 330h-231v-44q0 -21 -7.5 -33t-21.5 -12q-48 0 -81 40t-26 75q2 10 11 17.5t22 7.5h334v245h-402l-14 54h604l14 -54h-133v-642l-69 16v330zM145 -19q-21 0 -37 15.5t-16 36.5q0 22 16 37t37 15q22 0 37 -15t15 -37q0 -21 -15 -36.5t-37 -15.5z" />
    <glyph glyph-name="dv_Pa" unicode="&#x92a;" horiz-adv-x="650" 
d="M460 0v231q-26 -25 -64.5 -39t-84.5 -14q-94 0 -150.5 55t-56.5 154v239h-101l-14 54h657l15 -54h-133v-642zM460 387v239h-289v-239q0 -69 36 -110t109 -41q69 0 106.5 40t37.5 111z" />
    <glyph glyph-name="dv_Pha" unicode="&#x92b;" horiz-adv-x="944" 
d="M459 387v239h-289v-239q0 -69 36.5 -110t109.5 -41q69 0 106 40t37 111zM682 141q61 0 101.5 41.5t40.5 106.5q-1 65 -43 105.5t-99 40.5q-66 0 -101 -35t-53 -63v-353l-69 16v231q-26 -25 -64.5 -39t-84.5 -14q-93 0 -150 55t-57 154v239h-100l-14 54h952l15 -54h-428
v-200q24 24 61 45.5t91 21.5q99 0 159 -59t60 -146q0 -94 -63.5 -148.5t-142.5 -54.5z" />
    <glyph glyph-name="dv_Ba" unicode="&#x92c;" horiz-adv-x="612" 
d="M423 0v163q-25 -22 -61 -41.5t-86 -19.5q-91 0 -156 54.5t-65 148.5q0 87 60.5 146t160.5 59q50 0 86 -19.5t61 -42.5v178h-420l-14 54h620l15 -54h-133v-642zM423 360q-20 28 -54 60.5t-96 32.5q-21 0 -40.5 -6t-35.5 -17l192 -221q10 10 18.5 21t15.5 21v109zM160 397
q-13 -19 -21 -41.5t-8 -49.5q0 -65 40 -106.5t102 -41.5q23 0 42.5 6t35.5 15z" />
    <glyph glyph-name="dv_Bha" unicode="&#x92d;" horiz-adv-x="712" 
d="M522 0v270h-246v-45q0 -19 -7 -31t-21 -12q-48 0 -80.5 40t-27.5 74q2 10 11 18t22 8h35v177q-15 -10 -32.5 -14t-29.5 -4q-51 0 -81.5 30t-30.5 79q0 46 34.5 75t80.5 29q60 0 93.5 -44t33.5 -116v-212h246v304h-133l-15 54h334l15 -54h-133v-642zM97 583q0 -23 16 -37
t37 -14q13 0 28.5 6t28.5 16q-1 38 -16 59.5t-43 21.5q-21 0 -36 -13.5t-15 -38.5z" />
    <glyph glyph-name="dv_Ma" unicode="&#x92e;" horiz-adv-x="650" 
d="M461 270h-269v-45q0 -19 -7 -31t-21 -12q-49 0 -81.5 40t-25.5 74q1 10 10 18t21 8h35v304h-120l-14 54h658l15 -54h-133v-642l-68 16v270zM461 626h-269v-304h269v304z" />
    <glyph glyph-name="dv_Ya" unicode="&#x92f;" horiz-adv-x="620" 
d="M78 377q31 9 56.5 46.5t25.5 92.5q0 42 -21.5 70t-58.5 40h-77l-14 54h628l15 -54h-134v-642l-68 16v231q-26 -25 -63 -39t-83 -14q-88 0 -153 56.5t-65 128.5zM430 626h-250q19 -16 31.5 -45.5t12.5 -70.5q0 -48 -22.5 -95t-69.5 -71q10 -42 53 -73.5t99 -34.5
q69 0 107.5 40t38.5 111v239z" />
    <glyph glyph-name="dv_Ra" unicode="&#x930;" horiz-adv-x="435" 
d="M132 260h-41q-11 0 -19.5 7.5t-10.5 17.5q-5 31 18.5 68.5t59.5 37.5q13 0 21.5 -12t15.5 -28l12 -27q46 11 76 48t30 95q0 47 -22.5 93.5t-58.5 65.5h-210l-14 54h442l16 -54h-138q28 -30 42.5 -72.5t14.5 -86.5q0 -74 -47.5 -130.5t-123.5 -72.5l165 -264l-70 -18z" />
    <glyph glyph-name="dv_Rra" unicode="&#x931;" horiz-adv-x="435" 
d="M132 260h-41q-11 0 -19.5 7.5t-10.5 17.5q-5 31 18.5 68.5t59.5 37.5q13 0 21.5 -12t15.5 -28l12 -27q46 11 76 48t30 95q0 47 -22.5 93.5t-58.5 65.5h-210l-14 54h442l16 -54h-138q28 -30 42.5 -72.5t14.5 -86.5q0 -74 -47.5 -130.5t-123.5 -72.5l165 -264l-70 -18z
M94 -19q-21 0 -36.5 15.5t-15.5 36.5q0 22 15.5 37t36.5 15q22 0 37.5 -15t15.5 -37q0 -21 -15.5 -36.5t-37.5 -15.5z" />
    <glyph glyph-name="dv_La" unicode="&#x932;" horiz-adv-x="872" 
d="M682 0v277q-1 65 -28.5 105t-83.5 40q-54 0 -81.5 -42.5t-27.5 -108.5v-115l-68 20l-1 95q0 66 -29 107t-92 42q-49 0 -82.5 -35t-33.5 -79q0 -79 29 -142.5t78 -162.5l-56 -19q-45 88 -82 166t-37 165q0 65 54.5 115.5t129.5 51.5q50 -1 90 -21.5t64 -57.5
q23 38 61 58.5t85 20.5q34 0 61.5 -10t49.5 -28v184h-679l-14 54h879l15 -54h-133v-642z" />
    <glyph glyph-name="dv_Lla" unicode="&#x933;" horiz-adv-x="898" 
d="M858 280q0 -95 -63 -161.5t-150 -66.5q-59 0 -109 32t-83 92q-29 -51 -71 -87.5t-106 -36.5q-98 0 -157.5 60.5t-59.5 156.5q0 95 59.5 162t155.5 67q61 0 111.5 -33.5t87.5 -85.5q22 43 57 75.5t86 40.5v131h-613l-14 54h906l14 -54h-225v-131q77 -12 125.5 -70.5
t48.5 -144.5zM792 283q0 63 -37.5 111t-109.5 48q-68 0 -99 -56.5t-51 -115.5l-16 -40q27 -54 73.5 -89t92.5 -35q66 0 106.5 53t40.5 124zM276 109q67 0 104.5 56t54.5 113q1 10 5 21.5t8 21.5q-28 51 -71 84.5t-101 34.5q-72 0 -111.5 -52t-39.5 -121q0 -63 39.5 -110.5
t111.5 -47.5z" />
    <glyph glyph-name="dv_Llla" unicode="&#x934;" horiz-adv-x="898" 
d="M858 280q0 -95 -63 -161.5t-150 -66.5q-59 0 -109 32t-83 92q-29 -51 -71 -87.5t-106 -36.5q-98 0 -157.5 60.5t-59.5 156.5q0 95 59.5 162t155.5 67q61 0 111.5 -33.5t87.5 -85.5q22 43 57 75.5t86 40.5v131h-613l-14 54h906l14 -54h-225v-131q77 -12 125.5 -70.5
t48.5 -144.5zM792 283q0 63 -37.5 111t-109.5 48q-68 0 -99 -56.5t-51 -115.5l-16 -40q27 -54 73.5 -89t92.5 -35q66 0 106.5 53t40.5 124zM276 109q67 0 104.5 56t54.5 113q1 10 5 21.5t8 21.5q-28 51 -71 84.5t-101 34.5q-72 0 -111.5 -52t-39.5 -121q0 -63 39.5 -110.5
t111.5 -47.5zM452 -87q-22 0 -37 15t-15 36q0 22 15 37.5t37 15.5t36.5 -15.5t14.5 -37.5q0 -21 -14.5 -36t-36.5 -15z" />
    <glyph glyph-name="dv_Va" unicode="&#x935;" horiz-adv-x="612" 
d="M423 0v163q-25 -22 -61 -41.5t-86 -19.5q-91 0 -156 54.5t-65 148.5q0 87 60.5 146t160.5 59q50 0 86 -19.5t61 -42.5v178h-420l-14 54h620l15 -54h-133v-642zM273 453q-57 0 -99 -41t-43 -106q0 -65 40 -106.5t102 -41.5t96 32.5t54 60.5v109q-20 28 -54 60.5t-96 32.5z
" />
    <glyph glyph-name="dv_Sha" unicode="&#x936;" horiz-adv-x="771" 
d="M581 0v626h-120l-14 54h320l15 -54h-132v-642zM120 579q0 -23 15 -34t37 -11q40 0 64 30.5t28 64.5q-13 7 -28 10.5t-32 3.5q-37 0 -60.5 -19t-23.5 -45zM136 262h-39q-11 0 -19.5 7.5t-10.5 18.5q-6 31 18 68.5t59 37.5q13 0 22.5 -12t15.5 -29l10 -32q56 0 105 39.5
t49 116.5q0 28 -9.5 61t-32.5 60q-7 -40 -43 -76t-92 -36q-44 0 -78 26.5t-34 69.5q0 46 43.5 79t106.5 33q96 0 151 -65t55 -154q-1 -93 -65 -147.5t-147 -60.5h-1l188 -267l-72 -18z" />
    <glyph glyph-name="dv_Ssa" unicode="&#x937;" horiz-adv-x="654" 
d="M464 0v231q-26 -25 -66.5 -39t-86.5 -14q-94 0 -150.5 55t-56.5 154v239h-101l-14 54h662l15 -54h-134v-642zM464 387v239h-247l243 -282q2 10 3 20.5t1 22.5zM171 387q0 -69 36 -110t109 -41q40 0 70.5 14t48.5 39l-264 308v-210z" />
    <glyph glyph-name="dv_Sa" unicode="&#x938;" horiz-adv-x="761" 
d="M570 626h-261q28 -30 42.5 -72.5t14.5 -86.5q0 -33 -9.5 -62t-27.5 -54h241v275zM132 260h-41q-11 0 -19.5 7.5t-10.5 17.5q-5 31 18.5 68.5t59.5 37.5q13 0 21.5 -12t15.5 -28l12 -27q46 11 76 48t30 95q0 47 -22.5 93.5t-58.5 65.5h-210l-14 54h768l14 -54h-132v-642
l-69 16v299h-292q-17 -12 -38.5 -21.5t-44.5 -13.5l165 -264l-70 -18z" />
    <glyph glyph-name="dv_Ha" unicode="&#x939;" horiz-adv-x="536" 
d="M423 236q0 37 -36.5 65.5t-96.5 28.5t-99.5 -37t-39.5 -88q0 -81 76.5 -120.5t148.5 -45.5l-15 -55q-106 6 -191 64t-85 157q0 45 16 79.5t44 56.5q-22 15 -36.5 38t-14.5 54q1 54 35.5 83t98.5 29h147v81h-372l-14 54h543l15 -54h-105v-138h-212q-32 0 -50.5 -14
t-19.5 -40q0 -20 13 -37t34 -24q19 7 41 10t44 3q87 0 142 -43t55 -102q0 -33 -13.5 -67t-39.5 -51l-50 35q20 18 28.5 36.5t8.5 41.5z" />
    <glyph glyph-name="dv_MatraOe" unicode="&#x93a;" horiz-adv-x="0" 
d="M-36 881v-201h-63v217z" />
    <glyph glyph-name="dv_MatraOoe" unicode="&#x93b;" 
d="M189 881v-201h120l16 -54h-134v-642l-68 16v626h-120l-14 54h137v217z" />
    <glyph glyph-name="dv_Nukta" unicode="&#x93c;" horiz-adv-x="0" 
d="M69 -155q-22 0 -37 15t-15 36q0 22 15 37t37 15t37 -15t15 -37q0 -21 -15 -36t-37 -15z" />
    <glyph glyph-name="dv_Avagraha" unicode="&#x93d;" horiz-adv-x="530" 
d="M69 91q35 -25 88.5 -39.5t104.5 -14.5q59 0 98 31.5t39 90.5q0 63 -54.5 144t-112.5 147l-159 180v50h385l12 -50h-328l125 -138q61 -68 129.5 -160t68.5 -173q0 -75 -57 -126.5t-164 -51.5q-43 0 -99 14t-105 42z" />
    <glyph glyph-name="dv_MatraAa" unicode="&#x93e;" 
d="M123 0v626h-120l-14 54h320l16 -54h-134v-642z" />
    <glyph glyph-name="dv_MatraI" unicode="&#x93f;" 
d="M750 716q-75 51 -205.5 110t-249.5 59q-68 0 -108 -33t-40 -82q0 -34 14.5 -57t24.5 -33h123l16 -54h-134v-642l-68 16v626h-120l-14 54h120l-17.5 35t-10.5 55q0 74 58 122.5t154 48.5q135 0 279.5 -67.5t204.5 -114.5z" />
    <glyph glyph-name="dv_MatraIi" unicode="&#x940;" 
d="M-134 731l-51 -23q-13 22 -24 48t-11 56q0 55 41.5 92t101.5 37q108 0 171.5 -93t86.5 -168h124l16 -54h-133v-642l-68 16v626h-121l-15 54h128q-13 43 -58.5 124t-130.5 81q-41 0 -61.5 -23t-20.5 -51q0 -19 6.5 -37.5t18.5 -42.5z" />
    <glyph glyph-name="dv_MatraU" unicode="&#x941;" horiz-adv-x="0" 
d="M-342 -109q52 -61 96.5 -98t105.5 -37q46 0 70.5 24.5t24.5 62.5t-26 62t-69 24h-48v53h59q54 0 98.5 -37t44.5 -102t-46 -102t-109 -37q-69 0 -131.5 42.5t-110.5 117.5z" />
    <glyph glyph-name="dv_MatraUu" unicode="&#x942;" horiz-adv-x="0" 
d="M64 -207q-54 63 -97.5 99.5t-105.5 36.5q-46 0 -70 -24t-24 -61q0 -39 25.5 -64t68.5 -25h49v-51h-59q-53 0 -98 37t-45 103q0 63 45.5 100.5t109.5 37.5q69 0 131.5 -43.5t110.5 -117.5z" />
    <glyph glyph-name="dv_MatraVocalicR" unicode="&#x943;" horiz-adv-x="0" 
d="M-262 -157q0 -38 26 -63t69 -25q16 0 29 3.5t27 7.5l11 -51q-17 -5 -37.5 -8t-40.5 -3q-56 0 -99.5 37t-43.5 102t45.5 102t97.5 37h59v-53h-48q-43 0 -69 -24t-26 -62z" />
    <glyph glyph-name="dv_MatraVocalicRr" unicode="&#x944;" horiz-adv-x="0" 
d="M-225 -156q-12 4 -26 20.5t-14 35.5q0 46 32.5 64t67.5 18h41l1 -44h-23q-19 0 -37.5 -9.5t-18.5 -28.5q0 -18 18.5 -27t37.5 -9h24l-24 -40q-25 0 -43 -9.5t-18 -28.5q0 -18 15 -27t46 -9h23l-22 -43h-20q-35 0 -67.5 17.5t-32.5 61.5q0 19 12 35t28 23z" />
    <glyph glyph-name="dv_MatraCandraE" unicode="&#x945;" horiz-adv-x="0" 
d="M372 930l46 -28q-35 -66 -85.5 -99.5t-114.5 -33.5q-66 0 -116.5 33.5t-84.5 99.5l45 28q28 -56 67.5 -84t88.5 -28q48 0 86.5 28t67.5 84z" />
    <glyph glyph-name="dv_MatraShortE" unicode="&#x946;" horiz-adv-x="0" 
d="M-389 926q0 -38 29.5 -60.5t73.5 -22.5q78 -1 125.5 -43.5t47.5 -102.5v-41h-68v41q0 38 -25 63t-75 25q-78 1 -125 39.5t-47 101.5v15z" />
    <glyph glyph-name="dv_MatraE" unicode="&#x947;" horiz-adv-x="0" 
d="M-105 650h-74l-276 254l56 37z" />
    <glyph glyph-name="dv_MatraAi" unicode="&#x948;" horiz-adv-x="0" 
d="M-127 680h-64l-42 45q-51 57 -89.5 69t-80.5 12h-85l-14 60h96q55 0 101.5 -15t102.5 -84l-75 226l66 24z" />
    <glyph glyph-name="dv_MatraCandraO" unicode="&#x949;" 
d="M311 930l45 -28q-34 -66 -84 -99.5t-116 -33.5q-65 0 -115 33.5t-84 99.5l45 28q28 -56 66.5 -84t87.5 -28q50 0 88.5 28t66.5 84zM123 0v626h-120l-14 54h320l16 -54h-134v-642z" />
    <glyph glyph-name="dv_MatraShortO" unicode="&#x94a;" 
d="M-85 926q0 -38 28.5 -60.5t73.5 -22.5q79 -1 126.5 -43.5t47.5 -102.5v-17h118l16 -54h-134v-642l-68 16v626h-120l-14 54h134v17q0 38 -25 63t-74 25q-78 1 -126 39.5t-48 101.5v15z" />
    <glyph glyph-name="dv_MatraO" unicode="&#x94b;" 
d="M-11 680h122l-244 224l57 37l264 -261h121l16 -54h-134v-642l-68 16v626h-120z" />
    <glyph glyph-name="dv_MatraAu" unicode="&#x94c;" 
d="M184 680h125l16 -54h-134v-642l-68 16v626h-120l-14 54h131l-42 45q-51 57 -89 69t-81 12h-85l-13 60h95q56 0 102.5 -15t101.5 -84l-74 226l65 24z" />
    <glyph glyph-name="dv_Halant" unicode="&#x94d;" horiz-adv-x="0" 
d="M-41 -298l-204 183l52 48l193 -194z" />
    <glyph glyph-name="dv_PrishtaMatraE" unicode="&#x94e;" horiz-adv-x="309" 
d="M120 0v680h185l16 -54h-133v-642z" />
    <glyph glyph-name="dv_MatraAw" unicode="&#x94f;" 
d="M-35 785h93q21 -1 37.5 -2.5t29.5 -4.5q-4 20 -15 32.5t-36 12.5q-78 1 -102.5 36.5t-24.5 98.5v15l59 -15q0 -37 15 -59.5t46 -22.5q73 0 98.5 -43t25.5 -104l-1 -49h119l16 -54h-134v-642l-68 16v626h-120l-14 54h139q0 31 -10 41t-56 10h-91q-78 1 -125 36.5t-47 98.5
v14l58 -14q0 -38 32 -59.5t76 -21.5z" />
    <glyph glyph-name="dv_Om" unicode="&#x950;" horiz-adv-x="853" 
d="M602 767q-22 0 -36.5 15t-14.5 37t14.5 37.5t36.5 15.5t37.5 -15.5t15.5 -37.5t-15.5 -37t-37.5 -15zM755 824l44 -28q-34 -67 -84 -100t-115 -33q-66 0 -116 33t-84 100l45 28q28 -56 67 -83.5t88 -27.5t87.5 27.5t67.5 83.5zM274 694q108 0 152.5 -54t44.5 -123
q0 -45 -29.5 -95t-92.5 -69q29 -8 52 -19t38 -27q23 27 70 53.5t112 26.5q99 0 157 -58.5t58 -145.5q0 -95 -63.5 -149t-143.5 -54l-12 57q62 0 102.5 40.5t40.5 106.5q-1 65 -40.5 105.5t-96.5 40.5q-55 0 -93 -23.5t-60 -49.5q9 -19 12.5 -40t3.5 -38q0 -84 -58 -139.5
t-171 -55.5q-60 0 -108.5 17.5t-79.5 39.5l12 58q34 -26 80.5 -42t98.5 -17q66 -1 110.5 34.5t44.5 102.5q0 69 -42 108.5t-155 39.5h-63l-21 49h91q90 0 132.5 40t42.5 100q0 50 -30.5 87t-98.5 37q-51 0 -97 -18.5t-84 -48.5l-9 58q32 26 84 45.5t109 19.5z" />
    <glyph glyph-name="dv_Udatta" unicode="&#x951;" horiz-adv-x="0" 
d="M72 759h-44l-11 180h67z" />
    <glyph glyph-name="dv_Anudatta" unicode="&#x952;" horiz-adv-x="0" 
d="M566 -140h-535l-14 53h535z" />
    <glyph glyph-name="dv_Graveaccent" unicode="&#x953;" horiz-adv-x="0" 
d="M154 759h-44l-93 180h79z" />
    <glyph glyph-name="dv_Acuteaccent" unicode="&#x954;" horiz-adv-x="0" 
d="M154 939l-94 -180h-43l58 180h79z" />
    <glyph glyph-name="dv_MatraCandraLongE" unicode="&#x955;" horiz-adv-x="0" 
d="M376 964l45 -28q-34 -66 -84 -99t-115 -33q-66 0 -116.5 33t-84.5 99l45 28q28 -55 67.5 -83.5t88.5 -28.5t87 28.5t67 83.5zM430 726h-401l-12 45h402z" />
    <glyph glyph-name="dv_MatraUe" unicode="&#x956;" horiz-adv-x="0" 
d="M372 -39l46 -28q-35 -66 -85.5 -98.5t-114.5 -32.5q-66 0 -116.5 32.5t-84.5 98.5l45 28q28 -55 67.5 -83.5t88.5 -28.5q48 0 86.5 28.5t67.5 83.5z" />
    <glyph glyph-name="dv_MatraUue" unicode="&#x957;" horiz-adv-x="0" 
d="M418 -39l45 -28q-34 -66 -95.5 -89t-105.5 -23q-45 0 -105.5 23t-94.5 89l45 28q28 -55 77 -73.5t78 -18.5q31 0 78.5 18.5t77.5 73.5zM457 -130l45 -28q-45 -66 -109.5 -90t-130.5 -24t-131 25.5t-114 88.5l45 28q36 -49 93.5 -72t106.5 -23q48 0 104 21.5t91 73.5z" />
    <glyph glyph-name="dv_Qa" unicode="&#x958;" horiz-adv-x="909" 
d="M273 453q-57 0 -99 -41t-43 -106q0 -65 40 -106.5t102 -41.5t96 32.5t54 60.5v109q-20 28 -54 60.5t-96 32.5zM646 158q62 0 102.5 41.5t40.5 106.5q-1 65 -43.5 106t-99.5 41q-66 0 -101.5 -37t-53.5 -64v-368l-68 16v163q-25 -22 -61 -41.5t-86 -19.5q-91 0 -156 54.5
t-65 148.5q0 87 60.5 146t160.5 59q50 0 86 -19.5t61 -42.5v178h-420l-14 54h918l14 -54h-430v-185q24 25 62 47t92 22q99 0 159 -59t60 -146q0 -94 -62.5 -148.5t-143.5 -54.5zM188 -87q-22 0 -37 15t-15 36q0 22 15 37.5t37 15.5t37 -15.5t15 -37.5q0 -21 -15 -36t-37 -15
z" />
    <glyph glyph-name="dv_Khha" unicode="&#x959;" horiz-adv-x="904" 
d="M394 344q0 75 54 126t141 51q37 0 69 -10.5t56 -29.5v145h-426q28 -30 42.5 -72.5t14.5 -86.5q0 -72 -45.5 -129t-120.5 -73q4 -73 77.5 -148.5t183.5 -75.5q103 0 173.5 50.5t91.5 114.5q-24 -19 -53.5 -29.5t-62.5 -10.5q-78 0 -136.5 47t-58.5 131zM464 344
q0 -57 35.5 -90.5t89.5 -33.5t89.5 33t35.5 90t-35.5 91t-89.5 34q-51 0 -87.5 -33.5t-37.5 -90.5zM782 -16l-68 16v106q-43 -52 -113.5 -87t-160.5 -35q-149 0 -234 88.5t-89 187.5h-39q-12 0 -20.5 7.5t-9.5 17.5q-6 31 23 68.5t73 37.5q13 0 20 -11.5t7 -28.5v-27
q46 11 76 48t30 95q0 47 -22 93.5t-59 65.5h-193l-14 54h912l14 -54h-133v-642zM92 -19q-21 0 -36 15.5t-15 36.5q0 22 15 37t36 15q22 0 37.5 -15t15.5 -37q0 -21 -15.5 -36.5t-37.5 -15.5z" />
    <glyph glyph-name="dv_Ghha" unicode="&#x95a;" horiz-adv-x="610" 
d="M421 0v626h-229v-401q0 -19 -7 -31t-21 -12q-49 0 -81.5 40t-25.5 74q1 10 10 18t21 8h35v304h-120l-14 54h618l15 -54h-133v-642zM169 -19q-22 0 -36.5 15.5t-14.5 36.5q0 22 14.5 37t36.5 15t37.5 -15t15.5 -37q0 -21 -15.5 -36.5t-37.5 -15.5z" />
    <glyph glyph-name="dv_Za" unicode="&#x95b;" horiz-adv-x="747" 
d="M557 402h-191q23 -24 36.5 -57t13.5 -73q0 -92 -62 -139.5t-154 -47.5q-60 0 -108.5 17t-80.5 39l13 58q35 -26 80 -42t96 -17q66 0 106.5 35.5t40.5 96.5q0 63 -40.5 96.5t-106.5 33.5h-53l-18 59h428v165h-554l-14 54h754l15 -54h-134v-642l-67 16v402zM202 -87
q-21 0 -36.5 15t-15.5 36q0 22 15.5 37.5t36.5 15.5q22 0 37.5 -15.5t15.5 -37.5q0 -21 -15.5 -36t-37.5 -15z" />
    <glyph glyph-name="dv_Dddha" unicode="&#x95c;" horiz-adv-x="530" 
d="M76 97q36 -25 90 -42t107 -18q62 1 104 29t42 77v1q0 48 -33 78.5t-84 30.5h-95q-58 0 -106.5 38t-48.5 93q0 60 44.5 95.5t108.5 35.5h159v111h-361l-14 54h537l14 -54h-107v-168h-228q-39 0 -62 -21.5t-23 -52.5q0 -33 24 -54t63 -21h86q92 0 143.5 -42.5t51.5 -123.5
q0 -66 -56 -114t-159 -48q-61 0 -120.5 18t-88.5 39zM279 -176q-21 0 -36.5 15.5t-15.5 37.5q0 21 15.5 36.5t36.5 15.5q22 0 37 -15.5t15 -36.5q0 -22 -15 -37.5t-37 -15.5z" />
    <glyph glyph-name="dv_Rha" unicode="&#x95d;" horiz-adv-x="626" 
d="M497 626v-188h-125q-103 0 -171.5 -52t-68.5 -147q0 -104 62 -149t150 -49q-23 19 -38.5 46.5t-15.5 57.5q0 58 39.5 100.5t105.5 42.5q67 0 107 -37t40 -97q0 -72 -62.5 -122t-159.5 -50q-115 0 -207.5 58t-92.5 199q0 122 90.5 190.5t221.5 68.5h56v128h-425l-14 54
h634l15 -54h-141zM440 227q-34 0 -59 -21t-25 -61q0 -31 17.5 -57t48.5 -40q51 11 74 40.5t23 63.5q0 32 -21 53.5t-58 21.5zM360 -176q-21 0 -36 15.5t-15 37.5q0 21 15 36.5t36 15.5q22 0 37.5 -15.5t15.5 -36.5q0 -22 -15.5 -37.5t-37.5 -15.5z" />
    <glyph glyph-name="dv_Fa" unicode="&#x95e;" horiz-adv-x="944" 
d="M459 387v239h-289v-239q0 -69 36.5 -110t109.5 -41q69 0 106 40t37 111zM682 141q61 0 101.5 41.5t40.5 106.5q-1 65 -43 105.5t-99 40.5q-66 0 -101 -35t-53 -63v-353l-69 16v231q-26 -25 -64.5 -39t-84.5 -14q-93 0 -150 55t-57 154v239h-100l-14 54h952l15 -54h-428
v-200q24 24 61 45.5t91 21.5q99 0 159 -59t60 -146q0 -94 -63.5 -148.5t-142.5 -54.5zM221 -19q-22 0 -37 15.5t-15 36.5q0 22 15 37t37 15t37 -15t15 -37q0 -21 -15 -36.5t-37 -15.5z" />
    <glyph glyph-name="dv_Yya" unicode="&#x95f;" horiz-adv-x="620" 
d="M78 377q31 9 56.5 46.5t25.5 92.5q0 42 -21.5 70t-58.5 40h-77l-14 54h628l15 -54h-134v-642l-68 16v231q-26 -25 -63 -39t-83 -14q-88 0 -153 56.5t-65 128.5zM430 626h-250q19 -16 31.5 -45.5t12.5 -70.5q0 -48 -22.5 -95t-69.5 -71q10 -42 53 -73.5t99 -34.5
q69 0 107.5 40t38.5 111v239zM150 -19q-21 0 -36 15.5t-15 36.5q0 22 15 37t36 15q23 0 38 -15t15 -37q0 -21 -15 -36.5t-38 -15.5z" />
    <glyph glyph-name="dv_VocalicRr" unicode="&#x960;" horiz-adv-x="891" 
d="M654 9q-10 10 -15 23.5t-5 29.5q0 45 60.5 85t60.5 89q0 23 -12.5 54t-49.5 82q-18 -30 -72 -62.5t-123 -32.5h-39v-293l-68 16v251l-267 -143l-35 47l285 154q-69 83 -117.5 101t-91.5 18q-19 0 -44.5 -9t-47.5 -19l-25 54q21 11 58.5 19.5t55.5 8.5q49 0 108 -15.5
t121 -99.5v259h-388l-14 54h899l14 -54h-443v-295h20q78 0 120.5 31.5t58.5 56.5q-10 8 -18.5 25.5t-8.5 39.5q0 19 12 29.5t35 10.5q30 0 57 -18.5t27 -49.5q0 -12 -7.5 -23.5t-21.5 -24.5q49 -54 68 -95.5t19 -80.5q0 -61 -58.5 -98t-58.5 -70q0 -25 18.5 -29.5t37.5 -4.5
h18l-20 -48h-11q-19 0 -37.5 -6.5t-18.5 -25.5t18.5 -26t37.5 -7h23l-21 -48h-19q-36 0 -70 17.5t-34 63.5q0 21 8 35t21 24z" />
    <glyph glyph-name="dv_VocalicLl" unicode="&#x961;" horiz-adv-x="872" 
d="M650 -7q-12 4 -26.5 21t-14.5 36q0 37 22.5 55.5t50.5 22.5v149q-1 65 -28.5 105t-83.5 40q-54 0 -81.5 -42.5t-27.5 -108.5v-115l-68 20l-1 95q0 66 -29 107t-92 42q-49 0 -82.5 -35t-33.5 -79q0 -79 29 -142.5t78 -162.5l-56 -19q-45 88 -82 166t-37 165
q0 65 54.5 115.5t129.5 51.5q50 -1 90 -21.5t64 -57.5q23 38 61 58.5t85 20.5q34 0 61.5 -10t49.5 -28v184h-679l-14 54h879l15 -54h-133v-539h-21q-19 0 -38 -9t-19 -28t19 -27.5t38 -8.5h23l-23 -39q-25 0 -43 -9.5t-18 -28.5t15 -28t46 -9h21l-19 -44h-21q-35 0 -68 18
t-33 63q0 19 12.5 34t28.5 22z" />
    <glyph glyph-name="dv_MatraVocalicL" unicode="&#x962;" horiz-adv-x="0" 
d="M244 -138v-66l-57 13v53q-1 40 -20.5 56t-43.5 15q-18 1 -35 -14.5t-17 -36.5q0 -40 17.5 -79t45.5 -95l-49 -13q-26 51 -47 96t-21 94q0 38 31.5 67t74.5 30q28 0 56 -17t36 -41q10 22 37 40t54 18q47 0 77.5 -29.5t30.5 -67.5q0 -41 -25 -71.5t-25 -59.5
q0 -10 10 -14.5t23 -4.5h9l-11 -40h-13q-20 0 -47 11t-27 36q0 43 25 74t25 66q0 24 -16.5 37.5t-35.5 13.5q-23 0 -42.5 -17.5t-19.5 -53.5z" />
    <glyph glyph-name="dv_MatraVocalicLl" unicode="&#x963;" horiz-adv-x="0" 
d="M373 -394q-27 0 -54.5 14.5t-27.5 50.5q0 17 7 29t18 20q-4 4 -6 10t-2 12q0 43 25 74t25 66q0 24 -16.5 37.5t-35.5 13.5q-23 0 -42.5 -17.5t-19.5 -53.5v-66l-57 13v53q-1 40 -20.5 56t-43.5 15q-18 1 -35 -14.5t-17 -36.5q0 -40 17.5 -79t45.5 -95l-49 -13
q-26 51 -47 96t-21 94q0 38 31.5 67t74.5 30q28 0 56 -17t36 -41q10 22 37 40t54 18q47 0 77.5 -29.5t30.5 -67.5q0 -41 -25 -71.5t-25 -59.5q0 -10 10 -14.5t23 -4.5h9l-11 -40h-11q-15 0 -27.5 -5t-12.5 -19q0 -16 14 -21.5t30 -5.5h18l-17 -38h-16z" />
    <glyph glyph-name="dv_Danda" unicode="&#x964;" horiz-adv-x="349" 
d="M209 756v-772l-69 16v771z" />
    <glyph glyph-name="dv_DoubleDanda" unicode="&#x965;" horiz-adv-x="647" 
d="M507 756v-772l-69 16v771zM208 756l1 -772l-69 16v771z" />
    <glyph glyph-name="dv_Zero" unicode="&#x966;" horiz-adv-x="701" 
d="M69 339q0 117 80 200t202 83q121 0 201.5 -83t80.5 -200q0 -116 -80.5 -199t-201.5 -83q-122 0 -202 83t-80 199zM139 339q0 -97 59 -159t153 -62t152.5 62t58.5 159q0 98 -58.5 160t-152.5 62t-153 -62t-59 -160z" />
    <glyph glyph-name="dv_One" unicode="&#x967;" horiz-adv-x="381" 
d="M58 312l118 94l6 5q-41 16 -76 52.5t-35 89.5q0 60 36 100.5t92 40.5q63 0 100 -39t37 -95q0 -46 -22 -93t-91 -97l-101 -80l-1 -5l203 -285l-73 -18l-194 304zM203 631q-31 0 -47.5 -22t-16.5 -56q0 -41 25.5 -66.5t58.5 -38.5q22 21 35.5 46t13.5 53q0 35 -19 59.5
t-50 24.5z" />
    <glyph glyph-name="dv_Two" unicode="&#x968;" horiz-adv-x="504" 
d="M167 262h-40q-11 0 -19.5 7.5t-9.5 18.5q-6 31 17.5 68.5t58.5 37.5q13 0 22.5 -12t16.5 -29l11 -32q55 0 104 41t49 119q0 63 -35 110t-107 47q-54 0 -94.5 -25t-41.5 -28l-30 51q1 0 48 29t121 29q116 0 163 -72t47 -141q0 -95 -66.5 -151.5t-151.5 -62.5l183 -267
l-67 -18z" />
    <glyph glyph-name="dv_Three" unicode="&#x969;" horiz-adv-x="507" 
d="M83 634q32 26 78 43t103 17q81 0 127.5 -44.5t46.5 -107.5q0 -47 -23 -82.5t-62 -47.5q49 -13 73.5 -56.5t24.5 -97.5q0 -73 -61 -122t-156 -49h-25l100 -126l-44 -32l-128 164q-28 13 -57 39.5t-29 61.5q0 16 11.5 25.5t27.5 9.5q33 0 60 -22t37 -54q11 -3 23.5 -4.5
t25.5 -1.5q56 1 100 32t44 79q0 49 -33 88.5t-123 39.5h-78l-14 49h98q71 0 105 28t34 77q0 45 -31 71t-77 26q-51 0 -91 -15t-78 -45z" />
    <glyph glyph-name="dv_Four" unicode="&#x96a;" horiz-adv-x="708" 
d="M57 642l40 52q52 -51 123 -119.5t134 -140.5q63 72 133.5 140.5t123.5 119.5l40 -52q-58 -55 -127.5 -122t-128.5 -136q52 -66 87 -131t35 -119q0 -69 -43 -110.5t-120 -41.5t-120.5 42t-43.5 110q0 54 35 119t87 131q-59 69 -128.5 136t-126.5 122zM354 332
q-41 -54 -67 -105t-26 -93q0 -45 28.5 -69.5t64.5 -24.5t64.5 24.5t28.5 69.5q0 42 -26.5 93t-66.5 105z" />
    <glyph glyph-name="dv_Five" unicode="&#x96b;" horiz-adv-x="482" 
d="M237 52q22 -7 41.5 -9.5t37.5 -2.5q50 0 71 21.5t21 54.5q0 49 -15.5 89t-36.5 71q-14 -3 -29.5 -4.5t-31.5 -1.5q-93 0 -154 51t-61 158v201h67v-201q0 -83 40 -117.5t113 -34.5h15q-7 13 -11 25t-3 24q1 16 13.5 30.5t34.5 14.5q29 0 55.5 -18t26.5 -48q0 -13 -5 -26
t-19 -26q28 -35 46 -93.5t18 -89.5q0 -54 -33 -95t-120 -41q-17 0 -44 2.5t-53 11.5z" />
    <glyph glyph-name="dv_Six" unicode="&#x96c;" horiz-adv-x="531" 
d="M497 -8l-53 -33l-72 134q-1 1 -1.5 2.5t-0.5 2.5q-15 -8 -44.5 -9.5t-40.5 -1.5q-96 0 -156 49t-60 122q0 54 24 97.5t73 56.5q-40 12 -63 47.5t-23 82.5q0 63 46.5 107.5t128.5 44.5q56 0 102 -17t78 -43l-9 -57q-39 30 -78.5 45t-90.5 15q-46 0 -76.5 -26t-30.5 -71
q0 -49 33 -77t105 -28h93l14 -49h-102q-89 0 -121.5 -39.5t-32.5 -88.5q0 -48 43 -79t100 -32q16 0 31.5 2.5t28.5 6.5q-2 7 -3 15t-1 18q0 20 12.5 33t34.5 13q23 0 51 -17t28 -45q0 -15 -9.5 -30.5t-28.5 -31.5z" />
    <glyph glyph-name="dv_Seven" unicode="&#x96d;" horiz-adv-x="664" 
d="M523 476q-17 40 -47 66t-76 26q-50 0 -85 -30t-35 -79q0 -48 32.5 -80t86.5 -32q48 0 87 38t37 91zM548 378q-25 -40 -69.5 -63.5t-88.5 -23.5q-80 0 -129 46.5t-49 115.5q0 75 51.5 125.5t135.5 50.5q107 0 162.5 -98.5t55.5 -235.5q0 -128 -82 -220.5t-213 -92.5
q-140 0 -214.5 81t-74.5 223h68q0 -119 59 -181.5t169 -62.5q86 0 155.5 67t69.5 184q0 21 -1 42t-5 43z" />
    <glyph glyph-name="dv_Eight" unicode="&#x96e;" horiz-adv-x="566" 
d="M129 202q0 -66 45 -113t114 -47q46 0 97.5 28.5t51.5 147.5l61 -19q1 -63 -38 -140t-181 -77q-108 0 -165 65t-57 150q0 122 87 259t194 238l40 -53q-109 -100 -179 -220t-70 -219z" />
    <glyph glyph-name="dv_Nine" unicode="&#x96f;" horiz-adv-x="465" 
d="M249 637q-50 0 -82.5 -33.5t-32.5 -82.5q0 -22 1 -40.5t5 -33.5q18 -19 49 -27t64 -8q51 0 81 32.5t30 81.5q0 47 -30.5 79t-84.5 32zM431 531q0 -75 -51.5 -125t-135.5 -50q-19 0 -37 5.5t-34 13.5l57 -82q63 -87 92 -127t29 -89q0 -42 -27.5 -68.5t-72.5 -34.5l-10 52
q23 7 37 20t14 29q0 33 -25 69t-103 137q-51 66 -73 120t-22 105q0 74 48.5 131t133.5 57q87 0 133.5 -47t46.5 -116z" />
    <glyph glyph-name="dv_Abbreviation" unicode="&#x970;" horiz-adv-x="569" 
d="M286 514q94 0 160.5 -67.5t66.5 -165.5q0 -96 -66.5 -163t-161.5 -67q-96 0 -162 68t-66 168q0 96 66 161.5t163 65.5zM285 107q69 0 117 51t48 125q0 73 -48 123.5t-117 50.5q-70 0 -117.5 -50.5t-47.5 -123.5q0 -74 47.5 -125t117.5 -51z" />
    <glyph glyph-name="dv_Highspacedot" unicode="&#x971;" horiz-adv-x="184" 
d="M92 244q-22 0 -37 14.5t-15 36.5t15 37t37 15t37 -15t15 -37t-15 -36.5t-37 -14.5z" />
    <glyph glyph-name="dv_CandraA" unicode="&#x972;" horiz-adv-x="862" 
d="M861 930l45 -28q-34 -66 -84.5 -99.5t-116.5 -33.5t-116 33.5t-84 99.5l45 28q29 -56 67.5 -84t87.5 -28t88 28t68 84zM486 179q0 -84 -58 -139.5t-171 -55.5q-60 0 -108.5 17.5t-79.5 39.5l12 58q34 -26 80.5 -42t98.5 -17q66 -1 110.5 34.5t44.5 102.5q0 69 -42 108.5
t-155 39.5h-63l-21 49h91q90 0 132.5 40t42.5 100q0 50 -30.5 87t-98.5 37q-51 0 -97 -18.5t-84 -48.5l-9 58q32 26 84 45.5t109 19.5q108 0 152.5 -54t44.5 -123q0 -45 -24.5 -82.5t-63.5 -59.5h288v251h-119l-16 54h322l16 -54h-135v-642l-68 16v324h-274q42 -24 65.5 -60
t23.5 -85z" />
    <glyph glyph-name="dv_Oe" unicode="&#x973;" horiz-adv-x="862" 
d="M486 179q0 -84 -58 -139.5t-171 -55.5q-60 0 -108.5 17.5t-79.5 39.5l12 58q34 -26 80.5 -42t98.5 -17q66 -1 110.5 34.5t44.5 102.5q0 69 -42 108.5t-155 39.5h-63l-21 49h91q90 0 132.5 40t42.5 100q0 50 -30.5 87t-98.5 37q-51 0 -97 -18.5t-84 -48.5l-9 58
q32 26 84 45.5t109 19.5q108 0 152.5 -54t44.5 -123q0 -45 -24.5 -82.5t-63.5 -59.5h288v251h-119l-16 54h137v217l64 -16v-201h121l16 -54h-135v-642l-68 16v324h-274q42 -24 65.5 -60t23.5 -85z" />
    <glyph glyph-name="dv_Ooe" unicode="&#x974;" horiz-adv-x="1138" 
d="M671 0v324h-274q42 -24 65.5 -60t23.5 -85q0 -84 -58 -139.5t-171 -55.5q-60 0 -108.5 17.5t-79.5 39.5l12 58q34 -26 80.5 -42t98.5 -17q66 -1 110.5 34.5t44.5 102.5q0 69 -42 108.5t-155 39.5h-63l-21 49h91q90 0 132.5 40t42.5 100q0 50 -30.5 87t-98.5 37
q-51 0 -97 -18.5t-84 -48.5l-9 58q32 26 84 45.5t109 19.5q108 0 152.5 -54t44.5 -123q0 -45 -24.5 -82.5t-63.5 -59.5h288v251h-119l-16 54h412v217l64 -16v-201h123l14 -54h-133v-642l-69 16v626h-208v-642z" />
    <glyph glyph-name="dv_Aw" unicode="&#x975;" horiz-adv-x="1138" 
d="M788 785h93q21 -1 37.5 -2.5t29.5 -4.5q-4 20 -15 32.5t-36 12.5q-78 1 -102.5 36.5t-24.5 98.5v15l59 -15q0 -37 15 -59.5t46 -22.5q73 0 98.5 -43t25.5 -104l-1 -49h122l14 -54h-133v-642l-69 16v626h-208v-642l-68 16v324h-274q42 -24 65.5 -60t23.5 -85
q0 -84 -58 -139.5t-171 -55.5q-60 0 -108.5 17.5t-79.5 39.5l12 58q34 -26 80.5 -42t98.5 -17q66 -1 110.5 34.5t44.5 102.5q0 69 -42 108.5t-155 39.5h-63l-21 49h91q90 0 132.5 40t42.5 100q0 50 -30.5 87t-98.5 37q-51 0 -97 -18.5t-84 -48.5l-9 58q32 26 84 45.5
t109 19.5q108 0 152.5 -54t44.5 -123q0 -45 -24.5 -82.5t-63.5 -59.5h288v251h-119l-16 54h415q0 31 -10 41t-56 10h-91q-78 1 -125 36.5t-47 98.5v14l58 -14q0 -38 32 -59.5t76 -21.5z" />
    <glyph glyph-name="dv_Ue" unicode="&#x976;" horiz-adv-x="862" 
d="M486 179q0 -84 -58 -139.5t-171 -55.5q-60 0 -108.5 17.5t-79.5 39.5l12 58q34 -26 80.5 -42t98.5 -17q66 -1 110.5 34.5t44.5 102.5q0 69 -42 108.5t-155 39.5h-63l-21 49h91q90 0 132.5 40t42.5 100q0 50 -30.5 87t-98.5 37q-51 0 -97 -18.5t-84 -48.5l-9 58
q32 26 84 45.5t109 19.5q108 0 152.5 -54t44.5 -123q0 -45 -24.5 -82.5t-63.5 -59.5h288v251h-119l-16 54h322l16 -54h-135v-642l-68 16v324h-274q42 -24 65.5 -60t23.5 -85zM655 -39l46 -28q-35 -66 -85.5 -98.5t-114.5 -32.5q-66 0 -116.5 32.5t-84.5 98.5l45 28
q28 -55 67.5 -83.5t88.5 -28.5q48 0 86.5 28.5t67.5 83.5z" />
    <glyph glyph-name="dv_Uue" unicode="&#x977;" horiz-adv-x="862" 
d="M486 179q0 -84 -58 -139.5t-171 -55.5q-60 0 -108.5 17.5t-79.5 39.5l12 58q34 -26 80.5 -42t98.5 -17q66 -1 110.5 34.5t44.5 102.5q0 69 -42 108.5t-155 39.5h-63l-21 49h91q90 0 132.5 40t42.5 100q0 50 -30.5 87t-98.5 37q-51 0 -97 -18.5t-84 -48.5l-9 58
q32 26 84 45.5t109 19.5q108 0 152.5 -54t44.5 -123q0 -45 -24.5 -82.5t-63.5 -59.5h288v251h-119l-16 54h322l16 -54h-135v-642l-68 16v324h-274q42 -24 65.5 -60t23.5 -85zM635 -39l45 -28q-34 -66 -95.5 -89t-105.5 -23q-45 0 -105.5 23t-94.5 89l45 28q28 -55 77 -73.5
t78 -18.5q31 0 78.5 18.5t77.5 73.5zM674 -130l45 -28q-45 -66 -109.5 -90t-130.5 -24t-131 25.5t-114 88.5l45 28q36 -49 93.5 -72t106.5 -23q48 0 104 21.5t91 73.5z" />
    <glyph glyph-name="dv_MarwariDda" unicode="&#x978;" horiz-adv-x="611" 
d="M192 626v-278h129q94 0 151 -55t57 -154v-155l-68 16v139q0 69 -36 110t-109 41h-124v-39q0 -19 -7 -31t-21 -12q-49 0 -81.5 40t-25.5 74q1 10 10 18t21 8h35v278h-120l-14 54h618l15 -54h-430z" />
    <glyph glyph-name="dv_Zha" unicode="&#x979;" horiz-adv-x="747" 
d="M557 402h-191q23 -24 36.5 -57t13.5 -73q0 -92 -62 -139.5t-154 -47.5q-60 0 -108.5 17t-80.5 39l13 58q35 -26 80 -42t96 -17q66 0 106.5 35.5t40.5 96.5q0 63 -40.5 96.5t-106.5 33.5h-53l-18 59h428v165h-554l-14 54h754l15 -54h-134v-642l-67 16v402zM104 -62
q-21 0 -36 15t-15 37t15 37t36 15q22 0 37.5 -15t15.5 -37t-15.5 -37t-37.5 -15zM297 -62q-21 0 -36.5 15t-15.5 37t15.5 37t36.5 15q22 0 37 -15t15 -37t-15 -37t-37 -15zM201 -162q-22 0 -37 14.5t-15 36.5t15 37.5t37 15.5t37 -15.5t15 -37.5t-15 -36.5t-37 -14.5z" />
    <glyph glyph-name="dv_HeavyYa" unicode="&#x97a;" horiz-adv-x="611" 
d="M79 377q31 9 56 46.5t25 92.5q0 42 -21 70t-58 40h-72l-15 54h623l16 -54h-135v-642l-67 16v231q-26 -25 -63 -39t-83 -14q-89 0 -153.5 56.5t-64.5 128.5zM431 626h-229l228 -262q0 5 0.5 11t0.5 12v239zM133 344q10 -42 53 -73.5t99 -34.5q46 0 79 18.5t50 52.5
l-190 219v-16q0 -48 -22 -95t-69 -71z" />
    <glyph glyph-name="dv_Gga" unicode="&#x97b;" horiz-adv-x="610" 
d="M421 0v626h-229v-401q0 -19 -7 -31t-21 -12q-49 0 -81.5 40t-25.5 74q1 10 10 18t21 8h35v304h-120l-14 54h618l15 -54h-133v-642zM508 -140h-402l-15 53h402z" />
    <glyph glyph-name="dv_Jja" unicode="&#x97c;" horiz-adv-x="747" 
d="M557 402h-191q23 -24 36.5 -57t13.5 -73q0 -92 -62 -139.5t-154 -47.5q-60 0 -108.5 17t-80.5 39l13 58q35 -26 80 -42t96 -17q66 0 106.5 35.5t40.5 96.5q0 63 -40.5 96.5t-106.5 33.5h-53l-18 59h428v165h-554l-14 54h754l15 -54h-134v-642l-67 16v402zM634 -140h-579
l-15 53h579z" />
    <glyph glyph-name="dv_GlottalStop" unicode="&#x97d;" horiz-adv-x="549" 
d="M278 694q108 0 161.5 -58.5t53.5 -136.5q0 -66 -51.5 -134.5t-150.5 -102.5v-243l-68 21v257q85 26 141.5 80.5t56.5 120.5q0 65 -38.5 100.5t-106.5 35.5q-60 0 -108 -19t-91 -48l-8 62q42 28 92.5 46.5t116.5 18.5z" />
    <glyph glyph-name="dv_Ddda" unicode="&#x97e;" horiz-adv-x="530" 
d="M76 97q36 -25 90 -42t107 -18q62 1 104 29t42 77v1q0 48 -33 78.5t-84 30.5h-95q-58 0 -106.5 38t-48.5 93q0 60 44.5 95.5t108.5 35.5h159v111h-361l-14 54h537l14 -54h-107v-168h-228q-39 0 -62 -21.5t-23 -52.5q0 -33 24 -54t63 -21h86q92 0 143.5 -42.5t51.5 -123.5
q0 -66 -56 -114t-159 -48q-61 0 -120.5 18t-88.5 39zM484 -140h-407l-15 53h407z" />
    <glyph glyph-name="dv_Bba" unicode="&#x97f;" horiz-adv-x="612" 
d="M423 0v163q-25 -22 -61 -41.5t-86 -19.5q-91 0 -156 54.5t-65 148.5q0 87 60.5 146t160.5 59q50 0 86 -19.5t61 -42.5v178h-420l-14 54h620l15 -54h-133v-642zM423 360q-20 28 -54 60.5t-96 32.5q-21 0 -40.5 -6t-35.5 -17l192 -221q10 10 18.5 21t15.5 21v109zM160 397
q-13 -19 -21 -41.5t-8 -49.5q0 -65 40 -106.5t102 -41.5q23 0 42.5 6t35.5 15zM519 -140h-432l-14 53h431z" />
    <glyph glyph-name="uni200C" unicode="&#x200c;" horiz-adv-x="0" 
d="M-30 1237h60v-1305h-60v1305z" />
    <glyph glyph-name="uni200D" unicode="&#x200d;" horiz-adv-x="0" 
d="M74 1320l40 -40l-74 -74l74 -74l-39 -39l-45 44v-1205h-60v1204l-44 -43l-39 39l74 74l-74 74l40 40l73 -74z" />
    <glyph glyph-name="endash" unicode="&#x2013;" horiz-adv-x="412" 
d="M395 248h-371l-8 50h371z" />
    <glyph glyph-name="emdash" unicode="&#x2014;" horiz-adv-x="505" 
d="M490 248h-466l-8 50h466z" />
    <glyph glyph-name="quoteleft" unicode="&#x2018;" horiz-adv-x="121" 
d="M53 498q-21 0 -34 14.5t-13 39.5q0 45 27 88t64 62l19 -31q-24 -15 -40.5 -33.5t-18.5 -44.5q21 -2 32.5 -16t11.5 -32q0 -19 -14 -33t-34 -14z" />
    <glyph glyph-name="quoteright" unicode="&#x2019;" horiz-adv-x="121" 
d="M69 702q19 0 33 -15t14 -40q0 -45 -27.5 -87.5t-64.5 -61.5l-18 29q23 16 38.5 34.5t17.5 44.5q-19 2 -30.5 16t-11.5 32q0 19 14 33.5t35 14.5z" />
    <glyph glyph-name="quotesinglbase" unicode="&#x201a;" horiz-adv-x="121" 
d="M69 94q19 0 33 -14t14 -39q0 -46 -27.5 -88t-64.5 -61l-18 29q23 16 38.5 34.5t17.5 45.5q-19 1 -30.5 15t-11.5 32q0 19 14 32.5t35 13.5z" />
    <glyph glyph-name="quotedblleft" unicode="&#x201c;" horiz-adv-x="268" 
d="M53 498q-21 0 -34 14.5t-13 39.5q0 45 27 88t64 62l19 -31q-24 -15 -40.5 -33.5t-18.5 -44.5q21 -2 32.5 -16t11.5 -32q0 -19 -14 -33t-34 -14zM199 498q-19 0 -32.5 14.5t-13.5 39.5q0 45 27 88t65 62l17 -31q-24 -15 -39.5 -33.5t-16.5 -44.5q19 -2 30.5 -16t11.5 -32
q0 -19 -14.5 -33t-34.5 -14z" />
    <glyph glyph-name="quotedblright" unicode="&#x201d;" horiz-adv-x="268" 
d="M215 702q19 0 33 -15t14 -40q0 -45 -27 -87.5t-64 -61.5l-18 29q24 16 39.5 34.5t17.5 44.5q-19 2 -31 16t-12 32q0 19 14 33.5t34 14.5zM69 702q19 0 33 -15t14 -40q0 -45 -27.5 -87.5t-64.5 -61.5l-18 29q23 16 38.5 34.5t17.5 44.5q-19 2 -30.5 16t-11.5 32
q0 19 14 33.5t35 14.5z" />
    <glyph glyph-name="quotedblbase" unicode="&#x201e;" horiz-adv-x="268" 
d="M69 95q19 0 33 -14.5t14 -39.5q0 -45 -27.5 -87.5t-64.5 -61.5l-18 30q23 16 38.5 34.5t17.5 44.5q-19 1 -30.5 15t-11.5 32q0 20 14 33.5t35 13.5zM215 94q19 0 33 -14t14 -39q0 -46 -27 -88t-64 -61l-18 29q24 16 39.5 34.5t17.5 45.5q-19 1 -31 15t-12 32
q0 19 14 32.5t34 13.5z" />
    <glyph glyph-name="dagger" unicode="&#x2020;" horiz-adv-x="344" 
d="M206 780v-155h104l19 -48h-123l-10 -581l-46 4l-10 577h-105l-19 48h124v158z" />
    <glyph glyph-name="daggerdbl" unicode="&#x2021;" horiz-adv-x="378" 
d="M154 -6l5 192h-109l-19 49h125l3 299h-109l-19 50h130l-5 199l68 -3l-5 -196h109l19 -50h-125l-3 -299h109l19 -49h-129l5 -185z" />
    <glyph glyph-name="bullet" unicode="&#x2022;" horiz-adv-x="206" 
d="M103 245q-34 0 -58 24t-24 57q0 34 24 58.5t58 24.5t58 -24.5t24 -58.5q0 -33 -24 -57t-58 -24z" />
    <glyph glyph-name="ellipsis" unicode="&#x2026;" horiz-adv-x="411" 
d="M350 90q19 0 32 -13t13 -32t-13 -32t-32 -13t-32.5 13t-13.5 32t13.5 32t32.5 13zM208 90q19 0 32 -13t13 -32t-13 -32t-32 -13t-32.5 13t-13.5 32t13.5 32t32.5 13zM61 90q19 0 32 -13t13 -32t-13 -32t-32 -13t-32 13t-13 32t13 32t32 13z" />
    <glyph glyph-name="perthousand" unicode="&#x2030;" horiz-adv-x="1200" 
d="M599 706l-309 -710l-58 4l308 710zM187 702q70 0 113 -44.5t43 -125.5q0 -78 -44.5 -123.5t-110.5 -45.5q-71 0 -114 44t-43 125q0 78 45 124t111 46zM187 651q-33 0 -63 -27t-30 -92q0 -62 28.5 -90t65.5 -28q32 0 62 26.5t30 91.5q0 63 -28 91t-65 28zM1013 338
q71 0 113.5 -44.5t42.5 -124.5q0 -78 -44.5 -123.5t-110.5 -45.5q-71 0 -113.5 44t-42.5 125q0 77 44.5 123t110.5 46zM645 338q69 0 112 -44.5t43 -124.5q0 -78 -44.5 -123.5t-110.5 -45.5q-70 0 -113 44t-43 125q0 77 45 123t111 46zM1013 288q-32 0 -62.5 -26.5
t-30.5 -92.5q0 -63 28.5 -90.5t65.5 -27.5q33 0 63 27t30 91q0 63 -28.5 91t-65.5 28zM645 288q-34 0 -63.5 -26.5t-29.5 -92.5q0 -63 28 -90.5t65 -27.5q33 0 62.5 27t29.5 91q0 63 -28 91t-64 28z" />
    <glyph glyph-name="guilsinglleft" unicode="&#x2039;" horiz-adv-x="204" 
d="M31 269l140 139l21 -45l-109 -118l109 -118l-21 -44l-140 138v48z" />
    <glyph glyph-name="guilsinglright" unicode="&#x203a;" horiz-adv-x="204" 
d="M33 408l140 -139v-48l-140 -138l-23 44l112 118l-112 118z" />
    <glyph glyph-name="fraction" unicode="&#x2044;" horiz-adv-x="377" 
d="M371 706l-309 -710l-56 4l308 710z" />
    <glyph glyph-name="Euro" unicode="&#x20ac;" horiz-adv-x="582" 
d="M469 223h-266q16 -79 61.5 -130.5t132.5 -51.5q43 0 73 9t56 21l24 -48q-28 -15 -65.5 -26t-84.5 -11q-125 0 -185.5 68t-77.5 169h-97l-9 50h100q-2 15 -3 31t-1 32q0 17 1.5 35t3.5 34h-92l-9 49h108q21 105 85.5 172.5t180.5 67.5q42 0 80 -9t66 -28l-20 -46
q-31 13 -54.5 21t-69.5 8q-82 0 -132 -51t-69 -135h255l8 -49h-272q-1 -16 -2.5 -33.5t-1.5 -34.5q0 -16 1 -32.5t2 -31.5h265z" />
    <glyph glyph-name="Turkishlira" unicode="&#x20ba;" horiz-adv-x="514" 
d="M367 458l-198 -69v-338q88 0 169 84.5t81 195.5h63q0 -135 -98.5 -233t-214.5 -98h-62v367l-78 -28l-8 45l86 31v53l-78 -27l-8 45l86 30v180l62 10v-168l189 67l9 -44l-198 -70v-55l189 67z" />
    <glyph glyph-name="Ruble" unicode="&#x20bd;" horiz-adv-x="583" 
d="M454 157h-281v-157h-63v157h-68l-5 46h73v61h-72v53h72v363h176q107 0 176 -47t69 -158q-1 -110 -75 -160.5t-180 -50.5h-103v-61h276zM288 627h-115v-310h104q81 0 136 36t56 121q0 88 -49.5 120.5t-131.5 32.5z" />
    <glyph glyph-name="litre" unicode="&#x2113;" horiz-adv-x="384" 
d="M45 185l-14 46q16 13 33.5 27t34.5 30v278q0 65 35 100.5t90 35.5q51 0 84 -34t33 -94q0 -69 -53 -150.5t-126 -149.5v-115q0 -49 11.5 -83.5t62.5 -34.5q14 0 30.5 4.5t36.5 12.5l21 -38q-18 -17 -43 -24.5t-51 -7.5q-79 0 -105 45t-26 117v73q-13 -11 -27 -21t-27 -17z
M278 572q0 44 -15.5 61t-38.5 17q-23 -1 -42.5 -18t-19.5 -66v-216q47 52 81.5 110t34.5 112z" />
    <glyph glyph-name="trademark" unicode="&#x2122;" horiz-adv-x="727" 
d="M291 636h-113v-330h-54v330h-114v44h278zM507 406l-105 154v-254h-52v374h20l143 -197l138 197h22v-374h-50v255l-104 -153z" />
    <glyph glyph-name="Ohm" unicode="&#x2126;" horiz-adv-x="773" 
d="M634 338q0 131 -70 216.5t-177 85.5t-177.5 -85.5t-70.5 -216.5q0 -81 36.5 -168t94.5 -120l5 -50h-196l-6 50h119q-55 42 -87 122.5t-32 164.5q0 149 83.5 252.5t230.5 106.5q147 -3 230.5 -106.5t83.5 -252.5q0 -84 -32 -164.5t-88 -122.5h120l-6 -50h-197l5 50
q58 33 94.5 120t36.5 168z" />
    <glyph glyph-name="estimated" unicode="&#x212e;" horiz-adv-x="522" 
d="M475 239h-360q1 -87 40.5 -144.5t129.5 -57.5q53 0 85.5 10.5t57.5 23.5l21 -46q-30 -19 -81 -28.5t-80 -9.5q-119 0 -177.5 72.5t-58.5 185.5q1 109 57 181t163 72t155 -74t48 -185zM412 282q-7 71 -39 117.5t-104 46.5t-108.5 -46.5t-43.5 -117.5h295z" />
    <glyph glyph-name="partialdiff" unicode="&#x2202;" horiz-adv-x="540" 
d="M52 204q0 76 53.5 136.5t146.5 60.5q47 0 87 -19.5t68 -47.5q-16 93 -78 170.5t-154 98.5l27 37q127 -26 201 -143t74 -227q0 -135 -65 -202.5t-161 -67.5q-89 0 -144 63t-55 141zM115 198q0 -57 37 -101t101 -44q80 0 118.5 55t41.5 148q-22 36 -64.5 62.5t-96.5 26.5
q-64 0 -100.5 -43.5t-36.5 -103.5z" />
    <glyph glyph-name="Delta" unicode="&#x2206;" horiz-adv-x="584" 
d="M318 680l260 -670l-61 -10h-511l247 680h65zM286 600l-203 -550h415z" />
    <glyph glyph-name="product" unicode="&#x220f;" horiz-adv-x="583" 
d="M84 680h415v-680h-58v636h-300v-636h-57v680z" />
    <glyph glyph-name="summation" unicode="&#x2211;" horiz-adv-x="471" 
d="M408 635h-303l192 -275v-30l-192 -280h319l5 -50h-387v50l205 295l-205 290v45h360z" />
    <glyph glyph-name="minus" unicode="&#x2212;" horiz-adv-x="449" 
d="M433 248h-409l-8 50h407z" />
    <glyph glyph-name="divisionslash" unicode="&#x2215;" horiz-adv-x="377" 
d="M371 706l-309 -710l-56 4l308 710z" />
    <glyph glyph-name="bulletmath" unicode="&#x2219;" horiz-adv-x="206" 
d="M103 245q-34 0 -58 24t-24 57q0 34 24 58.5t58 24.5t58 -24.5t24 -58.5q0 -33 -24 -57t-58 -24z" />
    <glyph glyph-name="radical" unicode="&#x221a;" horiz-adv-x="526" 
d="M520 706l-288 -710l-61 4l-165 317l60 4l138 -261l262 650z" />
    <glyph glyph-name="infinity" unicode="&#x221e;" horiz-adv-x="869" 
d="M258 458q58 0 104 -32t80 -80q28 46 67 79t99 33q90 0 144 -55.5t54 -144.5q0 -88 -53.5 -149t-142.5 -61q-57 0 -103.5 31t-83.5 83q-26 -46 -64.5 -80t-98.5 -34q-90 0 -144 55t-54 144q0 88 54 149.5t142 61.5zM608 405q-61 0 -95.5 -51t-49.5 -104q-4 -10 -7 -20
l-6 -20q25 -46 64 -77t93 -32q67 -1 103.5 46.5t36.5 112.5q0 58 -36.5 101.5t-102.5 43.5zM406 256l13 39q-25 47 -65 77.5t-93 31.5q-66 1 -102.5 -46.5t-36.5 -112.5q0 -58 36.5 -101t101.5 -43q63 0 97 51t49 104z" />
    <glyph glyph-name="integral" unicode="&#x222b;" horiz-adv-x="325" 
d="M194 645v-685q0 -63 -32 -101t-86 -38q-19 0 -37.5 4.5t-28.5 7.5l12 53q6 -3 18.5 -5.5t22.5 -2.5q38 0 53.5 23t15.5 58v686q0 64 32 101t85 37q20 0 38.5 -4t28.5 -8l-12 -52q-7 2 -19.5 6t-22.5 4q-37 0 -52.5 -23.5t-15.5 -60.5z" />
    <glyph glyph-name="approxequal" unicode="&#x2248;" horiz-adv-x="470" 
d="M409 384l47 -12q1 -51 -42 -65.5t-78 -14.5q-34 0 -99 22.5t-108 22.5q-13 0 -38 -8.5t-27 -31.5l-45 11q-2 52 43.5 66t80.5 14q43 0 106.5 -22t101.5 -22q13 0 35 8.5t23 31.5zM409 211l47 -12q1 -51 -42 -65t-78 -14q-34 0 -99 22.5t-108 22.5q-13 0 -38 -9t-27 -31
l-45 10q-2 53 43.5 67t80.5 14q43 0 106.5 -22.5t101.5 -22.5q13 0 35 8.5t23 31.5z" />
    <glyph glyph-name="notequal" unicode="&#x2260;" horiz-adv-x="469" 
d="M372 517l-64 -146h137l8 -49h-167l-59 -132h218l8 -50h-247l-70 -155l-53 5l67 150h-126l-8 50h156l58 132h-206l-8 49h237l66 149z" />
    <glyph glyph-name="lessequal" unicode="&#x2264;" 
d="M259 103l-249 159v48l249 160l23 -44l-216 -138l216 -140zM279 0h-260l-9 50h262z" />
    <glyph glyph-name="greaterequal" unicode="&#x2265;" 
d="M304 262l-250 -159l-23 45l216 140l-216 138l23 44l250 -160v-48zM300 0h-260l-9 50h261z" />
    <glyph glyph-name="lozenge" unicode="&#x25ca;" horiz-adv-x="522" 
d="M249 0l-218 291v17l218 291h24l218 -291v-17l-218 -291h-24zM90 299l170 -230l173 230l-173 232z" />
    <glyph glyph-name="uni25CC" unicode="&#x25cc;" horiz-adv-x="672" 
d="M335 510q-14 0 -23 9t-9 23t9 23.5t23 9.5t23.5 -9.5t9.5 -23.5t-9.5 -23t-23.5 -9zM435 493q-14 0 -23 9t-9 23t9 23.5t23 9.5t23.5 -9.5t9.5 -23.5t-9.5 -23t-23.5 -9zM237 558q14 0 23 -9.5t9 -23.5t-9 -23t-23 -9t-23.5 9t-9.5 23t9.5 23.5t23.5 9.5zM520 437
q-14 0 -23 9t-9 23t9 23.5t23 9.5t23.5 -9.5t9.5 -23.5t-9.5 -23t-23.5 -9zM152 502q14 0 23 -9.5t9 -23.5t-9 -23t-23 -9t-23.5 9t-9.5 23t9.5 23.5t23.5 9.5zM573 349q-14 0 -23 9t-9 23t9 23.5t23 9.5t23.5 -9.5t9.5 -23.5t-9.5 -23t-23.5 -9zM99 414q14 0 23 -9.5
t9 -23.5t-9 -23t-23 -9t-23.5 9t-9.5 23t9.5 23.5t23.5 9.5zM589 254q-14 0 -23 9t-9 23t9 23.5t23 9.5t23.5 -9.5t9.5 -23.5t-9.5 -23t-23.5 -9zM83 319q14 0 23 -9.5t9 -23.5t-9 -23t-23 -9t-23.5 9t-9.5 23t9.5 23.5t23.5 9.5zM573 161q-14 0 -23 9t-9 23t9 23.5t23 9.5
t23.5 -9.5t9.5 -23.5t-9.5 -23t-23.5 -9zM99 226q14 0 23 -9.5t9 -23.5t-9 -23t-23 -9t-23.5 9t-9.5 23t9.5 23.5t23.5 9.5zM521 72q-14 0 -23 9t-9 23t9 23.5t23 9.5t23.5 -9.5t9.5 -23.5t-9.5 -23t-23.5 -9zM151 137q14 0 23 -9.5t9 -23.5t-9 -23t-23 -9t-23.5 9t-9.5 23
t9.5 23.5t23.5 9.5zM237 82q14 0 23 -9.5t9 -23.5t-9 -23t-23 -9t-23.5 9t-9.5 23t9.5 23.5t23.5 9.5zM435 17q-14 0 -23 9t-9 23t9 23.5t23 9.5t23.5 -9.5t9.5 -23.5t-9.5 -23t-23.5 -9zM335 0q-14 0 -23 9t-9 23t9 23.5t23 9.5t23.5 -9.5t9.5 -23.5t-9.5 -23t-23.5 -9z
" />
    <glyph glyph-name="commaaccent" unicode="&#xf6c3;" horiz-adv-x="141" 
d="M78 -21q20 0 34 -14.5t14 -39.5q0 -45 -27 -88t-65 -62l-18 30q24 16 40 34.5t17 44.5q-19 2 -31 16t-12 31q0 20 14.5 34t33.5 14z" />
    <glyph glyph-name="fi" unicode="&#xfb01;" horiz-adv-x="520" 
d="M21 0zM21 475h73v88q0 63 32 101t86 38q20 0 38 -4.5t28 -8.5l-12 -53q-6 3 -18.5 6t-22.5 3q-38 0 -53.5 -23t-15.5 -59v-88h88l21 -47h-109v-428h-62v428h-72zM404 591q-21 0 -34 13.5t-13 33.5t13 33.5t34 13.5q19 0 33.5 -13.5t14.5 -33.5t-14.5 -33.5t-33.5 -13.5z
M373 0v485h63v-485h-63z" />
    <glyph glyph-name="fl" unicode="&#xfb02;" horiz-adv-x="519" 
d="M21 0zM21 475h73v88q0 63 32 101t86 38q20 0 38 -4.5t28 -8.5l-12 -53q-6 3 -18.5 6t-22.5 3q-38 0 -53.5 -23t-15.5 -59v-88h88l21 -47h-109v-428h-62v428h-72zM372 0v696l62 10v-706h-62z" />
    <glyph glyph-name="grave.case" horiz-adv-x="162" 
d="M16 892h71l61 -153h-47z" />
    <glyph glyph-name="dieresis.case" horiz-adv-x="276" 
d="M216 854q19 0 31 -12.5t12 -29.5q0 -19 -12 -31.5t-31 -12.5q-18 0 -30.5 12.5t-12.5 31.5q0 17 12.5 29.5t30.5 12.5zM59 854q19 0 31.5 -12.5t12.5 -29.5q0 -19 -12.5 -31.5t-31.5 -12.5q-17 0 -30 12.5t-13 31.5q0 17 13 29.5t30 12.5z" />
    <glyph glyph-name="macron.case" horiz-adv-x="272" 
d="M16 839h241v-49h-241v49z" />
    <glyph glyph-name="acute.case" horiz-adv-x="162" 
d="M76 892h72l-86 -153h-46z" />
    <glyph glyph-name="circumflex.case" horiz-adv-x="302" 
d="M76 739h-60l105 153h60l106 -153h-62l-74 109z" />
    <glyph glyph-name="caron.case" horiz-adv-x="302" 
d="M16 892h60l75 -108l74 108h62l-106 -153h-60z" />
    <glyph glyph-name="breve.case" horiz-adv-x="291" 
d="M276 881q0 -50 -30.5 -89.5t-99.5 -40.5q-69 1 -99.5 40.5t-30.5 89.5h46q0 -28 21 -55t63 -27q40 0 61.5 27t21.5 55h47z" />
    <glyph glyph-name="dotaccent.case" horiz-adv-x="127" 
d="M64 864q19 0 33 -14.5t14 -33.5q0 -20 -14 -34t-33 -14q-20 0 -34 14t-14 34q0 19 14 33.5t34 14.5z" />
    <glyph glyph-name="ring.case" horiz-adv-x="209" 
d="M105 909q36 0 62 -24t26 -60q0 -35 -26 -58t-62 -23t-62.5 23t-26.5 58q0 36 26.5 60t62.5 24zM105 783q18 0 31 12t13 30q0 19 -13 31.5t-31 12.5t-31 -12.5t-13 -31.5q0 -18 13 -30t31 -12z" />
    <glyph glyph-name="tilde.case" 
d="M253 849h46q1 -52 -24 -71.5t-60 -19.5q-34 0 -60.5 24t-51.5 24q-13 0 -25 -10.5t-14 -33.5h-45q-2 53 23.5 72t59.5 19q42 0 64.5 -23.5t48.5 -23.5q13 0 24.5 10t13.5 33z" />
    <glyph glyph-name="hungarumlaut.case" horiz-adv-x="285" 
d="M199 892h70l-84 -153h-45zM76 892h69l-86 -153h-43z" />
    <glyph glyph-name="dv_La.MAR" horiz-adv-x="843" 
d="M687 306q0 44 -33.5 79t-82.5 35q-54 0 -82 -41.5t-28 -107.5v-115l-68 20l-1 95q0 66 -29 107t-92 42q-49 0 -82.5 -35t-33.5 -79q0 -79 29 -142.5t78 -162.5l-56 -19q-45 88 -82 166t-37 165q0 65 54.5 115.5t129.5 51.5q50 -1 90 -21.5t64 -57.5q19 31 47.5 50
t64.5 26v149h-534l-14 54h851l15 -54h-250v-150q63 -12 106 -59t43 -104q0 -87 -36 -165t-82 -166l-56 19q49 99 78 162.5t29 142.5z" />
    <glyph glyph-name="dv_Sha.MAR" horiz-adv-x="804" 
d="M614 0v626h-350v-64q95 -7 139.5 -60t44.5 -118q0 -93 -66.5 -130.5t-151.5 -42.5l150 -212l-66 -19l-147 226h-40q-11 0 -19.5 7t-9.5 17q-6 32 17.5 69.5t58.5 37.5q13 0 22.5 -11.5t16.5 -30.5l11 -31q55 0 104 27.5t49 92.5q0 47 -35 85t-107 38q-54 0 -94.5 -25
t-41.5 -28l-30 51q2 3 36.5 24.5t90.5 30.5v66h-193l-14 54h811l15 -54h-133v-642z" />
    <glyph glyph-name="dv_oldJha" horiz-adv-x="1009" 
d="M97 583q0 -23 16 -37t37 -14q13 0 28.5 6t28.5 16q-1 38 -16 59.5t-43 21.5q-21 0 -36 -13.5t-15 -38.5zM522 0v270h-246v-45q0 -19 -7 -31t-21 -12q-48 0 -80.5 40t-27.5 74q2 10 11 18t22 8h35v177q-15 -10 -32.5 -14t-29.5 -4q-51 0 -81.5 30t-30.5 79q0 46 34.5 75
t80.5 29q60 0 93.5 -44t33.5 -116v-212h246v304h-133l-15 54h631l15 -54h-430v-185q24 25 61.5 47t91.5 22q99 0 160 -59t61 -146q0 -94 -63.5 -148.5t-143.5 -54.5l-12 56q62 0 102.5 41.5t40.5 106.5t-43 106t-100 41q-66 0 -101 -37t-54 -64v-368z" />
    <glyph glyph-name="dv_KSsa" horiz-adv-x="750" 
d="M247 636q-28 0 -47 -18.5t-19 -45.5q0 -31 20.5 -56t53.5 -46q26 25 43.5 49t17.5 47q-1 29 -21.5 49.5t-47.5 20.5zM561 0v349h-31q-64 0 -134.5 13t-130.5 38q-51 -41 -94.5 -83.5t-43.5 -93.5q0 -56 46 -79.5t91 -23.5q12 0 24.5 1t24.5 2q-3 8 -4 18.5t-1 21.5
q0 20 12 33t34 13q23 0 51.5 -17t28.5 -45q0 -16 -10 -31t-29 -31l70 -120l-51 -32l-73 134h-1q-18 -4 -37.5 -6t-38.5 -2q-72 0 -139.5 36.5t-67.5 126.5q0 61 48.5 112t101.5 95q-43 27 -69.5 62.5t-26.5 78.5q0 49 37 86.5t103 37.5q57 0 96.5 -37t39.5 -86
q0 -37 -21 -68.5t-52 -60.5q52 -19 110.5 -29.5t106.5 -10.5h30v278h187l14 -54h-133v-642z" />
    <glyph glyph-name="dv_JNya" horiz-adv-x="771" 
d="M582 0v402h-187q24 -24 37 -57t13 -73q0 -92 -61.5 -139.5t-153.5 -47.5q-16 0 -31.5 1t-29.5 3l100 -126l-44 -32l-128 165q-28 12 -57 39t-29 61q0 16 11 25.5t28 9.5q34 0 61 -22.5t37 -55.5q19 -6 39.5 -9.5t42.5 -3.5q66 0 106.5 35.5t40.5 96.5q0 63 -41 96.5
t-106 33.5h-54l-17 59h423v165h-579l-14 54h779l14 -54h-132v-642z" />
    <glyph glyph-name="dv_Jha.NEP" horiz-adv-x="458" 
d="M143 172l-17 1q-11 0 -19.5 6.5t-10.5 16.5q-7 32 17.5 70t59.5 38q13 0 22 -12t16 -30l12 -32q54 0 97 28.5t43 92.5q0 48 -33.5 80.5t-99.5 35.5q-7 -43 -38 -71t-76 -28q-28 0 -53 8.5t-47 24.5l25 41q16 -9 33 -16t37 -7q29 0 45.5 23.5t16.5 56.5q0 40 -27.5 74
t-51.5 53h-91l-14 54h465l15 -54h-302q22 -16 40 -44.5t23 -58.5q101 -3 153 -52.5t52 -119.5q0 -78 -61 -126t-145 -48l113 -177l-63 -18l-113 190h-23z" />
    <glyph glyph-name="dv_Reph" horiz-adv-x="0" 
d="M-137 676h-67q-27 22 -47 66t-20 79q0 53 34 95.5t94 42.5q42 0 69 -11.5t40 -21.5l-24 -42q-17 8 -34.5 16t-44.5 8q-34 0 -53.5 -29.5t-19.5 -62.5q0 -40 24 -80.5t49 -59.5z" />
    <glyph glyph-name="dv_Reph.MAR" horiz-adv-x="435" 
d="M446 626h-443l-14 54h441zM372 422l46 -28q-35 -67 -85.5 -100.5t-114.5 -33.5q-66 0 -116.5 33.5t-84.5 100.5l45 28q28 -55 67.5 -83.5t88.5 -28.5q48 0 86.5 28.5t67.5 83.5z" />
    <glyph glyph-name="dv_Rakar" horiz-adv-x="0" 
d="M56 -147l-39 35l115 126h64l115 -126l-39 -35l-107 118z" />
    <glyph glyph-name="dv_MatraI.1" 
d="M841 716q-76 51 -231.5 110t-273.5 59q-92 0 -140.5 -33t-48.5 -82q0 -34 14.5 -57t24.5 -33h123l16 -54h-134v-642l-68 16v626h-120l-14 54h120l-17.5 35t-10.5 55q0 74 64 122.5t189 48.5q134 0 304 -67.5t230 -114.5z" />
    <glyph glyph-name="dv_MatraI.2" 
d="M1041 716q-106 40 -346 104.5t-371 64.5q-91 0 -134 -33t-43 -82q0 -34 14.5 -57t24.5 -33h123l16 -54h-134v-642l-68 16v626h-120l-14 54h120l-17.5 35t-10.5 55q0 74 58.5 122.5t183.5 48.5q153 0 397.5 -72t346.5 -110z" />
    <glyph glyph-name="dv_MatraI.3" 
d="M904 716q-84 49 -270 109t-304 60q-91 0 -137 -33t-46 -82q0 -34 14.5 -57t24.5 -33h123l16 -54h-134v-642l-68 16v626h-120l-14 54h120l-17.5 35t-10.5 55q0 74 61.5 122.5t185.5 48.5q134 0 333.5 -69.5t268.5 -112.5z" />
    <glyph glyph-name="dv_MatraI.4" 
d="M574 716q-54 45 -133.5 107t-167.5 62q-60 0 -93 -33t-33 -82q0 -34 14.5 -57t24.5 -33h123l16 -54h-134v-642l-68 16v626h-120l-14 54h120l-17.5 35t-10.5 55q0 74 48 122.5t136 48.5q100 0 189.5 -64t146.5 -118z" />
    <glyph glyph-name="dv_MatraIReph" 
d="M797 676h-67q-17 13 -32 37t-24 49q-79 45 -182 84t-197 39q-68 0 -108 -33t-40 -82q0 -34 14.5 -57t24.5 -33h123l16 -54h-134v-642l-68 16v626h-120l-14 54h120l-17.5 35t-10.5 55q0 74 58 122.5t154 48.5q93 0 193 -35t177 -76q3 51 37 90t91 39q42 0 69 -11.5
t40 -21.5l-24 -42q-17 8 -34.5 16t-44.5 8q-34 0 -53.5 -29.5t-19.5 -62.5q0 -40 24 -80.5t49 -59.5z" />
    <glyph glyph-name="dv_MatraIReph.1" 
d="M882 676h-67q-17 13 -32 37t-24 49q-90 45 -210 84t-213 39q-92 0 -140.5 -33t-48.5 -82q0 -34 14.5 -57t24.5 -33h123l16 -54h-134v-642l-68 16v626h-120l-14 54h120l-17.5 35t-10.5 55q0 74 64 122.5t189 48.5q93 0 208.5 -35.5t205.5 -78.5q2 51 36 91.5t92 40.5
q42 0 69 -11.5t40 -21.5l-24 -42q-17 8 -34.5 16t-44.5 8q-34 0 -53.5 -29.5t-19.5 -62.5q0 -40 24 -80.5t49 -59.5z" />
    <glyph glyph-name="dv_MatraIReph.2" 
d="M1087 676h-67q-13 10 -25 27t-21 36q-130 43 -333 94.5t-317 51.5q-91 0 -134 -33t-43 -82q0 -34 14.5 -57t24.5 -33h123l16 -54h-134v-642l-68 16v626h-120l-14 54h120l-17.5 35t-10.5 55q0 74 58.5 122.5t183.5 48.5q122 0 310 -49t322 -94q-1 6 -1.5 12t-0.5 11
q0 53 34 95.5t94 42.5q42 0 69 -11.5t40 -21.5l-24 -42q-17 8 -34.5 16t-44.5 8q-34 0 -53.5 -29.5t-19.5 -62.5q0 -40 24 -80.5t49 -59.5z" />
    <glyph glyph-name="dv_MatraIReph.3" 
d="M956 676h-67q-15 11 -28 30.5t-22 41.5q-103 47 -256.5 92t-252.5 45q-91 0 -137 -33t-46 -82q0 -34 14.5 -57t24.5 -33h123l16 -54h-134v-642l-68 16v626h-120l-14 54h120l-17.5 35t-10.5 55q0 74 61.5 122.5t185.5 48.5q99 0 244 -42.5t250 -85.5v8q0 53 34 95.5
t94 42.5q42 0 69 -11.5t40 -21.5l-24 -42q-17 8 -34.5 16t-44.5 8q-34 0 -53.5 -29.5t-19.5 -62.5q0 -40 24 -80.5t49 -59.5z" />
    <glyph glyph-name="dv_MatraIReph.4" 
d="M605 676h-67q-23 19 -41.5 54.5t-23.5 69.5q-44 34 -95 59.5t-105 25.5q-60 0 -93 -33t-33 -82q0 -34 14.5 -57t24.5 -33h123l16 -54h-134v-642l-68 16v626h-120l-14 54h120l-17.5 35t-10.5 55q0 74 48 122.5t136 48.5q57 0 110 -23t101 -55q11 40 43 68t80 28
q42 0 69 -11.5t40 -21.5l-24 -42q-17 8 -34.5 16t-44.5 8q-34 0 -53.5 -29.5t-19.5 -62.5q0 -40 24 -80.5t49 -59.5z" />
    <glyph glyph-name="dv_MatraIi.1" 
d="M-414 731l-49 -23q-14 22 -25 45t-11 53q0 61 44.5 98t138.5 37q181 0 327.5 -93t169.5 -168h124l16 -54h-133v-642l-68 16v626h-121l-15 54h128q-13 43 -142 124t-286 81q-61 0 -91.5 -23t-30.5 -51q0 -19 7 -37.5t17 -42.5z" />
    <glyph glyph-name="dv_MatraIi.2" 
d="M-214 731l-50 -23q-13 22 -25 48t-12 56q0 55 41.5 92t103.5 37q107 0 207 -92.5t130 -168.5h124l16 -54h-133v-642l-68 16v626h-121l-15 54h128q-13 43 -98.5 124t-169.5 81q-42 0 -62.5 -23t-20.5 -51q0 -19 7 -37.5t18 -42.5z" />
    <glyph glyph-name="dv_MatraIiReph.1" 
d="M-414 731l-49 -23q-14 22 -25 45t-11 53q0 61 44.5 98t138.5 37q106 0 209 -39.5t173 -88.5v8q0 53 34 95.5t94 42.5q42 0 69 -11.5t40 -21.5l-24 -42q-17 8 -34.5 16t-44.5 8q-34 0 -53.5 -29.5t-19.5 -62.5q0 -38 22 -76.5t46 -59.5h110l16 -54h-133v-642l-68 16v626
h-121l-15 54h128q-13 43 -142 124t-286 81q-61 0 -91.5 -23t-30.5 -51q0 -19 7 -37.5t17 -42.5z" />
    <glyph glyph-name="dv_MatraIiReph.2" 
d="M-214 731l-50 -23q-13 22 -25 48t-12 56q0 55 41.5 92t103.5 37q57 0 116.5 -31.5t107.5 -74.5q4 49 37.5 86.5t89.5 37.5q42 0 69 -11.5t40 -21.5l-24 -42q-17 8 -34.5 16t-44.5 8q-34 0 -53.5 -29.5t-19.5 -62.5q0 -38 22 -76.5t46 -59.5h109l16 -54h-133v-642l-68 16
v626h-121l-15 54h128q-13 43 -98.5 124t-169.5 81q-42 0 -62.5 -23t-20.5 -51q0 -19 7 -37.5t18 -42.5z" />
    <glyph glyph-name="dv_MatraIiReph" 
d="M-130 731l-50 -23q-13 22 -23.5 48t-10.5 56q0 55 40 92t101 37q49 0 88.5 -21.5t70.5 -55.5q11 40 43 67.5t79 27.5q42 0 69 -11.5t40 -21.5l-24 -42q-17 8 -34.5 16t-44.5 8q-34 0 -53.5 -29.5t-19.5 -62.5q0 -13 3 -26.5t9 -27.5q10 -22 18.5 -43.5t13.5 -38.5h124
l16 -54h-134v-642l-68 16v626h-120l-14 54h128q-13 43 -59 124t-131 81q-40 0 -61 -23t-21 -51q0 -19 7 -37.5t18 -42.5z" />
    <glyph glyph-name="dv_MatraEReph" horiz-adv-x="0" 
d="M-97 650h-74l-276 254l56 37l134 -133q-1 3 -1 6.5v6.5q0 53 34 95.5t94 42.5q42 0 69 -11.5t40 -21.5l-24 -42q-17 8 -34.5 16t-44.5 8q-34 0 -53.5 -29.5t-19.5 -62.5q0 -29 14 -59.5t32 -53.5z" />
    <glyph glyph-name="dv_MatraAiReph" horiz-adv-x="0" 
d="M-130 680h-63l-42 45q-52 57 -90 69t-80 12h-76l-13 60h86q55 0 101.5 -15t102.5 -84l-75 226l65 24l26 -102q16 19 40 31.5t54 12.5q42 0 69 -11.5t40 -21.5l-24 -42q-17 8 -34.5 16t-44.5 8q-40 0 -59.5 -37.5t-11.5 -71.5z" />
    <glyph glyph-name="dv_MatraOReph" 
d="M-11 680h122l-244 224l57 37l137 -136q-1 4 -1 8v8q0 53 34 95.5t94 42.5q42 0 69 -11.5t40 -21.5l-24 -42q-17 8 -34.5 16t-44.5 8q-34 0 -53.5 -29.5t-19.5 -62.5q0 -38 22 -76.5t46 -59.5h120l16 -54h-134v-642l-68 16v626h-120z" />
    <glyph glyph-name="dv_MatraAuReph" 
d="M184 680h125l16 -54h-134v-642l-68 16v626h-120l-14 54h131l-42 45q-51 57 -89 69t-81 12h-85l-13 60h95q56 0 102.5 -15t101.5 -84l-74 226l65 24l25 -102q16 19 40 31.5t55 12.5q42 0 69 -11.5t40 -21.5l-24 -42q-17 8 -34.5 16t-44.5 8q-34 0 -53.5 -29.5t-19.5 -62.5
q0 -4 4 -23t27 -113z" />
    <glyph glyph-name="dv_RakarMatraU" horiz-adv-x="0" 
d="M56 -147l-39 35l115 126h64l115 -126l-39 -35l-107 118zM-46 -223q52 -62 97.5 -98.5t105.5 -36.5q46 0 71 24.5t25 61.5q0 38 -26.5 62.5t-69.5 24.5h-48v52h58q54 0 99 -36.5t45 -102.5q0 -64 -46 -101.5t-109 -37.5q-69 0 -131.5 42.5t-110.5 117.5z" />
    <glyph glyph-name="dv_RakarMatraUu" horiz-adv-x="0" 
d="M56 -147l-39 35l115 126h64l115 -126l-39 -35l-107 118zM367 -322q-54 62 -98 99t-105 37q-46 0 -70 -24.5t-24 -61.5q0 -39 25.5 -64t68.5 -25h49v-51h-59q-53 0 -98.5 37t-45.5 103q0 64 46.5 101t109.5 37q69 0 131 -43t110 -116z" />
    <glyph glyph-name="dv_KRa" horiz-adv-x="909" 
d="M273 453q-57 0 -99 -41t-43 -106q0 -65 40 -106.5t102 -41.5t96 32.5t54 60.5v109q-20 28 -54 60.5t-96 32.5zM646 158q62 0 102.5 41.5t40.5 106.5q-1 65 -43.5 106t-99.5 41q-66 0 -101.5 -37t-53.5 -64v-368l-68 16v152l-286 -190l-51 38l158 104q-80 9 -134.5 62
t-54.5 139q0 87 60.5 146t160.5 59q50 0 86 -19.5t61 -42.5v178h-420l-14 54h918l14 -54h-430v-185q24 25 62 47t92 22q99 0 159 -59t60 -146q0 -94 -62.5 -148.5t-143.5 -54.5z" />
    <glyph glyph-name="dv_KRa.NEP" horiz-adv-x="878" 
d="M615 141q61 0 101.5 41.5t40.5 106.5t-42.5 105.5t-99.5 40.5q-66 0 -101.5 -36.5t-54.5 -63.5v-351l-68 16v262l-267 -142l-35 47l285 154q-69 82 -117.5 99.5t-91.5 17.5q-19 0 -44.5 -8.5t-47.5 -18.5l-25 55q21 11 58.5 19t55.5 8q49 0 108 -15.5t121 -99.5v248h-388
l-14 54h885l16 -54h-431v-202q24 25 61.5 47t91.5 22q99 0 160 -59t61 -146q0 -94 -63.5 -148.5t-143.5 -54.5z" />
    <glyph glyph-name="dv_KhRa" horiz-adv-x="904" 
d="M179 275q4 -73 82.5 -133.5t188.5 -60.5q21 0 47.5 2.5t49.5 6.5l91 83q-12 -4 -24.5 -5.5t-24.5 -1.5q-78 0 -136.5 47t-58.5 131q0 75 54 126t141 51q37 0 69 -10.5t56 -29.5v145h-426q28 -30 42.5 -67.5t14.5 -81.5q0 -72 -45.5 -129t-120.5 -73zM464 344
q0 -57 35.5 -90.5t89.5 -33.5t89.5 33t35.5 90v6q-2 54 -37.5 86.5t-87.5 32.5q-51 0 -87.5 -33.5t-37.5 -90.5zM474 -57l-58 29l58 52h-24q-149 0 -239 73.5t-94 172.5h-39q-12 0 -20.5 7.5t-9.5 17.5q-6 31 23 68.5t73 37.5q13 0 20 -11.5t7 -28.5v-27q46 11 76 48t30 95
q0 47 -22 88.5t-59 60.5h-193l-14 54h912l14 -54h-133v-642l-68 16v173z" />
    <glyph glyph-name="dv_GRa" horiz-adv-x="610" 
d="M421 0v220l-284 -258l-51 37l335 303v324h-229v-401q0 -19 -7 -31t-21 -12q-49 0 -81.5 40t-25.5 74q1 10 10 18t21 8h35v304h-120l-14 54h618l15 -54h-133v-642z" />
    <glyph glyph-name="dv_GhRa" horiz-adv-x="701" 
d="M148 255q0 -44 39 -76t98 -32q16 0 32 2t31 6l164 148v323h-289q-33 -10 -49 -34.5t-16 -54.5q0 -49 34 -79t105 -30h35l21 -48h-50q-90 0 -122.5 -38t-32.5 -87zM227 -38l-51 37l97 88q-92 2 -144 53.5t-52 115.5q0 52 25 95t73 54q-40 13 -63.5 50t-23.5 83
q0 24 10.5 47.5t26.5 40.5h-122l-14 54h709l15 -54h-134v-642l-67 16v221z" />
    <glyph glyph-name="dv_CRa" horiz-adv-x="703" 
d="M513 0v167l-303 -185l-51 38l188 115q-85 4 -139.5 51.5t-54.5 135.5q0 42 15.5 74.5t40.5 55.5h-154l-14 59h378l18 -58l-53 -1q-83 -1 -123 -36t-40 -94q0 -60 40 -95t106 -35q62 0 101.5 31t44.5 85v318h-510l-14 54h711l14 -54h-133v-642z" />
    <glyph glyph-name="dv_JRa" horiz-adv-x="790" 
d="M601 402h-235q23 -24 36.5 -57t13.5 -73q0 -92 -62 -139.5t-154 -47.5q-60 0 -108.5 17t-80.5 39l13 58q35 -26 80 -42t96 -17q66 0 106.5 35.5t40.5 96.5q0 63 -40.5 96.5t-106.5 33.5h-53l-18 59h472v165h-598l-14 54h798l15 -54h-134v-642l-67 16v220l-284 -258
l-51 37l335 298v105z" />
    <glyph glyph-name="dv_JhRa" horiz-adv-x="863" 
d="M673 626h-240v-168h-228q-39 0 -62 -21.5t-23 -52.5q0 -33 24 -54t63 -21h86q51 0 90 -13.5t64 -38.5h226v369zM183 50q22 -6 45 -9t45 -4q62 1 104 29t42 77v1q0 48 -33 78.5t-84 30.5h-95q-58 0 -106.5 38t-48.5 93q0 60 44.5 95.5t108.5 35.5h159v111h-361l-14 54h871
l14 -54h-133v-642l-68 16v163l-136 -184l-51 37l142 187h-149q4 -13 6.5 -28.5t2.5 -31.5q0 -66 -56 -114t-159 -48q-17 0 -35 1.5t-35 4.5l101 -127l-44 -32l-128 164q-28 12 -57 39t-29 62q0 16 11 25.5t28 9.5q34 0 61 -23t37 -55z" />
    <glyph glyph-name="dv_TRa" horiz-adv-x="581" 
d="M459 626v-642l-68 16v251l-267 -143l-35 47l285 154q-69 83 -117.5 101t-91.5 18q-19 0 -44.5 -9t-47.5 -19l-25 54q21 11 58.5 19.5t55.5 8.5q49 0 108 -15.5t121 -99.5v259h-388l-14 54h588l16 -54h-134z" />
    <glyph glyph-name="dv_TRa.alt" horiz-adv-x="673" 
d="M484 0v338l-140 -201l-58 37l159 219h-169q-68 0 -102 -26.5t-34 -78.5q0 -61 50 -142t90 -144l-57 -20q-50 72 -101 155.5t-51 154.5q0 66 45 111t125 45h243v178h-481l-14 54h681l15 -54h-133v-642z" />
    <glyph glyph-name="dv_ThRa" horiz-adv-x="666" 
d="M230 601q-12 18 -29.5 28.5t-38.5 10.5t-39 -12.5t-18 -38.5q0 -23 17 -35t38 -12q31 0 47 18.5t23 40.5zM251 544q-13 -20 -38.5 -35.5t-55.5 -15.5q-43 0 -77.5 26.5t-34.5 69.5q0 45 32 75t83 30q53 0 102 -48t49 -120q0 -92 -44 -128t-91 -60q10 -43 54 -71t99 -31
q69 0 107.5 40t38.5 111v239h-52l-14 54h254l14 -54h-133v-642l-69 16v217l-304 -235l-51 38l211 158h-2q-88 0 -153 56.5t-65 128.5l12 14q32 9 81 38.5t49 101.5q0 7 -0.5 13.5t-1.5 13.5z" />
    <glyph glyph-name="dv_DRa" horiz-adv-x="593" 
d="M538 -12l-52 -31l-71 133h-1q-14 -3 -29 -4.5t-30 -2.5l-74 -135l-70 18l73 120q-89 12 -157 67.5t-68 159.5q0 107 83 166.5t207 59.5h44v87h-390l-14 54h599l15 -54h-141v-145h-113q-94 0 -156 -45.5t-62 -122.5q0 -86 61 -128t145 -42q13 0 25 1t25 2q-2 8 -4 18.5
t-2 21.5q0 20 13 32.5t34 12.5q22 0 50.5 -17t28.5 -45q0 -14 -9.5 -30t-28.5 -31z" />
    <glyph glyph-name="dv_DhRa" horiz-adv-x="726" 
d="M536 0v220l-284 -258l-51 37l97 88h-3q-96 0 -155.5 47t-59.5 122q0 52 24.5 95t73.5 54q-40 13 -64 50t-24 83q0 63 47 109.5t128 46.5q47 0 84.5 -18.5t48.5 -34.5l-30 -41q-15 16 -40.5 26.5t-59.5 10.5q-46 0 -76.5 -27.5t-30.5 -72.5q0 -49 33.5 -79t104.5 -30h36
l21 -48h-52q-89 0 -121.5 -38t-32.5 -87t45 -78.5t103 -29.5q21 0 40.5 3t38.5 9l159 143v324h-66l-14 54h266l15 -54h-133v-642z" />
    <glyph glyph-name="dv_NRa" horiz-adv-x="596" 
d="M474 -16l-69 16v246l-282 -264l-51 38l315 294l-218 106l-33 -44q-13 -16 -23.5 -23.5t-23.5 1.5q-26 14 -39 42t-13 56q0 16 5 29.5t12 23.5q7 12 20.5 15.5t19.5 -0.5l311 -150v256h-402l-14 54h604l14 -54h-133v-642z" />
    <glyph glyph-name="dv_PRa" horiz-adv-x="650" 
d="M460 387v239h-289v-239q0 -69 36 -110t109 -41q69 0 106.5 40t37.5 111zM460 0v216l-303 -234l-51 38l211 158h-6q-94 0 -150.5 55t-56.5 154v239h-101l-14 54h657l15 -54h-133v-642z" />
    <glyph glyph-name="dv_PhRa" horiz-adv-x="944" 
d="M459 387v239h-289v-239q0 -69 36.5 -110t109.5 -41q69 0 106 40t37 111zM682 141q61 0 101.5 41.5t40.5 106.5q-1 65 -43 105.5t-99 40.5q-66 0 -101 -35t-53 -63v-353l-69 16v215l-302 -233l-51 38l211 158h-7q-93 0 -150 55t-57 154v239h-100l-14 54h952l15 -54h-428
v-200q24 24 61 45.5t91 21.5q99 0 159 -59t60 -146q0 -94 -63.5 -148.5t-142.5 -54.5z" />
    <glyph glyph-name="dv_BRa" horiz-adv-x="612" 
d="M423 360q-20 28 -54 60.5t-96 32.5q-21 0 -40.5 -6t-35.5 -17l192 -221q10 10 18.5 21t15.5 21v109zM160 397q-13 -19 -21 -41.5t-8 -49.5q0 -65 40 -106.5t102 -41.5q23 0 42.5 6t35.5 15zM423 0v152l-286 -190l-51 38l158 104q-80 9 -134.5 62t-54.5 139q0 87 60.5 146
t160.5 59q50 0 86 -19.5t61 -42.5v178h-420l-14 54h620l15 -54h-133v-642z" />
    <glyph glyph-name="dv_BhRa" horiz-adv-x="712" 
d="M97 583q0 -23 16 -37t37 -14q13 0 28.5 6t28.5 16q-1 38 -16 59.5t-43 21.5q-21 0 -36 -13.5t-15 -38.5zM522 0v240l-308 -258l-51 38l312 250h-199v-45q0 -19 -7 -31t-21 -12q-48 0 -80.5 40t-27.5 74q2 10 11 18t22 8h35v177q-15 -10 -32.5 -14t-29.5 -4
q-51 0 -81.5 30t-30.5 79q0 46 34.5 75t80.5 29q60 0 93.5 -44t33.5 -116v-212h246v304h-133l-15 54h334l15 -54h-133v-642z" />
    <glyph glyph-name="dv_MRa" horiz-adv-x="650" 
d="M461 626h-269v-304h269v304zM529 -16l-68 16v240l-308 -258l-51 38l312 250h-222v-45q0 -19 -7 -31t-21 -12q-49 0 -81.5 40t-25.5 74q1 10 10 18t21 8h35v304h-120l-14 54h658l15 -54h-133v-642z" />
    <glyph glyph-name="dv_YRa" horiz-adv-x="620" 
d="M430 626h-250q19 -16 31.5 -45.5t12.5 -70.5q0 -48 -22.5 -95t-69.5 -71q10 -42 53 -73.5t99 -34.5q69 0 107.5 40t38.5 111v239zM78 377q31 9 56.5 46.5t25.5 92.5q0 42 -21.5 70t-58.5 40h-77l-14 54h628l15 -54h-134v-642l-68 16v210l-295 -228l-51 38l211 158h-11
q-88 0 -153 56.5t-65 128.5z" />
    <glyph glyph-name="dv_LRa" horiz-adv-x="872" 
d="M682 0v240l-238 -258l-51 38l286 292q-7 50 -34 80t-75 30q-54 0 -81.5 -42.5t-27.5 -108.5v-115l-68 20l-1 95q0 66 -29 107t-92 42q-49 0 -82.5 -35t-33.5 -79q0 -79 29 -142.5t78 -162.5l-56 -19q-45 88 -82 166t-37 165q0 65 54.5 115.5t129.5 51.5q50 -1 90 -21.5
t64 -57.5q23 38 61 58.5t85 20.5q34 0 61.5 -10t49.5 -28v184h-679l-14 54h879l15 -54h-133v-642z" />
    <glyph glyph-name="dv_VRa" horiz-adv-x="612" 
d="M273 453q-57 0 -99 -41t-43 -106q0 -65 40 -106.5t102 -41.5t96 32.5t54 60.5v109q-20 28 -54 60.5t-96 32.5zM423 0v152l-286 -190l-51 38l158 104q-80 9 -134.5 62t-54.5 139q0 87 60.5 146t160.5 59q50 0 86 -19.5t61 -42.5v178h-420l-14 54h620l15 -54h-133v-642z
" />
    <glyph glyph-name="dv_ShRa" horiz-adv-x="666" 
d="M125 568q0 53 38.5 89.5t94.5 36.5q55 0 93 -36.5t38 -89.5q0 -37 -16.5 -75.5t-63.5 -80.5l166 -128v396h187l14 -54h-133v-642l-68 16v180l-273 -196l-37 56l278 193l-185 140l-198 -154l-26 60l173 133q-49 42 -65.5 80.5t-16.5 75.5zM323 566q0 29 -18 49t-47 20
q-30 0 -48 -20t-18 -49q0 -26 13 -53t53 -61q39 34 52 61t13 53z" />
    <glyph glyph-name="dv_SsRa" horiz-adv-x="654" 
d="M464 387v239h-247l243 -282q2 10 3 20.5t1 22.5zM171 387q0 -69 36 -110t109 -41q40 0 70.5 14t48.5 39l-264 308v-210zM464 0v219l-307 -237l-51 38l211 158h-6q-94 0 -150.5 55t-56.5 154v239h-101l-14 54h662l15 -54h-134v-642z" />
    <glyph glyph-name="dv_SRa" horiz-adv-x="761" 
d="M570 626h-261q28 -30 42.5 -72.5t14.5 -86.5q0 -33 -9.5 -62t-27.5 -54h241v275zM539 299h-261q-17 -12 -38.5 -21.5t-44.5 -13.5l129 -207zM132 260h-41q-11 0 -19.5 7.5t-10.5 17.5q-5 31 18.5 68.5t59.5 37.5q13 0 21.5 -12t15.5 -28l12 -27q46 11 76 48t30 95
q0 47 -22.5 93.5t-58.5 65.5h-210l-14 54h768l14 -54h-132v-642l-69 16v248l-210 -248l-70 -18z" />
    <glyph glyph-name="dv_HRa" horiz-adv-x="536" 
d="M310 329q-5 0 -10 0.5t-10 0.5q-60 0 -99.5 -37t-39.5 -88q0 -81 76.5 -120.5t148.5 -45.5l-15 -55q-106 6 -191 64t-85 157q0 45 16 79.5t44 56.5q-22 15 -36.5 38t-14.5 54q1 54 35.5 83t98.5 29h147v81h-372l-14 54h543l15 -54h-105v-138h-212q-32 0 -50.5 -14
t-19.5 -40q0 -20 13 -37t34 -24q19 7 41 10t44 3q87 0 142 -43t55 -102q0 -33 -13.5 -67t-39.5 -51l-50 35q20 18 28.5 36.5t8.5 41.5q0 22 -14 42.5t-39 33.5l-72 -163l-68 18z" />
    <glyph glyph-name="dv_QRa" horiz-adv-x="909" 
d="M273 453q-57 0 -99 -41t-43 -106q0 -65 40 -106.5t102 -41.5t96 32.5t54 60.5v109q-20 28 -54 60.5t-96 32.5zM646 158q62 0 102.5 41.5t40.5 106.5q-1 65 -43.5 106t-99.5 41q-66 0 -101.5 -37t-53.5 -64v-368l-68 16v152l-286 -190l-51 38l158 104q-80 9 -134.5 62
t-54.5 139q0 87 60.5 146t160.5 59q50 0 86 -19.5t61 -42.5v178h-420l-14 54h918l14 -54h-430v-185q24 25 62 47t92 22q99 0 159 -59t60 -146q0 -94 -62.5 -148.5t-143.5 -54.5zM317 -87q-22 0 -37 15t-15 36q0 22 15 37.5t37 15.5t37 -15.5t15 -37.5q0 -21 -15 -36t-37 -15
z" />
    <glyph glyph-name="dv_KhhRa" horiz-adv-x="904" 
d="M179 275q4 -73 82.5 -133.5t188.5 -60.5q21 0 47.5 2.5t49.5 6.5l91 83q-12 -4 -24.5 -5.5t-24.5 -1.5q-78 0 -136.5 47t-58.5 131q0 75 54 126t141 51q37 0 69 -10.5t56 -29.5v145h-426q28 -30 42.5 -67.5t14.5 -81.5q0 -72 -45.5 -129t-120.5 -73zM464 344
q0 -57 35.5 -90.5t89.5 -33.5t89.5 33t35.5 90v6q-2 54 -37.5 86.5t-87.5 32.5q-51 0 -87.5 -33.5t-37.5 -90.5zM474 -57l-58 29l58 52h-24q-149 0 -239 73.5t-94 172.5h-39q-12 0 -20.5 7.5t-9.5 17.5q-6 31 23 68.5t73 37.5q13 0 20 -11.5t7 -28.5v-27q46 11 76 48t30 95
q0 47 -22 88.5t-59 60.5h-193l-14 54h912l14 -54h-133v-642l-68 16v173zM92 -19q-21 0 -36 15.5t-15 36.5q0 22 15 37t36 15q22 0 37.5 -15t15.5 -37q0 -21 -15.5 -36.5t-37.5 -15.5z" />
    <glyph glyph-name="dv_GhhRa" horiz-adv-x="610" 
d="M421 0v220l-284 -258l-51 37l335 303v324h-229v-401q0 -19 -7 -31t-21 -12q-49 0 -81.5 40t-25.5 74q1 10 10 18t21 8h35v304h-120l-14 54h618l15 -54h-133v-642zM323 -49q-22 0 -36.5 15.5t-14.5 36.5q0 22 14.5 37t36.5 15t37.5 -15t15.5 -37q0 -21 -15.5 -36.5
t-37.5 -15.5z" />
    <glyph glyph-name="dv_ZRa" horiz-adv-x="790" 
d="M601 402h-235q23 -24 36.5 -57t13.5 -73q0 -92 -62 -139.5t-154 -47.5q-60 0 -108.5 17t-80.5 39l13 58q35 -26 80 -42t96 -17q66 0 106.5 35.5t40.5 96.5q0 63 -40.5 96.5t-106.5 33.5h-53l-18 59h472v165h-598l-14 54h798l15 -54h-134v-642l-67 16v220l-284 -258
l-51 37l335 298v105zM107 -87q-21 0 -36.5 15t-15.5 36q0 22 15.5 37.5t36.5 15.5q22 0 37.5 -15.5t15.5 -37.5q0 -21 -15.5 -36t-37.5 -15z" />
    <glyph glyph-name="dv_FRa" horiz-adv-x="944" 
d="M459 387v239h-289v-239q0 -69 36.5 -110t109.5 -41q69 0 106 40t37 111zM682 141q61 0 101.5 41.5t40.5 106.5q-1 65 -43 105.5t-99 40.5q-66 0 -101 -35t-53 -63v-353l-69 16v215l-302 -233l-51 38l211 158h-7q-93 0 -150 55t-57 154v239h-100l-14 54h952l15 -54h-428
v-200q24 24 61 45.5t91 21.5q99 0 159 -59t60 -146q0 -94 -63.5 -148.5t-142.5 -54.5zM358 -19q-22 0 -37 15.5t-15 36.5q0 22 15 37t37 15t37 -15t15 -37q0 -21 -15 -36.5t-37 -15.5z" />
    <glyph glyph-name="dv_YyRa" horiz-adv-x="620" 
d="M430 626h-250q19 -16 31.5 -45.5t12.5 -70.5q0 -48 -22.5 -95t-69.5 -71q10 -42 53 -73.5t99 -34.5q69 0 107.5 40t38.5 111v239zM78 377q31 9 56.5 46.5t25.5 92.5q0 42 -21.5 70t-58.5 40h-77l-14 54h628l15 -54h-134v-642l-68 16v210l-295 -228l-51 38l211 158h-11
q-88 0 -153 56.5t-65 128.5zM331 -19q-21 0 -36 15.5t-15 36.5q0 22 15 37t36 15q23 0 38 -15t15 -37q0 -21 -15 -36.5t-38 -15.5z" />
    <glyph glyph-name="dv_KSsRa" horiz-adv-x="781" 
d="M247 636q-28 0 -47 -18.5t-19 -45.5q0 -31 20.5 -56t53.5 -46q26 25 43.5 49t17.5 47q-1 29 -21.5 49.5t-47.5 20.5zM591 0v295l-101 -136l-51 37l116 153h-25q-64 0 -134.5 13t-130.5 38q-51 -41 -94.5 -83.5t-43.5 -93.5q0 -56 46 -79.5t91 -23.5q12 0 24.5 1t24.5 2
q-3 8 -4 18.5t-1 21.5q0 20 12 33t34 13q23 0 51.5 -17t28.5 -45q0 -16 -10 -31t-29 -31l70 -120l-51 -32l-73 134h-1q-18 -4 -37.5 -6t-38.5 -2q-72 0 -139.5 36.5t-67.5 126.5q0 61 48.5 112t101.5 95q-43 27 -69.5 62.5t-26.5 78.5q0 49 37 86.5t103 37.5q57 0 96.5 -37
t39.5 -86q0 -37 -21 -68.5t-52 -60.5q52 -19 110.5 -29.5t106.5 -10.5h60v278h187l14 -54h-133v-642z" />
    <glyph glyph-name="dv_KR.half" horiz-adv-x="624" 
d="M273 453q-57 0 -99 -41t-43 -106q0 -65 40 -106.5t102 -41.5t96 32.5t54 60.5v109q-20 28 -54 60.5t-96 32.5zM749 506v-53h-103q-66 0 -101.5 -37t-53.5 -64v-368l-68 16v152l-286 -190l-51 38l158 104q-80 9 -134.5 62t-54.5 139q0 87 60.5 146t160.5 59q50 0 86 -19.5
t61 -42.5v178h-420l-14 54h632l14 -54h-144v-185q24 25 62 45t92 20h104z" />
    <glyph glyph-name="dv_GhR.half" horiz-adv-x="381" 
d="M539 328l17 -67l-329 -299l-51 37l97 88q-92 2 -144 53.5t-52 115.5q0 52 25 95t73 54q-40 13 -63.5 50t-23.5 83q0 24 10.5 47.5t26.5 40.5h-122l-14 54h390l15 -54h-171q-33 -10 -49 -34.5t-16 -54.5q0 -49 34 -79t105 -30h35l21 -48h-50q-90 0 -122.5 -38t-32.5 -87
q0 -44 39 -76t98 -32q16 0 32 2t31 6z" />
    <glyph glyph-name="dv_TR.half" horiz-adv-x="265" 
d="M276 626h-273l-14 54h272zM391 251l-267 -143l-35 47l285 154q-69 83 -117.5 101t-91.5 18q-19 0 -44.5 -9t-47.5 -19l-25 54q21 11 58.5 19.5t55.5 8.5q49 0 108 -15.5t121 -99.5q2 -3 1 -59.5z" />
    <glyph glyph-name="dv_TR.half.alt" horiz-adv-x="356" 
d="M367 626h-364l-14 54h364zM484 448v-48l27 -23l-167 -240l-58 37l159 219h-169q-68 0 -102 -26.5t-34 -78.5q0 -61 50 -142t90 -144l-57 -20q-50 72 -101 155.5t-51 154.5q0 66 45 111t125 45h243z" />
    <glyph glyph-name="dv_DhR.half" horiz-adv-x="412" 
d="M564 328l17 -67l-329 -299l-51 37l97 88h-3q-96 0 -155.5 47t-59.5 122q0 52 24.5 95t73.5 54q-40 13 -64 50t-24 83q0 63 47 109.5t128 46.5q47 0 84.5 -18.5t48.5 -34.5l-30 -41q-15 16 -40.5 26.5t-59.5 10.5q-46 0 -76.5 -27.5t-30.5 -72.5q0 -49 33.5 -79t104.5 -30
h36l21 -48h-52q-89 0 -121.5 -38t-32.5 -87t45 -78.5t103 -29.5q21 0 40.5 3t38.5 9z" />
    <glyph glyph-name="dv_PR.half" horiz-adv-x="331" 
d="M479 299l-13 -78l-309 -239l-51 38l211 158h-6q-94 0 -150.5 55t-56.5 154v239h-101l-14 54h338l15 -54h-171v-239q0 -69 36 -110t109 -41q67 0 104.5 38.5t39.5 104.5v-94z" />
    <glyph glyph-name="dv_VR.half" horiz-adv-x="491" 
d="M502 626h-499l-14 54h498zM241 102q-77 12 -131.5 70t-54.5 133q0 81 59.5 142.5t158.5 62.5q90 -1 154 -60.5t64 -143.5q0 -20 -4.5 -40t-12.5 -38l-8 -47l-329 -219l-51 38zM416 305q0 66 -40.5 107t-102.5 41q-68 0 -105 -45.5t-37 -101.5q0 -65 40 -106.5t102 -41.5
q69 0 106 45.5t37 101.5z" />
    <glyph glyph-name="dv_ShR.half" horiz-adv-x="339" 
d="M323 566q0 29 -18 49t-47 20q-30 0 -48 -20t-18 -49q0 -26 13 -53t53 -61q39 34 52 61t13 53zM125 568q0 53 38.5 89.5t94.5 36.5q55 0 93 -36.5t38 -89.5q0 -37 -16.5 -75.5t-63.5 -80.5l173 -133v-75l-2 1l1 -20l-279 -201l-37 56l278 193l-185 140l-198 -154l-26 60
l173 133q-49 42 -65.5 80.5t-16.5 75.5z" />
    <glyph glyph-name="dv_SsR.half" horiz-adv-x="338" 
d="M479 299l-13 -78l-309 -239l-51 38l211 158h-6q-94 0 -150.5 55t-56.5 154v239h-101l-14 54h346l15 -54h-133l243 -282l3 22v-79zM171 387q0 -69 36 -110t109 -41q40 0 70.5 14t48.5 39l-264 308v-210z" />
    <glyph glyph-name="dv_SR.half" horiz-adv-x="446" 
d="M575 339l6 -78l-221 -261l-70 -18l-158 278h-41q-11 0 -19.5 7.5t-10.5 17.5q-5 31 18.5 68.5t59.5 37.5q13 0 21.5 -12t15.5 -28l12 -27q46 11 76 48t30 95q0 47 -22.5 93.5t-58.5 65.5h-210l-14 54h453l15 -54h-148q28 -30 42.5 -72.5t14.5 -86.5q0 -33 -9.5 -62
t-27.5 -54h241v-18zM539 299h-261q-17 -12 -38.5 -21.5t-44.5 -13.5l129 -207z" />
    <glyph glyph-name="dv_GR.half" horiz-adv-x="295" 
d="M307 626h-115v-401q0 -19 -7 -31t-21 -12q-49 0 -81.5 40t-25.5 74q1 10 10 18t21 8h35v304h-120l-14 54h303zM449 328l17 -67l-329 -299l-51 37z" />
    <glyph glyph-name="dv_DR.half" horiz-adv-x="593" 
d="M538 -12l-52 -31l-71 133h-1q-14 -3 -29 -4.5t-30 -2.5l-74 -135l-70 18l73 120q-89 12 -157 67.5t-68 159.5q0 107 83 166.5t207 59.5h44v87h-390l-14 54h599l15 -54h-141v-145h-113q-94 0 -156 -45.5t-62 -122.5q0 -86 61 -128t145 -42q13 0 25 1t25 2q-2 8 -4 18.5
t-2 21.5q0 20 13 32.5t34 12.5q22 0 50.5 -17t28.5 -45q0 -14 -9.5 -30t-28.5 -31zM518 -298l-205 183l52 48l194 -194z" />
    <glyph glyph-name="dv_BhR.half" horiz-adv-x="397" 
d="M536 319l-13 -78l-309 -259l-51 38l312 250h-199v-45q0 -19 -7 -31t-21 -12q-48 0 -80.5 40t-27.5 74q2 10 11 18t22 8h35v177q-15 -10 -32.5 -14t-29.5 -4q-51 0 -81.5 30t-30.5 79q0 46 34.5 75t80.5 29q60 0 93.5 -44t33.5 -116v-212h246v-14zM97 583q0 -23 16 -37
t37 -14q13 0 28.5 6t28.5 16q-1 38 -16 59.5t-43 21.5q-21 0 -36 -13.5t-15 -38.5z" />
    <glyph glyph-name="dv_GRYa" horiz-adv-x="916" 
d="M725 626h-250q19 -16 31.5 -45.5t12.5 -70.5q0 -48 -22.5 -95t-69.5 -71q10 -42 53 -73.5t99 -34.5q69 0 107.5 40t38.5 111v239zM373 377q31 9 56.5 46.5t25.5 92.5q0 42 -21.5 70t-58.5 40h-183v-401q0 -19 -7 -31t-21 -12q-49 0 -81.5 40t-25.5 74q1 10 10 18t21 8h35
v304h-120l-14 54h923l15 -54h-134v-642l-68 16v231q-26 -25 -63 -39t-83 -14q-43 0 -81 14t-67 38l-294 -268l-51 37l304 274q-13 20 -21 43t-8 47z" />
    <glyph glyph-name="dv_ChRYa" horiz-adv-x="1334" 
d="M461 407q0 64 39.5 108.5t99.5 44.5q28 0 50.5 -7t38.5 -18h133q53 0 81.5 -26.5t28.5 -57.5q0 -40 -19.5 -61.5t-66.5 -45.5q10 -42 53 -73.5t98 -34.5q70 0 108.5 40t38.5 111v239h-919q-34 -14 -51.5 -43t-17.5 -65q0 -61 43 -99t133 -38h28l21 -49h-42
q-104 0 -150.5 -41.5t-46.5 -110.5q0 -73 63.5 -106.5t133.5 -33.5q107 0 188.5 64t106.5 141q-61 -1 -117 46.5t-56 115.5zM661 289q13 26 21 55t8 59q0 38 -19 69t-65 31q-39 0 -60.5 -28t-21.5 -68q0 -51 45 -83.5t92 -34.5zM230 -147l-40 35l90 100q-91 10 -150 59.5
t-59 134.5q0 49 30 103t108 73q-64 19 -94 68t-30 93q0 30 11.5 58t30.5 49h-122l-16 54h1341l15 -54h-133v-642l-68 16v231q-25 -25 -62.5 -39t-84.5 -14q-89 0 -153 56.5t-64 128.5l12 14q31 9 56.5 25.5t25.5 39.5q0 15 -12.5 27.5t-51.5 12.5h-76q9 -19 13.5 -38.5
t4.5 -36.5q0 -103 -91 -248.5t-268 -170.5l92 -100l-40 -35l-107 118z" />
    <glyph glyph-name="dv_TtTtYa" horiz-adv-x="1128" 
d="M457 626v-100h160q52 0 81 -27t29 -59q0 -40 -20 -61t-67 -45q10 -43 53 -74t99 -35q69 0 108 41t39 111v249h-482zM133 -169q0 -81 57.5 -119t130.5 -38q48 0 89.5 12.5t87.5 43.5l9 -62q-38 -29 -83 -41.5t-103 -12.5q-115 0 -187 56.5t-72 160.5q0 111 78 162t173 51
h76v61q-16 -2 -33 -3t-35 -1q-115 0 -188 56t-73 160q0 110 78.5 162t172.5 52h77v95h-385l-14 54h1136l15 -54h-133v-642l-68 16v222q-26 -25 -63.5 -40t-83.5 -15q-89 0 -153 57t-64 129l12 14q31 9 56 25.5t25 39.5q0 14 -12 27t-52 13h-295q-67 0 -122 -38t-55 -117
q0 -81 57 -119t132 -38q47 -1 88.5 12t87.5 45l9 -63q-12 -9 -24 -16t-24 -13v-140l-148 1q-67 1 -122 -37t-55 -118z" />
    <glyph glyph-name="dv_TthTthYa" horiz-adv-x="1216" 
d="M358 626v-72q57 -3 107.5 -24.5t82.5 -60.5h155q54 0 82.5 -26.5t28.5 -58.5q0 -40 -19.5 -61.5t-66.5 -45.5q10 -42 53 -73.5t98 -34.5q70 0 109 40.5t39 111.5v305h-669zM132 330q0 -88 60.5 -125.5t135.5 -37.5q84 0 140 45t56 120q0 78 -58.5 121.5t-137.5 43.5
q-74 -1 -135 -46.5t-61 -120.5zM290 109q-93 9 -161 63t-68 158q0 93 66.5 153t162.5 70v73h-287l-14 54h1223l14 -54h-131v-642l-68 16v165q-26 -25 -64 -39.5t-84 -14.5q-87 0 -151.5 57t-64.5 128l10 14q32 10 57 26t25 39q0 15 -12 28t-51 13h-113q7 -19 11 -40t4 -44
q0 -100 -69.5 -157.5t-166.5 -65.5v-50q96 -4 166 -59.5t70 -161.5q0 -107 -79.5 -165.5t-186.5 -58.5q-104 0 -185.5 53.5t-81.5 169.5q0 92 66.5 152.5t162.5 69.5v50zM132 -163q0 -89 60.5 -126t135.5 -37q84 0 140 44.5t56 119.5q0 79 -58.5 122t-137.5 43
q-74 -1 -135 -46t-61 -120z" />
    <glyph glyph-name="dv_DdDdYa" horiz-adv-x="1015" 
d="M366 626v-89h137q54 0 82.5 -26t28.5 -59q0 -40 -19.5 -61t-66.5 -45q9 -43 52.5 -74.5t99.5 -33.5q69 0 108 40t39 110v238h-461zM71 -279q30 -20 73 -35t86 -16q50 1 77.5 22t27.5 54q0 36 -24 59.5t-63 23.5h-70q-54 0 -90 33.5t-36 78.5q0 49 35.5 80.5t87.5 31.5
h122v59q-15 -4 -31.5 -6t-35.5 -2q-49 0 -97.5 14.5t-71.5 31.5l10 60q30 -20 73 -35t86 -16q50 1 77.5 22t27.5 55q0 36 -24 59.5t-63 23.5h-70q-54 0 -90 33t-36 77q0 50 35.5 81.5t87.5 31.5h122v84h-294l-14 54h1023l15 -54h-133v-642l-67 16v233q-26 -25 -63.5 -39
t-83.5 -14q-89 0 -153 56.5t-64 128.5l11 14q31 9 56 25t25 40q0 14 -12 27t-51 13h-304q-31 0 -50 -14.5t-19 -40.5q0 -25 20 -39.5t51 -14.5h57q74 0 115.5 -40t41.5 -100q0 -25 -9.5 -47.5t-28.5 -39.5v-154h-178q-31 0 -50 -14t-19 -39q0 -26 20 -40.5t51 -14.5h57
q74 0 115.5 -40t41.5 -101q0 -53 -45 -92t-129 -39q-49 0 -97.5 15t-71.5 31z" />
    <glyph glyph-name="dv_DdhDdhYa" horiz-adv-x="1119" 
d="M457 626v-100h151q53 0 81.5 -27t28.5 -59q0 -40 -19.5 -61t-66.5 -45q10 -43 52.5 -74t98.5 -35q70 0 108.5 41t38.5 111v249h-473zM390 315q-29 0 -50.5 -18.5t-21.5 -54.5q0 -27 14.5 -49.5t41.5 -35.5q46 11 65 37t19 55t-18 47.5t-50 18.5zM133 -169
q0 -81 55.5 -119t109.5 -38q-21 14 -29.5 38t-8.5 49q0 51 39 85.5t90 34.5q53 0 89 -32t36 -85q0 -62 -49.5 -106t-143.5 -44q-115 0 -187 56.5t-72 160.5q0 111 78 162t173 51h76v64q-16 -4 -32.5 -5.5t-35.5 -1.5q-115 0 -188 56t-73 160q0 110 78.5 162t172.5 52h77v95
h-385l-14 54h1127l14 -54h-132v-642l-68 16v222q-25 -25 -62.5 -40t-84.5 -15q-87 0 -152 57t-65 129l11 14q31 9 56.5 25.5t25.5 39.5q0 14 -12 27t-51 13h-287q-67 0 -122 -38t-55 -117q0 -81 55.5 -119t109.5 -38q-21 14 -29.5 38t-8.5 49q0 51 39 85.5t90 34.5
q52 0 89 -32t37 -84q0 -34 -14.5 -62.5t-41.5 -48.5v-155l-148 1q-67 1 -122 -37t-55 -118zM391 -172q-28 0 -50 -18.5t-22 -53.5q0 -26 14.5 -48.5t41.5 -35.5q45 10 65 35.5t20 55.5q0 28 -18.5 46.5t-50.5 18.5z" />
    <glyph glyph-name="dv_DdhRYa" horiz-adv-x="1143" 
d="M497 626v-134h134q53 0 81.5 -26.5t28.5 -59.5q0 -39 -20 -60.5t-67 -45.5q10 -42 53.5 -73.5t98.5 -34.5q69 0 108 40.5t39 110.5v283h-456zM252 -147l-39 35l87 98q-97 12 -168.5 71t-71.5 182q0 122 90.5 190.5t221.5 68.5h56v128h-425l-14 54h1151l14 -54h-133v-642
l-68 16v188q-26 -25 -63.5 -39.5t-83.5 -14.5q-89 0 -153 57t-64 129l12 13q31 10 56 26t25 39q0 16 -12 28t-52 12h-246q-103 0 -171.5 -52t-68.5 -147q0 -104 62 -149t150 -49q-23 19 -38.5 46.5t-15.5 57.5q0 58 39.5 100.5t105.5 42.5q67 0 107 -37t40 -97
q0 -61 -46 -107.5t-121 -59.5l91 -99l-40 -35l-106 118zM440 227q-34 0 -59 -21t-25 -61q0 -31 17.5 -57t48.5 -40q51 11 74 40.5t23 63.5q0 32 -21 53.5t-58 21.5z" />
    <glyph glyph-name="dv_DGRa" horiz-adv-x="593" 
d="M538 -12l-52 -31l-71 133h-1l-17 -3l-76 -137l-70 18l70 115q-34 1 -67 8t-62 20v-191q0 -19 -7 -31t-21 -12q-49 0 -81.5 40t-25.5 75q1 10 10 17.5t21 7.5h35v139q-29 28 -46.5 67t-17.5 90q0 107 83 166.5t207 59.5h44v87h-390l-14 54h599l15 -54h-141v-145h-113
q-94 0 -156 -45.5t-62 -122.5q0 -86 61 -128t145 -42q13 0 25 1t25 2q-2 8 -4 18.5t-2 21.5q0 20 13 32.5t34 12.5q22 0 50.5 -17t28.5 -45q0 -14 -9.5 -30t-28.5 -31z" />
    <glyph glyph-name="dv_DDYa" horiz-adv-x="1074" 
d="M419 626v-84h143q54 0 82 -27.5t28 -58.5q0 -40 -19 -61t-67 -45q10 -43 53.5 -74t97.5 -35q71 0 109 40.5t38 111.5v233h-465zM403 5q-26 -9 -56.5 -15t-64.5 -6q-110 0 -166.5 52.5t-56.5 127.5q0 31 17.5 71t68.5 68q-31 18 -49 48.5t-18 67.5q0 53 39 89.5t103 36.5
h130v81h-347l-14 54h1082l14 -54h-132v-642l-69 16v237q-25 -25 -63 -39t-84 -14q-88 0 -152.5 56.5t-64.5 128.5l12 15q31 8 56.5 24.5t25.5 39.5q0 14 -12.5 27t-51.5 13h-328q-40 0 -58.5 -20t-18.5 -49q0 -28 18.5 -53t58.5 -25h107l-2 -1h59l19 -53h-84
q-101 0 -146.5 -32.5t-44.5 -92.5q1 -59 43 -90.5t105 -31.5q26 0 51 4.5t47 11.5q-3 9 -4.5 22.5t-1.5 23.5q0 19 12.5 32.5t33.5 13.5q23 0 51.5 -17.5t28.5 -45.5q0 -15 -10 -30.5t-28 -30.5l70 -120l-53 -32z" />
    <glyph glyph-name="dv_DBRa" horiz-adv-x="593" 
d="M184 41q0 -60 37 -96.5t91 -36.5q13 0 26 2.5t24 6.5l-163 188q-7 -14 -11 -30.5t-4 -33.5zM414 90q-19 -4 -38.5 -5.5t-38.5 -1.5q-15 0 -29.5 1t-28.5 3l127 -144q17 17 27 41.5t11 53.5l-29 52h-1zM584 -88l-51 -32l-49 88q-13 -34 -39 -61t-65 -40l-63 -113l-71 19
l55 84q-78 4 -131.5 53t-53.5 130q0 27 7.5 52.5t20.5 46.5q-38 28 -61.5 71.5t-23.5 102.5q0 107 83 166.5t207 59.5h44v87h-390l-14 54h599l15 -54h-141v-145h-113q-94 0 -156 -45.5t-62 -122.5q0 -86 61 -128t145 -42q13 0 25 1t25 2q-2 8 -4 18.5t-2 21.5q0 20 13 32.5
t34 12.5q22 0 50.5 -17t28.5 -45q0 -14 -9.5 -30t-28.5 -31z" />
    <glyph glyph-name="dv_DRYa" horiz-adv-x="756" 
d="M130 162q1 -59 48 -90.5t110 -31.5q22 0 46 3.5t46 10.5l186 168v404h-147v-138h-197q-40 0 -58.5 -20t-18.5 -49q0 -28 18.5 -53t58.5 -25h107l-1 -1h58l19 -53h-84q-101 0 -146.5 -32.5t-44.5 -92.5zM282 -118l-51 37l71 65h-10q-116 0 -174.5 52.5t-58.5 127.5
q0 31 17.5 71t67.5 69q-31 16 -48.5 47t-17.5 68q0 53 39 89.5t103 36.5h130v81h-347l-14 54h763l15 -54h-133v-642l-68 16v140z" />
    <glyph glyph-name="dv_DVYa" horiz-adv-x="1102" 
d="M462 626v-92h128q53 0 82 -26.5t29 -58.5q0 -40 -20 -61.5t-67 -45.5q10 -42 53 -73t99 -35q70 0 108.5 40.5t38.5 111.5v240h-451zM184 41q0 -60 37 -96.5t91 -36.5q57 0 94 36t38 94l-29 52h-1q-19 -4 -38.5 -5.5t-38.5 -1.5q-36 0 -71 6t-66 19q-7 -15 -11.5 -32
t-4.5 -35zM584 -88l-51 -32l-49 88q-18 -47 -61 -79.5t-109 -32.5q-82 0 -140 49.5t-58 134.5q0 27 7.5 52.5t20.5 46.5q-38 28 -61.5 71.5t-23.5 102.5q0 107 83 166.5t207 59.5h44v87h-390l-14 54h1109l16 -54h-134v-642l-67 16v230q-26 -25 -63.5 -39.5t-83.5 -14.5
q-89 0 -153 56.5t-64 127.5l12 15q30 10 55 26t25 39q0 15 -12 28t-52 13h-228q-94 0 -156 -45.5t-62 -122.5q0 -86 61 -128t145 -42q13 0 25 1t25 2q-2 8 -4 18.5t-2 21.5q0 20 13 32.5t34 12.5q22 0 50.5 -17t28.5 -45q0 -14 -9.5 -30t-28.5 -31z" />
    <glyph glyph-name="dv_DVRa" horiz-adv-x="593" 
d="M184 41q0 -60 37 -96.5t91 -36.5q57 0 94 36t38 94l-29 52h-1q-19 -4 -38.5 -5.5t-38.5 -1.5q-36 0 -71 6t-66 19q-7 -15 -11.5 -32t-4.5 -35zM584 -88l-51 -32l-49 88q-13 -34 -39 -61t-65 -40l-63 -113l-71 19l55 84q-78 4 -131.5 53t-53.5 130q0 27 7.5 52.5
t20.5 46.5q-38 28 -61.5 71.5t-23.5 102.5q0 107 83 166.5t207 59.5h44v87h-390l-14 54h599l15 -54h-141v-145h-113q-94 0 -156 -45.5t-62 -122.5q0 -86 61 -128t145 -42q13 0 25 1t25 2q-2 8 -4 18.5t-2 21.5q0 20 13 32.5t34 12.5q22 0 50.5 -17t28.5 -45q0 -14 -9.5 -30
t-28.5 -31z" />
    <glyph glyph-name="dv_DhNYa" horiz-adv-x="1041" 
d="M850 626h-250q19 -16 32 -45.5t13 -70.5q0 -48 -22.5 -95t-70.5 -71q10 -42 53.5 -73.5t97.5 -34.5q72 0 109.5 40t37.5 111v239zM498 377q31 9 56.5 46.5t25.5 92.5q0 42 -21.5 70t-58.5 40h-34l-14 54h585l14 -54h-133v-642l-68 16v231q-26 -25 -63 -39t-84 -14
q-43 0 -82.5 15.5t-69.5 40.5l-239 -218q19 -9 35 -24.5t16 -37.5q0 -26 -30 -34t-49 -8q-29 0 -57.5 16.5t-28.5 50.5q0 17 44.5 57.5t55.5 50.5q-78 0 -148 39.5t-70 129.5q0 48 23.5 92.5t74.5 56.5q-43 13 -65.5 51.5t-22.5 81.5q0 74 53 115t122 41q30 0 72.5 -13.5
t60.5 -39.5l-30 -41q-19 21 -46 29t-54 8q-44 0 -75.5 -27t-31.5 -73q0 -78 57 -93.5t117 -15.5l21 -48q-71 0 -138.5 -16t-67.5 -109q0 -56 50.5 -82t97.5 -26q20 0 40 3t39 9l134 121q-12 19 -18.5 40t-6.5 43z" />
    <glyph glyph-name="dv_NNYa" horiz-adv-x="897" 
d="M708 626h-250q19 -16 31.5 -45.5t12.5 -70.5q0 -48 -23 -95t-70 -71q10 -42 53 -73.5t99 -34.5q70 0 108.5 40t38.5 111v239zM376 386q25 16 43 50t18 80q0 42 -21 70t-58 40h-355l-14 54h906l14 -54h-133v-642l-68 16v231q-26 -25 -63 -39t-84 -14q-65 0 -118.5 31.5
t-78.5 79.5l-194 -112l22 -38q4 -9 7 -16.5t3 -14.5t-3.5 -13t-9.5 -10q-11 -7 -24 -10t-25 -3q-34 0 -63 17.5t-38 41.5q-4 10 0.5 25t14.5 21l285 163l-180 106l-23 -40q-10 -16 -22 -23.5t-25 1.5q-26 14 -39 42t-13 56q0 16 5 29.5t12 23.5q7 12 20.5 15.5t19.5 -0.5z
" />
    <glyph glyph-name="dv_PTthYa" horiz-adv-x="1126" 
d="M171 509q0 -66 35 -108.5t98 -42.5q66 0 99.5 41.5t33.5 109.5v117h-266v-117zM505 626v-74h108q54 0 82.5 -27t28.5 -59q0 -40 -19.5 -61t-67.5 -45q10 -42 53.5 -73.5t98.5 -33.5q69 0 108 40t39 110v223h-431zM601 498h-96q-2 -59 -26 -101.5t-63 -66.5
q45 -24 71.5 -66t26.5 -96q0 -81 -57 -134t-150 -53q-91 0 -151.5 51.5t-60.5 134.5q0 54 25 96.5t71 66.5q-40 25 -63.5 70.5t-23.5 108.5v117h-101l-14 54h1133l15 -54h-133v-642l-68 16v247q-25 -25 -63 -39t-84 -14q-88 0 -153 56.5t-65 128.5l13 14q31 9 56.5 25.5
t25.5 39.5q0 14 -12.5 27t-52.5 13zM167 168q0 -57 38.5 -93.5t98.5 -36.5q63 0 99.5 37t36.5 92q0 57 -37 94t-99 37q-63 0 -100 -37t-37 -93z" />
    <glyph glyph-name="dv_BhRYa" horiz-adv-x="1017" 
d="M97 583q0 -23 16 -37t37 -14q13 0 28.5 6t28.5 16q-1 38 -16 59.5t-43 21.5q-21 0 -36 -13.5t-15 -38.5zM828 626h-251q19 -16 32 -45.5t13 -70.5q0 -48 -22.5 -95t-69.5 -71q9 -42 52 -73.5t99 -34.5q69 0 108 40t39 111v239zM475 377q31 9 56.5 46.5t25.5 92.5
q0 42 -21.5 70t-58.5 40h-76l-15 54h628l15 -54h-133v-642l-68 16v231q-25 -25 -63 -39t-84 -14t-88 17t-72 45l-307 -258l-51 38l312 250h-199v-45q0 -19 -7 -31t-21 -12q-48 0 -80.5 40t-27.5 74q2 10 11 18t22 8h35v177q-15 -10 -32.5 -14t-29.5 -4q-51 0 -81.5 30
t-30.5 79q0 46 34.5 75t80.5 29q60 0 93.5 -44t33.5 -116v-212h193q-3 10 -4.5 20.5t-1.5 20.5z" />
    <glyph glyph-name="dv_ShRYa" horiz-adv-x="976" 
d="M125 568q0 53 38.5 89.5t94.5 36.5q16 0 32 -3.5t29 -10.5h654l15 -54h-133v-642l-68 16v231q-26 -25 -63 -39t-84 -14q-34 0 -65.5 8.5t-56.5 24.5l-316 -227l-37 56l278 193l-185 140l-198 -154l-26 60l173 133q-49 42 -65.5 80.5t-16.5 75.5zM323 566q0 29 -18 49
t-47 20q-30 0 -48 -20t-18 -49q0 -26 13 -53t53 -61q39 34 52 61t13 53zM435 377q31 9 56 46.5t25 92.5q0 42 -21.5 70t-58.5 40h-61q7 -13 10.5 -27.5t3.5 -30.5q0 -37 -16.5 -75.5t-63.5 -80.5l121 -93q-4 10 -5.5 21.5t-1.5 22.5zM787 626h-252q20 -16 32.5 -45.5
t12.5 -70.5q0 -48 -22 -95t-70 -71q10 -42 53.5 -73.5t98.5 -34.5q70 0 108.5 40t38.5 111v239z" />
    <glyph glyph-name="dv_SsTtYa" horiz-adv-x="1126" 
d="M437 626h-211l199 -190q6 16 9 34.5t3 38.5v117zM505 626v-74h108q54 0 82.5 -27t28.5 -59q0 -40 -19.5 -61t-67.5 -45q10 -42 53.5 -73.5t98.5 -33.5q69 0 108 40t39 110v223h-431zM171 509q0 -66 35 -108.5t98 -42.5q29 0 52.5 8.5t39.5 24.5l-225 210v-92zM167 168
q0 -57 40 -93.5t109 -36.5q47 0 88.5 14.5t79.5 44.5l9 -59q-32 -27 -78 -42t-97 -15q-94 0 -158.5 48.5t-64.5 137.5q0 54 25 96.5t71 66.5q-40 25 -63.5 70.5t-23.5 108.5v117h-101l-14 54h1133l15 -54h-133v-642l-68 16v247q-25 -25 -63 -39t-84 -14q-88 0 -153 56.5
t-65 128.5l13 14q31 9 56.5 25.5t25.5 39.5q0 14 -12.5 27t-52.5 13h-96q-4 -94 -60 -146t-141 -52h-10.5t-9.5 1q-54 -7 -85.5 -44.5t-31.5 -88.5z" />
    <glyph glyph-name="dv_SsTtVa" horiz-adv-x="608" 
d="M437 626h-218l203 -198q7 17 11 37.5t4 43.5v117zM171 509q0 -66 35 -108.5t98 -42.5q26 0 47 6.5t37 19.5l-217 213v-88zM167 168q0 -57 40 -93.5t109 -36.5q47 0 88.5 14.5t79.5 44.5l9 -59l-5 -4v-392l-68 16v83q-20 -25 -55.5 -43.5t-86.5 -18.5q-91 0 -144 48.5
t-53 126.5q0 50 27 92t75 67q-40 23 -64 62t-24 92q0 54 25 96.5t71 66.5q-40 25 -63.5 70.5t-23.5 108.5v117h-101l-14 54h616l15 -54h-115v-117q0 -99 -57 -154t-144 -55h-10.5t-9.5 1q-54 -7 -85.5 -44.5t-31.5 -88.5zM420 -2q-23 -8 -49 -12.5t-53 -4.5q-10 0 -20 1
l-20 2q-50 -7 -86 -45.5t-36 -84.5q0 -54 31.5 -86t88.5 -32q51 0 91 30.5t53 61.5v170z" />
    <glyph glyph-name="dv_SsTthYa" horiz-adv-x="1126" 
d="M437 626h-211l199 -190q6 16 9 34.5t3 38.5v117zM505 626v-74h108q54 0 82.5 -27t28.5 -59q0 -40 -19.5 -61t-67.5 -45q10 -42 53.5 -73.5t98.5 -33.5q69 0 108 40t39 110v223h-431zM171 509q0 -66 35 -108.5t98 -42.5q29 0 52.5 8.5t39.5 24.5l-225 210v-92zM601 498
h-96q-2 -59 -26 -101.5t-63 -66.5q45 -24 71.5 -66t26.5 -96q0 -81 -57 -134t-150 -53q-91 0 -151.5 51.5t-60.5 134.5q0 54 25 96.5t71 66.5q-40 25 -63.5 70.5t-23.5 108.5v117h-101l-14 54h1133l15 -54h-133v-642l-68 16v247q-25 -25 -63 -39t-84 -14q-88 0 -153 56.5
t-65 128.5l13 14q31 9 56.5 25.5t25.5 39.5q0 14 -12.5 27t-52.5 13zM167 168q0 -57 38.5 -93.5t98.5 -36.5q63 0 99.5 37t36.5 92q0 57 -37 94t-99 37q-63 0 -100 -37t-37 -93z" />
    <glyph glyph-name="dv_HMYa" horiz-adv-x="1409" 
d="M3 626l-14 54h1416l15 -54h-133v-642l-67 16v231q-26 -25 -63.5 -39t-83.5 -14q-58 0 -107.5 26t-78.5 66h-238v-45q0 -19 -7 -31t-21 -12q-49 0 -81.5 40t-25.5 74q1 5 4 10t7 9h-235q-60 0 -99.5 -33.5t-39.5 -84.5q0 -81 76.5 -116.5t148.5 -41.5l-15 -55
q-106 6 -191 60t-85 153q0 45 16 76t44 53q-22 15 -36.5 42.5t-14.5 58.5q1 54 35.5 86t98.5 32h147v81h-372zM160 428q0 -20 13 -41.5t34 -28.5q19 7 41 10t44 3h288v255h-138v-138h-212q-32 0 -50.5 -17t-19.5 -43zM867 377q31 9 56.5 46.5t25.5 92.5q0 42 -21.5 70
t-58.5 40h-220v-304h212q-3 10 -4.5 20.5t-1.5 20.5zM1220 626h-251q19 -16 31.5 -45.5t12.5 -70.5q0 -48 -22.5 -95t-70.5 -71q10 -42 53.5 -73.5t99.5 -34.5q69 0 108 40t39 111v239z" />
    <glyph glyph-name="dv_NgYa" horiz-adv-x="1143" 
d="M433 626v-114h198q53 0 81.5 -27t28.5 -59q0 -40 -20 -61t-67 -44q10 -44 53.5 -75t98.5 -34q69 0 108 40.5t39 109.5v264h-520zM76 97q36 -25 90 -42t107 -18q62 1 104 29t42 77v1q0 48 -33 78.5t-84 30.5h-95q-58 0 -106.5 38t-48.5 93q0 60 44.5 95.5t108.5 35.5h159
v111h-361l-14 54h1151l14 -54h-133v-642l-68 16v207q-26 -25 -63.5 -39t-83.5 -14q-89 0 -153 56.5t-64 127.5l12 15q31 9 56 25.5t25 40.5q0 13 -12 26t-52 13h-413q-39 0 -62 -21.5t-23 -52.5q0 -33 24 -54t63 -21h86q92 0 143.5 -42.5t51.5 -123.5q0 -66 -56 -114
t-159 -48q-61 0 -120.5 18t-88.5 39zM509 321q-21 0 -36 15t-15 36q0 22 15 38t36 16q22 0 37 -16t15 -38q0 -21 -15 -36t-37 -15z" />
    <glyph glyph-name="dv_TtTta" horiz-adv-x="563" 
d="M133 -169q0 -81 57.5 -119t130.5 -38q48 0 89.5 12.5t87.5 43.5l9 -62q-38 -29 -83 -41.5t-103 -12.5q-115 0 -187 56.5t-72 160.5q0 111 78 162t173 51h76v61q-16 -2 -33 -3t-35 -1q-115 0 -188 56t-73 160q0 110 78.5 162t172.5 52h77v95h-385l-14 54h571l14 -54h-117
v-155l-148 1q-67 0 -122 -38t-55 -117q0 -81 57 -119t132 -38q47 -1 88.5 12t87.5 45l9 -63q-12 -9 -24 -16t-24 -13v-140l-148 1q-67 1 -122 -37t-55 -118z" />
    <glyph glyph-name="dv_TtTtha" horiz-adv-x="625" 
d="M132 317q0 -81 57 -119t132 -38q47 -1 88.5 12t87.5 45l9 -63q-33 -25 -69 -37t-79 -15v-43q96 -4 166 -59.5t70 -161.5q0 -107 -79.5 -165.5t-186.5 -58.5q-104 0 -185.5 53.5t-81.5 169.5q0 92 66.5 152.5t162.5 69.5v43q-102 7 -166 62t-64 153q0 110 78.5 162
t172.5 52h77v95h-385l-14 54h633l14 -54h-179v-155l-148 1q-67 0 -122 -38t-55 -117zM132 -163q0 -89 60.5 -126t135.5 -37q84 0 140 44.5t56 119.5q0 79 -58.5 122t-137.5 43q-74 -1 -135 -46t-61 -120z" />
    <glyph glyph-name="dv_TtDdha" horiz-adv-x="563" 
d="M133 -169q0 -81 55.5 -119t109.5 -38q-21 14 -29.5 38t-8.5 49q0 51 39 85.5t90 34.5q53 0 89 -32t36 -85q0 -62 -49.5 -106t-143.5 -44q-115 0 -187 56.5t-72 160.5q0 111 78 162t173 51h76v61q-16 -2 -33 -3t-35 -1q-115 0 -188 56t-73 160q0 110 78.5 162t172.5 52h77
v95h-385l-14 54h571l14 -54h-117v-155l-148 1q-67 0 -122 -38t-55 -117q0 -81 57 -119t132 -38q47 -1 88.5 12t87.5 45l9 -63q-12 -9 -24 -16t-24 -13v-140l-148 1q-67 1 -122 -37t-55 -118zM391 -172q-28 0 -50 -18.5t-22 -53.5q0 -26 14.5 -48.5t41.5 -35.5q45 10 65 35.5
t20 55.5q0 28 -18.5 46.5t-50.5 18.5z" />
    <glyph glyph-name="dv_TtYa" horiz-adv-x="1143" 
d="M497 626v-157h134q53 0 81.5 -26.5t28.5 -58.5q0 -40 -20 -61.5t-67 -45.5q10 -42 53.5 -73.5t98.5 -34.5q69 0 108 40.5t39 111.5v305h-456zM132 227q0 -109 67.5 -147.5t160.5 -38.5q55 0 104.5 15t95.5 48l8 -63q-38 -29 -93 -44t-115 -15q-115 0 -207.5 52t-92.5 193
q0 124 90.5 186t221.5 62h56v151h-425l-14 54h1151l14 -54h-133v-642l-68 16v165q-26 -25 -63.5 -39.5t-83.5 -14.5q-89 0 -153 57t-64 128l12 14q31 10 56 26t25 39q0 15 -12 28t-52 13h-246q-103 0 -171.5 -46.5t-68.5 -142.5z" />
    <glyph glyph-name="dv_TtVa" horiz-adv-x="625" 
d="M132 227q0 -109 67.5 -147.5t160.5 -38.5q55 0 104.5 15t95.5 48l8 -63q-9 -7 -19.5 -13.5t-20.5 -11.5v-374l-69 16v83q-19 -25 -54.5 -43.5t-86.5 -18.5q-91 0 -144.5 48.5t-53.5 126.5q0 46 23.5 86t65.5 65q-65 23 -107 76t-42 146q0 124 90.5 186t221.5 62h56v151
h-425l-14 54h633l14 -54h-139v-210h-125q-103 0 -171.5 -46.5t-68.5 -142.5zM459 -7q-24 -5 -49 -8t-50 -3q-10 0 -21 0.5t-21 1.5q-51 -7 -86.5 -45t-35.5 -85q0 -54 31.5 -86t88.5 -32q51 0 90.5 30.5t52.5 61.5v165z" />
    <glyph glyph-name="dv_TthTtha" horiz-adv-x="650" 
d="M661 626h-303v-72q96 -5 166 -61t70 -161q0 -100 -69.5 -157.5t-166.5 -65.5v-50q96 -4 166 -59.5t70 -161.5q0 -107 -79.5 -165.5t-186.5 -58.5q-104 0 -185.5 53.5t-81.5 169.5q0 92 66.5 152.5t162.5 69.5v50q-93 9 -161 63t-68 158q0 93 66.5 153t162.5 70v73h-287
l-14 54h657zM132 330q0 -88 60.5 -125.5t135.5 -37.5q84 0 140 45t56 120q0 78 -58.5 121.5t-137.5 43.5q-74 -1 -135 -46.5t-61 -120.5zM132 -163q0 -89 60.5 -126t135.5 -37q84 0 140 44.5t56 119.5q0 79 -58.5 122t-137.5 43q-74 -1 -135 -46t-61 -120z" />
    <glyph glyph-name="dv_TthYa" horiz-adv-x="1233" 
d="M390 626v-153q10 -1 21 -2t21 -2h288q54 0 83 -26.5t29 -58.5q0 -40 -20 -61.5t-67 -45.5q10 -42 53 -73.5t99 -34.5q69 0 108 40.5t39 111.5v305h-654zM132 227q0 -109 67.5 -147.5t160.5 -38.5t161 46t68 142q0 108 -68 147t-161 40q-91 -1 -159.5 -47t-68.5 -142z
M360 -18q-114 0 -206.5 52t-92.5 193q0 113 77.5 174t183.5 71v154h-319l-14 54h1240l15 -54h-132v-642l-68 16v165q-26 -25 -63.5 -39.5t-83.5 -14.5q-89 0 -153 57t-64 128l11 14q31 10 56 26t25 39q0 15 -12 28t-52 13h-133q38 -28 61 -74.5t23 -112.5q0 -126 -90 -186.5
t-209 -60.5z" />
    <glyph glyph-name="dv_DdTta" horiz-adv-x="446" 
d="M62 -169q0 -81 57 -119t132 -38q47 0 89 12.5t88 43.5l8 -62q-37 -29 -82.5 -41.5t-102.5 -12.5q-115 0 -187 56.5t-72 160.5q0 111 78 162t172 51h78v76q-19 -7 -41.5 -11.5t-48.5 -4.5q-49 0 -97.5 14.5t-71.5 31.5l10 60q30 -20 73 -35t86 -16q50 1 77.5 22t27.5 55
q0 36 -24 59.5t-63 23.5h-70q-54 0 -90 33t-36 77q0 50 35.5 81.5t87.5 31.5h122v84h-294l-14 54h453l15 -54h-91v-142h-178q-31 0 -50 -14.5t-19 -40.5q0 -25 20 -39.5t51 -14.5h57q74 0 115.5 -40t41.5 -100q0 -16 -4.5 -32t-12.5 -29v-189l-147 1q-67 1 -122.5 -37
t-55.5 -118z" />
    <glyph glyph-name="dv_DdDda" horiz-adv-x="446" 
d="M71 -279q30 -20 73 -35t86 -16q50 1 77.5 22t27.5 54q0 36 -24 59.5t-63 23.5h-70q-54 0 -90 33.5t-36 78.5q0 49 35.5 80.5t87.5 31.5h122v59q-15 -4 -31.5 -6t-35.5 -2q-49 0 -97.5 14.5t-71.5 31.5l10 60q30 -20 73 -35t86 -16q50 1 77.5 22t27.5 55q0 36 -24 59.5
t-63 23.5h-70q-54 0 -90 33t-36 77q0 50 35.5 81.5t87.5 31.5h122v84h-294l-14 54h453l15 -54h-91v-142h-178q-31 0 -50 -14.5t-19 -40.5q0 -25 20 -39.5t51 -14.5h57q74 0 115.5 -40t41.5 -100q0 -25 -9.5 -47.5t-28.5 -39.5v-154h-178q-31 0 -50 -14t-19 -39
q0 -26 20 -40.5t51 -14.5h57q74 0 115.5 -40t41.5 -101q0 -53 -45 -92t-129 -39q-49 0 -97.5 15t-71.5 31z" />
    <glyph glyph-name="dv_DdDdha" horiz-adv-x="446" 
d="M62 -169q0 -81 56 -119t110 -38q-22 14 -30 38t-8 49q0 51 39 85.5t91 34.5q51 0 87.5 -32t36.5 -85q0 -62 -50 -106t-143 -44q-115 0 -187 56.5t-72 160.5q0 111 78 162t172 51h78v76q-19 -7 -41.5 -11.5t-48.5 -4.5q-49 0 -97.5 14.5t-71.5 31.5l10 60q30 -20 73 -35
t86 -16q50 1 77.5 22t27.5 55q0 36 -24 59.5t-63 23.5h-70q-54 0 -90 33t-36 77q0 50 35.5 81.5t87.5 31.5h122v84h-294l-14 54h453l15 -54h-91v-142h-178q-31 0 -50 -14.5t-19 -40.5q0 -25 20 -39.5t51 -14.5h57q74 0 115.5 -40t41.5 -100q0 -16 -4.5 -32t-12.5 -29v-189
l-147 1q-67 1 -122.5 -37t-55.5 -118zM321 -172q-30 0 -51.5 -18.5t-21.5 -53.5q0 -26 15 -48.5t41 -35.5q46 10 65.5 35.5t19.5 55.5q0 28 -18.5 46.5t-49.5 18.5z" />
    <glyph glyph-name="dv_DdYa" horiz-adv-x="1143" 
d="M433 626v-114h198q53 0 81.5 -27t28.5 -59q0 -40 -20 -61t-67 -44q10 -44 53.5 -75t98.5 -34q69 0 108 40.5t39 109.5v264h-520zM76 97q36 -25 90 -42t107 -18q62 1 104 29t42 77v1q0 48 -33 78.5t-84 30.5h-95q-58 0 -106.5 38t-48.5 93q0 60 44.5 95.5t108.5 35.5h159
v111h-361l-14 54h1151l14 -54h-133v-642l-68 16v207q-26 -25 -63.5 -39t-83.5 -14q-89 0 -153 56.5t-64 127.5l12 15q31 9 56 25.5t25 40.5q0 13 -12 26t-52 13h-413q-39 0 -62 -21.5t-23 -52.5q0 -33 24 -54t63 -21h86q92 0 143.5 -42.5t51.5 -123.5q0 -66 -56 -114
t-159 -48q-61 0 -120.5 18t-88.5 39z" />
    <glyph glyph-name="dv_DdhDdha" horiz-adv-x="563" 
d="M390 315q-29 0 -50.5 -18.5t-21.5 -54.5q0 -27 14.5 -49.5t41.5 -35.5q46 11 65 37t19 55t-18 47.5t-50 18.5zM133 -169q0 -81 55.5 -119t109.5 -38q-21 14 -29.5 38t-8.5 49q0 51 39 85.5t90 34.5q53 0 89 -32t36 -85q0 -62 -49.5 -106t-143.5 -44q-115 0 -187 56.5
t-72 160.5q0 111 78 162t173 51h76v64q-16 -4 -32.5 -5.5t-35.5 -1.5q-115 0 -188 56t-73 160q0 110 78.5 162t172.5 52h77v95h-385l-14 54h571l14 -54h-117v-155l-148 1q-67 0 -122 -38t-55 -117q0 -81 55.5 -119t109.5 -38q-21 14 -29.5 38t-8.5 49q0 51 39 85.5t90 34.5
q52 0 89 -32t37 -84q0 -34 -14.5 -62.5t-41.5 -48.5v-155l-148 1q-67 1 -122 -37t-55 -118zM391 -172q-28 0 -50 -18.5t-22 -53.5q0 -26 14.5 -48.5t41.5 -35.5q45 10 65 35.5t20 55.5q0 28 -18.5 46.5t-50.5 18.5z" />
    <glyph glyph-name="dv_DdhYa" horiz-adv-x="1143" 
d="M497 626v-134h134q53 0 81.5 -26.5t28.5 -59.5q0 -39 -20 -60.5t-67 -45.5q10 -42 53.5 -73.5t98.5 -34.5q69 0 108 40.5t39 110.5v283h-456zM-11 680h1151l14 -54h-133v-642l-68 16v188q-26 -25 -63.5 -39.5t-83.5 -14.5q-89 0 -153 57t-64 129l12 13q31 10 56 26t25 39
q0 16 -12 28t-52 12h-246q-103 0 -171.5 -52t-68.5 -147q0 -104 62 -149t150 -49q-23 19 -38.5 46.5t-15.5 57.5q0 58 39.5 100.5t105.5 42.5q67 0 107 -37t40 -97q0 -72 -62.5 -122t-159.5 -50q-115 0 -207.5 58t-92.5 199q0 122 90.5 190.5t221.5 68.5h56v128h-425z
M440 227q-34 0 -59 -21t-25 -61q0 -31 17.5 -57t48.5 -40q51 11 74 40.5t23 63.5q0 32 -21 53.5t-58 21.5z" />
    <glyph glyph-name="dv_DGa" horiz-adv-x="593" 
d="M538 -12l-52 -31l-71 133h-1q-19 -4 -38.5 -5.5t-38.5 -1.5q-38 0 -75 7t-70 21v-191q0 -19 -7 -31t-21 -12q-49 0 -81.5 40t-25.5 75q1 10 10 17.5t21 7.5h35v139q-29 28 -46.5 67t-17.5 90q0 107 83 166.5t207 59.5h44v87h-390l-14 54h599l15 -54h-141v-145h-113
q-94 0 -156 -45.5t-62 -122.5q0 -86 61 -128t145 -42q13 0 25 1t25 2q-2 8 -4 18.5t-2 21.5q0 20 13 32.5t34 12.5q22 0 50.5 -17t28.5 -45q0 -14 -9.5 -30t-28.5 -31z" />
    <glyph glyph-name="dv_DDa" horiz-adv-x="524" 
d="M403 5q-26 -9 -56.5 -15t-64.5 -6q-110 0 -166.5 52.5t-56.5 127.5q0 31 17.5 71t68.5 68q-31 18 -49 48.5t-18 67.5q0 53 39 89.5t103 36.5h130v81h-347l-14 54h531l15 -54h-116v-138h-197q-40 0 -58.5 -20t-18.5 -49q0 -28 18.5 -53t58.5 -25h107l-2 -1h59l19 -53h-84
q-101 0 -146.5 -32.5t-44.5 -92.5q1 -59 43 -90.5t105 -31.5q26 0 51 4.5t47 11.5q-3 9 -4.5 22.5t-1.5 23.5q0 19 12.5 32.5t33.5 13.5q23 0 51.5 -17.5t28.5 -45.5q0 -15 -10 -30.5t-28 -30.5l70 -120l-53 -32z" />
    <glyph glyph-name="dv_DNa" horiz-adv-x="593" 
d="M538 -12l-52 -31l-72 133q-14 -3 -29 -4.5t-30 -2.5l-39 -72q12 -7 31 -22t19 -31q0 -28 -35.5 -46.5t-58.5 -18.5q-25 0 -47.5 10.5t-22.5 40.5q0 11 38 71.5t44 70.5q-93 13 -159 70t-66 157q0 142 110.5 184t223.5 42v87h-390l-14 54h599l15 -54h-141v-145
q-90 0 -210.5 -17.5t-120.5 -150.5q0 -89 63 -129.5t143 -40.5q13 0 25 1t25 2q-3 10 -4.5 20t-1.5 20q0 20 13.5 32.5t33.5 12.5q24 0 51.5 -17.5t27.5 -44.5q0 -19 -12.5 -34.5t-25.5 -26.5z" />
    <glyph glyph-name="dv_DBa" horiz-adv-x="593" 
d="M184 41q0 -60 37 -96.5t91 -36.5q13 0 26 2.5t24 6.5l-163 188q-7 -14 -11 -30.5t-4 -33.5zM414 90q-19 -4 -38.5 -5.5t-38.5 -1.5q-15 0 -29.5 1t-28.5 3l127 -144q17 17 27 41.5t11 53.5l-29 52h-1zM584 -88l-51 -32l-49 88q-18 -47 -61 -79.5t-109 -32.5
q-82 0 -140 49.5t-58 134.5q0 27 7.5 52.5t20.5 46.5q-38 28 -61.5 71.5t-23.5 102.5q0 107 83 166.5t207 59.5h44v87h-390l-14 54h599l15 -54h-141v-145h-113q-94 0 -156 -45.5t-62 -122.5q0 -86 61 -128t145 -42q13 0 25 1t25 2q-2 8 -4 18.5t-2 21.5q0 20 13 32.5
t34 12.5q22 0 50.5 -17t28.5 -45q0 -14 -9.5 -30t-28.5 -31z" />
    <glyph glyph-name="dv_DMa" horiz-adv-x="833" 
d="M-11 680h841l15 -54h-134v-642l-68 16v77h-210v-44q0 -19 -7.5 -31.5t-22.5 -12.5q-48 0 -80.5 40t-26.5 75q1 10 10 17.5t22 7.5h35v124h-156q-58 0 -106.5 38t-48.5 93q0 60 44.5 95.5t108.5 35.5h159v111h-361zM433 310v-181h210v497h-210v-168h-228q-39 0 -62 -21.5
t-23 -52.5q0 -33 24 -54t63 -21h156v1h70z" />
    <glyph glyph-name="dv_DYa" horiz-adv-x="756" 
d="M566 121q-30 -57 -108 -97t-166 -40q-116 0 -174.5 52.5t-58.5 127.5q0 31 17.5 71t67.5 69q-31 16 -48.5 47t-17.5 68q0 53 39 89.5t103 36.5h130v81h-347l-14 54h763l15 -54h-133v-642l-68 16v121zM130 162q1 -59 48 -90.5t110 -31.5q99 0 188.5 69t89.5 235v282h-147
v-138h-197q-40 0 -58.5 -20t-18.5 -49q0 -28 18.5 -53t58.5 -25h107l-1 -1h58l19 -53h-84q-101 0 -146.5 -32.5t-44.5 -92.5z" />
    <glyph glyph-name="dv_DVa" horiz-adv-x="593" 
d="M184 41q0 -60 37 -96.5t91 -36.5q57 0 94 36t38 94l-29 52h-1q-19 -4 -38.5 -5.5t-38.5 -1.5q-36 0 -71 6t-66 19q-7 -15 -11.5 -32t-4.5 -35zM584 -88l-51 -32l-49 88q-18 -47 -61 -79.5t-109 -32.5q-82 0 -140 49.5t-58 134.5q0 27 7.5 52.5t20.5 46.5
q-38 28 -61.5 71.5t-23.5 102.5q0 107 83 166.5t207 59.5h44v87h-390l-14 54h599l15 -54h-141v-145h-113q-94 0 -156 -45.5t-62 -122.5q0 -86 61 -128t145 -42q13 0 25 1t25 2q-2 8 -4 18.5t-2 21.5q0 20 13 32.5t34 12.5q22 0 50.5 -17t28.5 -45q0 -14 -9.5 -30t-28.5 -31z
" />
    <glyph glyph-name="dv_HMa" horiz-adv-x="930" 
d="M739 330h-231v-44q0 -21 -7.5 -33t-21.5 -12q-32 0 -58.5 19.5t-39.5 45.5q-17 10 -40 17t-51 7q-60 0 -99.5 -37t-39.5 -88q0 -81 76.5 -120.5t148.5 -45.5l-15 -55q-106 6 -191 64t-85 157q0 45 16 79.5t44 56.5q-22 15 -36.5 38t-14.5 54q1 54 35.5 83t98.5 29h147v81
h-372l-14 54h938l14 -54h-133v-642l-69 16v330zM207 373q19 7 41 10t44 3q24 0 46.5 -3.5t41.5 -10.5q4 4 11 6.5t14 2.5h334v245h-297v-138h-212q-32 0 -50.5 -14t-19.5 -40q0 -20 13 -37t34 -24z" />
    <glyph glyph-name="dv_HYa" horiz-adv-x="1092" 
d="M423 236q0 37 -36.5 65.5t-96.5 28.5t-99.5 -37t-39.5 -88q0 -81 76.5 -120.5t148.5 -45.5l-15 -55q-106 6 -191 64t-85 157q0 45 16 79.5t44 56.5q-22 15 -36.5 38t-14.5 54q1 54 35.5 83t98.5 29h147v81h-372l-14 54h1100l14 -54h-132v-642l-68 16v237
q-26 -25 -63.5 -39t-83.5 -14q-88 0 -152.5 56.5t-64.5 128.5l12 14q31 9 55.5 25.5t24.5 39.5q0 14 -11.5 27t-51.5 13h-338q-32 0 -50.5 -14t-19.5 -40q0 -20 13 -37t34 -24q19 7 41 10t44 3q87 0 142 -43t55 -102q0 -33 -13.5 -67t-39.5 -51l-50 35q20 18 28.5 36.5
t8.5 41.5zM442 626v-84h138q54 0 82.5 -27t28.5 -59q0 -40 -20 -61t-67 -45q10 -42 53.5 -73.5t98.5 -33.5q69 0 108 40t39 110v233h-461z" />
    <glyph glyph-name="dv_KSsMYa" horiz-adv-x="1389" 
d="M247 636q-28 0 -47 -18.5t-19 -45.5q0 -31 20.5 -56t53.5 -46q26 25 43.5 49t17.5 47q-1 29 -21.5 49.5t-47.5 20.5zM372 626q7 -13 11 -27t4 -28q0 -37 -21 -68.5t-52 -60.5q52 -19 110.5 -29.5t106.5 -10.5h30v224h-189zM847 377q31 9 56.5 46.5t25.5 92.5q0 42 -22 70
t-59 40h-218v-304h211q-3 10 -4.5 20.5t-1.5 20.5zM1199 626h-251q20 -16 32.5 -45.5t12.5 -70.5q0 -48 -22.5 -95t-69.5 -71q9 -42 52.5 -73.5t98.5 -34.5q70 0 108.5 40t38.5 111v239zM111 570q0 49 37 86.5t103 37.5q17 0 33 -3.5t29 -10.5h1072l15 -54h-133v-642l-68 16
v231q-26 -25 -63.5 -39t-83.5 -14q-58 0 -107.5 26t-77.5 66h-237v-45q0 -19 -7.5 -31t-21.5 -12q-49 0 -81 40t-26 74q2 10 10.5 18t21.5 8h35v27h-31q-64 0 -134.5 13t-130.5 38q-51 -41 -94.5 -83.5t-43.5 -93.5q0 -56 46 -79.5t91 -23.5q12 0 24.5 1t24.5 2
q-3 8 -4 18.5t-1 21.5q0 20 12 33t34 13q23 0 51.5 -17t28.5 -45q0 -16 -10 -31t-29 -31l70 -120l-51 -32l-73 134h-1q-18 -4 -37.5 -6t-38.5 -2q-72 0 -139.5 36.5t-67.5 126.5q0 61 48.5 112t101.5 95q-43 27 -69.5 62.5t-26.5 78.5z" />
    <glyph glyph-name="dv_KSPRa" horiz-adv-x="1714" 
d="M1168 626h-241q28 -30 42.5 -72.5t14.5 -86.5q0 -33 -9 -62t-28 -54h223q-1 8 -1.5 17t-0.5 19v239zM1524 387v239h-289v-239q0 -69 36 -110t109 -41q69 0 106.5 40t37.5 111zM273 453q-57 0 -99 -41t-43 -106q0 -65 40 -106.5t102 -41.5t96 32.5t54 60.5v109
q-20 28 -54 60.5t-96 32.5zM491 626v-342q24 25 60 47t99 22h47q10 16 26 27t34 11q13 0 22 -12t16 -28l11 -27q46 11 76.5 48t30.5 95q0 47 -22.5 93.5t-58.5 65.5h-341zM1524 0v216l-303 -234l-51 38l211 158h-6q-71 0 -121 31.5t-72 89.5h-285q-17 -12 -38.5 -21.5
t-44.5 -13.5l165 -264l-70 -18l-159 278h-40q-12 0 -20.5 7.5t-9.5 17.5q-1 3 -1.5 6t0.5 7h-27q-68 0 -105.5 -36.5t-55.5 -64.5v-213l-68 16v163q-25 -22 -61 -41.5t-86 -19.5q-91 0 -156 54.5t-65 148.5q0 87 60.5 146t160.5 59q50 0 86 -19.5t61 -42.5v178h-420l-14 54
h1721l15 -54h-133v-642z" />
    </font>
</defs>
</svg>
